<svg width="192" height="192" viewBox="0 0 192 192" fill="none" xmlns="http://www.w3.org/2000/svg">
<path d="M47.3686 169.966L60.5428 167.495C65.5144 166.659 69.2721 164.53 71.7085 160.787C74.0839 157.137 75.0222 152.22 75.0222 146.171V95.5624H117.05V159.47L116.906 167.966L116.864 170.415L119.272 169.966L132.519 167.495C137.491 166.66 141.25 164.531 143.686 160.787C146.062 157.137 147 152.22 147 146.171V89.5604V24V22H145H118.905H116.905V24L116.905 24.0728L116.905 24.0779L117.045 79.047H74.9548L75.0947 24.0779L75.0998 22.0728H73.0947H47H45V24.0728V96.1819V137.948V168V170.41L47.3686 169.966Z" fill="#1E3067" stroke="#1E3067" stroke-width="4"/>
</svg>
