<svg width="408" height="89" viewBox="0 0 408 89" fill="none" xmlns="http://www.w3.org/2000/svg">
<path d="M247.308 7.74169C254.218 7.74169 260.034 11.9638 263.068 18.8463C263.068 18.8463 267.104 7.05637 267.026 6.97804C262.472 3.56245 255.767 0 247.786 0C226.97 0 209.939 14.2473 209.939 47.6837C209.939 78.6627 229.57 89 245.117 89C251.575 89 257.595 87.5743 262.243 84.8563C266.853 82.1651 267.1 77.5698 266.818 71.9086L266.744 69.9542C262.534 76.5516 255.768 81.6316 248.168 81.6316C234.77 81.6316 225.577 69.2346 225.577 45.8113C225.577 20.0603 236.783 7.74169 247.308 7.74169Z" fill="#072966"/>
<path d="M43.0868 1.5957L43.1603 35.5729H15.5801L15.6499 1.5957H0.0273438V44.5864H0.0616305L0.0273438 69.5023V87.3996L7.93905 85.9251C13.4078 85.0017 15.5985 81.4048 15.5985 74.3789V55.1712L15.5814 43.0127H43.1615L43.0966 82.3331L43.088 87.4045L51.0254 85.9251C56.4942 85.0017 58.6849 81.4048 58.6849 74.3789V40.6234C58.6849 40.6405 58.702 40.6491 58.7106 40.6626V1.5957H43.0868Z" fill="#072966"/>
<path d="M102.983 1.06348H95.7545L71.3428 78.7424L68.6387 87.3992L69.3973 87.4041H73.5318C76.6176 87.3344 77.9819 86.1479 79.0354 82.8158L84.3311 62.2019H106.121L112.981 87.4041H129.449L102.983 1.06348ZM86.8015 54.8392L95.7545 25.144L104.049 54.8392H86.8015Z" fill="#072966"/>
<path d="M321.659 1.5957L321.732 35.5729H294.235L294.304 1.5957H278.729V44.5864H278.763L278.729 69.5023V87.3996L286.616 85.9251C292.069 85.0017 294.253 81.4048 294.253 74.3789V55.1712L294.236 43.0127H321.733L321.669 82.3331L321.66 87.4045L329.572 85.9251C335.025 85.0017 337.209 81.4048 337.209 74.3789V40.6234C337.209 40.6405 337.231 40.6491 337.234 40.6626V1.5957H321.659Z" fill="#072966"/>
<path d="M381.584 1.06348H374.377L350.036 78.7424L347.34 87.3992L348.096 87.4041H352.219C355.296 87.3344 356.656 86.1479 357.706 82.8158L362.987 62.2019H384.713L391.553 87.4041H407.973L381.584 1.06348ZM365.45 54.8392L374.377 25.144L382.647 54.8392H365.45Z" fill="#072966"/>
<path d="M198.235 1.62386C198.23 1.62386 198.188 1.62386 198.109 1.62386L193.451 2.36086C190.35 2.82852 189.126 4.79833 189.056 8.77836L189.064 9.31581C189.398 24.8736 189.714 42.7782 189.315 59.7499L189.298 59.8797C189.298 59.8797 156.097 11.6957 149.186 1.62263C148.329 1.69242 140.625 1.62263 140.625 1.62263L139.201 87.4045C139.201 87.4045 139.254 87.4008 139.331 87.4008L143.99 86.6638C147.09 86.1961 148.32 84.2275 148.384 80.2463L148.376 79.7125C148.034 63.643 147.7 45.0712 148.159 27.6134C162.803 47.8417 176.165 67.4284 189.223 87.4045C189.756 87.3224 196.592 87.4008 196.814 87.4045C196.817 87.4045 196.836 87.4045 196.836 87.4045L198.2 3.92422L198.239 1.62141V1.5957L198.235 1.62386Z" fill="#072966"/>
</svg>
