<svg width="182" height="83" viewBox="0 0 182 83" fill="none" xmlns="http://www.w3.org/2000/svg">
<g opacity="0.5">
<g clip-path="url(#clip0_2114_45269)">
<mask id="mask0_2114_45269" style="mask-type:luminance" maskUnits="userSpaceOnUse" x="-167" y="-86" width="352" height="194">
<path d="M184.49 -85.7373H-166.883V107.827H184.49V-85.7373Z" fill="white"/>
</mask>
<g mask="url(#mask0_2114_45269)">
<path d="M115.43 29.7426V-7.47998" stroke="#D4AF54" stroke-width="2.007" stroke-miterlimit="10"/>
</g>
<mask id="mask1_2114_45269" style="mask-type:luminance" maskUnits="userSpaceOnUse" x="-167" y="-86" width="352" height="194">
<path d="M184.49 -85.7373H-166.883V107.827H184.49V-85.7373Z" fill="white"/>
</mask>
<g mask="url(#mask1_2114_45269)">
<path d="M134.434 11.1309H96.4258" stroke="#D4AF54" stroke-width="2.007" stroke-miterlimit="10"/>
</g>
<mask id="mask2_2114_45269" style="mask-type:luminance" maskUnits="userSpaceOnUse" x="-167" y="-86" width="352" height="194">
<path d="M184.49 -85.7373H-166.883V107.827H184.49V-85.7373Z" fill="white"/>
</mask>
<g mask="url(#mask2_2114_45269)">
<path d="M133.958 6.48251H120.072V-6.75781C120.072 -6.75781 127.536 -5.9271 132.77 1.85579H125.002" stroke="#D4AF54" stroke-width="2.007" stroke-miterlimit="10"/>
</g>
<mask id="mask3_2114_45269" style="mask-type:luminance" maskUnits="userSpaceOnUse" x="-167" y="-86" width="352" height="194">
<path d="M184.49 -85.7373H-166.883V107.827H184.49V-85.7373Z" fill="white"/>
</mask>
<g mask="url(#mask3_2114_45269)">
<path d="M133.958 15.6831H120.072V28.9234C120.072 28.9234 127.536 28.0927 132.77 20.3098H125.002" stroke="#D4AF54" stroke-width="2.007" stroke-miterlimit="10"/>
</g>
<mask id="mask4_2114_45269" style="mask-type:luminance" maskUnits="userSpaceOnUse" x="-167" y="-86" width="352" height="194">
<path d="M184.49 -85.7373H-166.883V107.827H184.49V-85.7373Z" fill="white"/>
</mask>
<g mask="url(#mask4_2114_45269)">
<path d="M96.9023 15.6831H110.737V28.9234C110.737 28.9234 103.287 28.0927 98.0626 20.3098H105.818" stroke="#D4AF54" stroke-width="2.007" stroke-miterlimit="10"/>
</g>
<mask id="mask5_2114_45269" style="mask-type:luminance" maskUnits="userSpaceOnUse" x="-167" y="-86" width="352" height="194">
<path d="M184.49 -85.7373H-166.883V107.827H184.49V-85.7373Z" fill="white"/>
</mask>
<g mask="url(#mask5_2114_45269)">
<path d="M96.9023 6.48251H110.737V-6.75781C110.737 -6.75781 103.287 -5.9271 98.0626 1.85579H105.818" stroke="#D4AF54" stroke-width="2.007" stroke-miterlimit="10"/>
</g>
</g>
<g clip-path="url(#clip1_2114_45269)">
<mask id="mask6_2114_45269" style="mask-type:luminance" maskUnits="userSpaceOnUse" x="-318" y="-104" width="493" height="277">
<path d="M174.511 -103.903H-317.59V172.903H174.511V-103.903Z" fill="white"/>
</mask>
<g mask="url(#mask6_2114_45269)">
<path d="M71.9941 -1.61568C72.9001 -0.681459 74.0855 -0.0663357 75.3593 0.184841C75.9142 0.288645 76.3781 0.337341 77.0842 0.343748C77.7211 0.354 78.2491 0.288645 78.8091 0.184841C80.083 -0.0663357 81.2658 -0.680178 82.1705 -1.61568C83.6174 -3.10736 84.0415 -4.99247 84.0005 -7.0211C83.9249 -10.6286 82.5858 -14.1232 80.6763 -17.1451C80.6763 -17.1451 80.5289 -17.4142 80.2316 -17.3245C80.2316 -17.3245 80.0394 -17.2322 80.0829 -16.9413C80.0829 -16.9413 81.8668 -11.6538 81.7463 -7.55165C81.7463 -7.55165 81.8079 -5.26543 79.9958 -4.10823C79.9958 -4.10823 78.7771 -3.26755 77.0855 -3.306C75.3939 -3.26755 74.1739 -4.10823 74.1739 -4.10823C72.3619 -5.26543 72.4233 -7.55165 72.4233 -7.55165C72.3054 -11.6538 74.0842 -16.9413 74.0842 -16.9413C74.115 -17.2655 73.9368 -17.3245 73.9368 -17.3245C73.6395 -17.4142 73.4921 -17.1451 73.4921 -17.1451C71.5814 -14.1232 70.2448 -10.6286 70.1692 -7.0211C70.1243 -4.99375 70.5472 -3.10736 71.9941 -1.61568Z" fill="#E4D9BA"/>
</g>
</g>
<g clip-path="url(#clip2_2114_45269)">
<mask id="mask7_2114_45269" style="mask-type:luminance" maskUnits="userSpaceOnUse" x="-204" y="-75" width="469" height="264">
<path d="M264.239 -74.5967H-203.66V188.597H264.239V-74.5967Z" fill="white"/>
</mask>
<g mask="url(#mask7_2114_45269)">
<path d="M146.891 -6.88655C146.003 -6.02629 145.418 -4.89919 145.182 -3.68924C145.081 -3.16163 145.037 -2.72053 145.028 -2.04915C145.019 -1.44234 145.081 -0.937888 145.182 -0.411501C145.418 0.800894 146.003 1.92678 146.891 2.78825C148.31 4.16392 150.105 4.56724 152.031 4.52459C155.461 4.45514 158.784 3.18425 161.659 1.36749C161.659 1.36749 161.914 1.22736 161.829 0.942237C161.829 0.942237 161.741 0.75946 161.465 0.802108C161.465 0.802108 156.437 2.49581 152.539 2.38371C152.539 2.38371 150.364 2.43854 149.264 0.719252C149.264 0.719252 148.464 -0.443182 148.501 -2.04915C148.464 -3.65633 149.264 -4.81756 149.264 -4.81756C150.364 -6.53928 152.539 -6.48201 152.539 -6.48201C156.437 -6.59654 161.465 -4.89797 161.465 -4.89797C161.773 -4.87117 161.829 -5.04175 161.829 -5.04175C161.914 -5.32444 161.659 -5.46457 161.659 -5.46457C158.784 -7.2789 155.462 -8.55222 152.031 -8.62411C150.105 -8.66554 148.31 -8.26222 146.891 -6.88655Z" fill="#E4D9BA"/>
</g>
<mask id="mask8_2114_45269" style="mask-type:luminance" maskUnits="userSpaceOnUse" x="-204" y="-75" width="469" height="264">
<path d="M264.239 -74.5967H-203.66V188.597H264.239V-74.5967Z" fill="white"/>
</mask>
<g mask="url(#mask8_2114_45269)">
<path d="M153.627 -4.47381C152.444 -4.30931 151.499 -3.9133 151.004 -3.04696C150.801 -2.69238 150.707 -2.28784 150.703 -1.86502C150.707 -1.44586 150.801 -1.03889 151.004 -0.681875C151.499 0.183251 152.444 0.576824 153.627 0.743756C155.96 1.06544 158.721 0.584138 161.453 -0.386996C161.453 -0.386996 161.702 -0.462543 161.656 -0.669686C161.656 -0.669686 161.666 -0.934098 161.326 -0.891451C161.326 -0.891451 157.713 -0.109185 155.054 -0.505193C155.054 -0.505193 153.712 -0.633133 153.391 -1.65423C153.355 -1.7712 153.352 -1.95641 153.391 -2.07948C153.712 -3.09813 155.054 -3.22608 155.054 -3.22608C157.713 -3.6233 161.326 -2.83981 161.326 -2.83981C161.666 -2.7996 161.656 -3.0628 161.656 -3.0628C161.702 -3.26872 161.453 -3.34427 161.453 -3.34427C158.722 -4.3154 155.961 -4.79914 153.627 -4.47381Z" fill="#E4D9BA"/>
</g>
<mask id="mask9_2114_45269" style="mask-type:luminance" maskUnits="userSpaceOnUse" x="-204" y="-75" width="469" height="264">
<path d="M264.239 -74.5967H-203.66V188.597H264.239V-74.5967Z" fill="white"/>
</mask>
<g mask="url(#mask9_2114_45269)">
<path d="M150.71 12.0015C150.69 13.2395 151.073 14.4506 151.761 15.4729C152.063 15.9189 152.344 16.2613 152.815 16.7402C153.234 17.1752 153.634 17.4908 154.08 17.7905C155.105 18.4814 156.314 18.864 157.551 18.8457C159.525 18.8128 161.079 17.8295 162.414 16.4392C164.789 13.9608 166.239 10.7135 166.99 7.39559C166.99 7.39559 167.069 7.11777 166.81 6.97886C166.81 6.97886 166.617 6.91062 166.45 7.1397C166.45 7.1397 164.092 11.8894 161.258 14.5652C161.258 14.5652 159.758 16.1443 157.764 15.7057C157.764 15.7057 156.378 15.4473 155.268 14.2837C154.103 13.1724 153.847 11.7907 153.847 11.7907C153.409 9.796 154.987 8.29604 154.987 8.29604C157.662 5.46306 162.414 3.10407 162.414 3.10407C162.657 2.90424 162.575 2.74462 162.575 2.74462C162.435 2.48264 162.154 2.56428 162.154 2.56428C158.837 3.31487 155.591 4.76487 153.114 7.1397C151.725 8.47394 150.739 10.0287 150.71 12.0015Z" fill="#E4D9BA"/>
</g>
<mask id="mask10_2114_45269" style="mask-type:luminance" maskUnits="userSpaceOnUse" x="-204" y="-75" width="469" height="264">
<path d="M264.239 -74.5967H-203.66V188.597H264.239V-74.5967Z" fill="white"/>
</mask>
<g mask="url(#mask10_2114_45269)">
<path d="M157.177 8.94394C156.457 9.89924 156.071 10.8436 156.332 11.8062C156.442 12.2034 156.659 12.5568 156.954 12.8565C157.253 13.1514 157.61 13.3731 158.006 13.4816C158.966 13.7436 159.913 13.3537 160.866 12.6335C162.746 11.2152 164.357 8.92201 165.601 6.30348C165.601 6.30348 165.725 6.07075 165.545 5.95865C165.545 5.95865 165.367 5.76613 165.155 6.03419C165.155 6.03419 163.154 9.145 160.992 10.7437C160.992 10.7437 159.954 11.6015 159.007 11.1068C158.896 11.0507 158.765 10.9167 158.706 10.8058C158.214 9.85659 159.07 8.81844 159.07 8.81844C160.671 6.65928 163.777 4.65609 163.777 4.65609C164.048 4.44407 163.855 4.26617 163.855 4.26617C163.742 4.08949 163.511 4.21012 163.511 4.21012C160.892 5.45663 158.598 7.06747 157.177 8.94394Z" fill="#E4D9BA"/>
</g>
<mask id="mask11_2114_45269" style="mask-type:luminance" maskUnits="userSpaceOnUse" x="-204" y="-75" width="469" height="264">
<path d="M264.239 -74.5967H-203.66V188.597H264.239V-74.5967Z" fill="white"/>
</mask>
<g mask="url(#mask11_2114_45269)">
<path d="M166.764 22.6607C167.625 23.5489 168.752 24.1338 169.963 24.3726C170.491 24.4713 170.932 24.5176 171.603 24.5237C172.209 24.5335 172.711 24.4713 173.243 24.3726C174.455 24.1338 175.579 23.5502 176.44 22.6607C177.815 21.2423 178.219 19.4499 178.18 17.5211C178.108 14.091 176.834 10.7682 175.019 7.89503C175.019 7.89503 174.879 7.63914 174.596 7.72444C174.596 7.72444 174.413 7.81218 174.455 8.08877C174.455 8.08877 176.151 13.1162 176.036 17.0166C176.036 17.0166 176.095 19.1904 174.372 20.2907C174.372 20.2907 173.213 21.09 171.605 21.0535C169.996 21.09 168.836 20.2907 168.836 20.2907C167.113 19.1904 167.172 17.0166 167.172 17.0166C167.06 13.1162 168.751 8.08877 168.751 8.08877C168.78 7.78049 168.611 7.72444 168.611 7.72444C168.328 7.63914 168.188 7.89503 168.188 7.89503C166.371 10.7682 165.1 14.091 165.028 17.5211C164.986 19.4487 165.388 21.2423 166.764 22.6607Z" fill="#E4D9BA"/>
</g>
<mask id="mask12_2114_45269" style="mask-type:luminance" maskUnits="userSpaceOnUse" x="-204" y="-75" width="469" height="264">
<path d="M264.239 -74.5967H-203.66V188.597H264.239V-74.5967Z" fill="white"/>
</mask>
<g mask="url(#mask12_2114_45269)">
<path d="M169.178 15.9235C169.344 17.1067 169.738 18.0522 170.602 18.5469C170.959 18.7504 171.367 18.8454 171.785 18.8479C172.207 18.8454 172.611 18.7504 172.971 18.5469C173.836 18.0522 174.229 17.1067 174.393 15.9235C174.719 13.5913 174.233 10.8302 173.266 8.09837C173.266 8.09837 173.19 7.84858 172.983 7.89488C172.983 7.89488 172.717 7.88514 172.76 8.2251C172.76 8.2251 173.542 11.8379 173.149 14.5003C173.149 14.5003 173.021 15.8394 172 16.1599C171.883 16.1964 171.692 16.1989 171.574 16.1599C170.553 15.8394 170.425 14.5003 170.425 14.5003C170.029 11.8379 170.812 8.2251 170.812 8.2251C170.854 7.88514 170.59 7.89488 170.59 7.89488C170.384 7.84858 170.308 8.09837 170.308 8.09837C169.336 10.8302 168.851 13.5913 169.178 15.9235Z" fill="#E4D9BA"/>
</g>
<mask id="mask13_2114_45269" style="mask-type:luminance" maskUnits="userSpaceOnUse" x="-204" y="-75" width="469" height="264">
<path d="M264.239 -74.5967H-203.66V188.597H264.239V-74.5967Z" fill="white"/>
</mask>
<g mask="url(#mask13_2114_45269)">
<path d="M185.655 18.8455C186.893 18.865 188.102 18.4787 189.126 17.7903C189.572 17.4917 189.915 17.2078 190.391 16.7399C190.827 16.3171 191.142 15.9187 191.445 15.4727C192.133 14.4504 192.516 13.2392 192.497 12.0012C192.466 10.0285 191.482 8.4737 190.09 7.13824C187.614 4.7634 184.364 3.31341 181.048 2.56282C181.048 2.56282 180.769 2.48118 180.631 2.74315C180.631 2.74315 180.563 2.93567 180.791 3.10261C180.791 3.10261 185.545 5.46038 188.218 8.29459C188.218 8.29459 189.798 9.79454 189.359 11.7892C189.359 11.7892 189.101 13.171 187.938 14.2822C186.827 15.4459 185.443 15.7042 185.443 15.7042C183.446 16.1429 181.946 14.5637 181.946 14.5637C179.11 11.8879 176.755 7.13824 176.755 7.13824C176.555 6.89576 176.395 6.97739 176.395 6.97739C176.134 7.11752 176.215 7.39655 176.215 7.39655C176.966 10.7133 178.416 13.9605 180.791 16.439C182.125 17.828 183.681 18.8126 185.655 18.8455Z" fill="#E4D9BA"/>
</g>
<mask id="mask14_2114_45269" style="mask-type:luminance" maskUnits="userSpaceOnUse" x="-204" y="-75" width="469" height="264">
<path d="M264.239 -74.5967H-203.66V188.597H264.239V-74.5967Z" fill="white"/>
</mask>
<g mask="url(#mask14_2114_45269)">
<path d="M182.597 12.3738C183.551 13.094 184.497 13.4802 185.457 13.2195C185.857 13.111 186.208 12.8917 186.509 12.5968C186.804 12.2983 187.023 11.9413 187.131 11.5465C187.393 10.5839 187.005 9.63711 186.286 8.68669C184.865 6.80413 182.574 5.19451 179.952 3.95043C179.952 3.95043 179.72 3.82615 179.608 4.00649C179.608 4.00649 179.416 4.18682 179.684 4.3964C179.684 4.3964 182.795 6.39716 184.391 8.55875C184.391 8.55875 185.252 9.5969 184.755 10.5437C184.7 10.6546 184.568 10.7862 184.454 10.8446C183.508 11.3369 182.467 10.4815 182.467 10.4815C180.309 8.88043 178.305 5.77451 178.305 5.77451C178.095 5.50278 177.915 5.69896 177.915 5.69896C177.737 5.80984 177.86 6.04014 177.86 6.04014C179.106 8.65867 180.716 10.9531 182.597 12.3738Z" fill="#E4D9BA"/>
</g>
<mask id="mask15_2114_45269" style="mask-type:luminance" maskUnits="userSpaceOnUse" x="-204" y="-75" width="469" height="264">
<path d="M264.239 -74.5967H-203.66V188.597H264.239V-74.5967Z" fill="white"/>
</mask>
<g mask="url(#mask15_2114_45269)">
<path d="M196.311 2.78817C197.199 1.9267 197.785 0.7996 198.021 -0.411577C198.123 -0.939182 198.168 -1.3815 198.174 -2.05166C198.186 -2.65725 198.124 -3.16293 198.021 -3.69175C197.785 -4.90293 197.199 -6.02759 196.311 -6.88784C194.893 -8.26351 193.099 -8.66683 191.173 -8.62784C187.742 -8.55595 184.422 -7.28263 181.544 -5.46708C181.544 -5.46708 181.29 -5.32696 181.375 -5.04427C181.375 -5.04427 181.46 -4.86028 181.742 -4.90293C181.742 -4.90293 186.768 -6.59906 190.666 -6.48452C190.666 -6.48452 192.84 -6.543 193.941 -4.82006C193.941 -4.82006 194.74 -3.65763 194.702 -2.05288C194.74 -0.44448 193.941 0.717956 193.941 0.717956C192.84 2.43724 190.666 2.38241 190.666 2.38241C186.768 2.4933 181.742 0.800819 181.742 0.800819C181.43 0.771576 181.375 0.940941 181.375 0.940941C181.29 1.22607 181.544 1.36619 181.544 1.36619C184.422 3.18052 187.742 4.45141 191.173 4.5233C193.099 4.56838 194.893 4.16506 196.311 2.78817Z" fill="#E4D9BA"/>
</g>
<mask id="mask16_2114_45269" style="mask-type:luminance" maskUnits="userSpaceOnUse" x="-204" y="-75" width="469" height="264">
<path d="M264.239 -74.5967H-203.66V188.597H264.239V-74.5967Z" fill="white"/>
</mask>
<g mask="url(#mask16_2114_45269)">
<path d="M189.575 0.375745C190.758 0.211249 191.703 -0.183539 192.194 -1.04623C192.4 -1.40568 192.495 -1.81265 192.497 -2.23181C192.494 -2.65341 192.399 -3.05795 192.194 -3.41741C191.703 -4.28131 190.759 -4.6761 189.575 -4.83938C187.242 -5.16472 184.481 -4.68219 181.747 -3.71228C181.747 -3.71228 181.499 -3.63673 181.545 -3.42715C181.545 -3.42715 181.535 -3.16517 181.873 -3.20538C181.873 -3.20538 185.488 -3.98765 188.145 -3.59408C188.145 -3.59408 189.486 -3.46614 189.806 -2.44383C189.845 -2.32929 189.845 -2.14165 189.806 -2.02102C189.486 -0.999925 188.145 -0.871985 188.145 -0.871985C185.487 -0.478414 181.873 -1.25824 181.873 -1.25824C181.535 -1.29845 181.545 -1.03892 181.545 -1.03892C181.499 -0.829337 181.747 -0.753788 181.747 -0.753788C184.481 0.216128 187.242 0.701081 189.575 0.375745Z" fill="#E4D9BA"/>
</g>
<mask id="mask17_2114_45269" style="mask-type:luminance" maskUnits="userSpaceOnUse" x="-204" y="-75" width="469" height="264">
<path d="M264.239 -74.5967H-203.66V188.597H264.239V-74.5967Z" fill="white"/>
</mask>
<g mask="url(#mask17_2114_45269)">
<path d="M178.467 -7.0204C175.039 -11.6872 168.164 -11.6872 164.735 -7.0204C162.599 -4.11309 162.599 0.0102625 164.733 2.91879C168.163 7.59291 175.04 7.59291 178.469 2.91879C180.605 0.00904369 180.605 -4.11431 178.467 -7.0204ZM168.406 2.73724C164.997 0.412364 164.997 -4.51154 168.406 -6.83642C170.3 -8.12923 172.904 -8.12923 174.799 -6.83642C178.206 -4.51154 178.206 0.412364 174.799 2.73724C172.905 4.02762 170.301 4.02762 168.406 2.73724Z" fill="#E4D9BA"/>
</g>
<mask id="mask18_2114_45269" style="mask-type:luminance" maskUnits="userSpaceOnUse" x="-204" y="-75" width="469" height="264">
<path d="M264.239 -74.5967H-203.66V188.597H264.239V-74.5967Z" fill="white"/>
</mask>
<g mask="url(#mask18_2114_45269)">
<path d="M174.273 0.620483C172.799 2.09729 170.406 2.09729 168.934 0.620483C167.46 -0.852668 167.46 -3.24456 168.934 -4.71893C170.407 -6.1933 172.799 -6.1933 174.273 -4.71893C175.748 -3.24578 175.748 -0.852668 174.273 0.620483Z" fill="#E4D9BA"/>
</g>
</g>
<g clip-path="url(#clip3_2114_45269)">
<mask id="mask19_2114_45269" style="mask-type:luminance" maskUnits="userSpaceOnUse" x="-165" y="-8" width="412" height="233">
<path d="M246.606 -7.21436H-164.822V224.214H246.606V-7.21436Z" fill="white"/>
</mask>
<g mask="url(#mask19_2114_45269)">
<path d="M169.402 34.851C168.645 34.0699 167.656 33.5545 166.59 33.3478C166.124 33.2578 165.738 33.2203 165.148 33.2128C164.614 33.202 164.172 33.2567 163.708 33.3478C162.642 33.5545 161.652 34.0699 160.897 34.851C159.685 36.0981 159.332 37.6753 159.368 39.3692C159.431 42.3853 160.55 45.3049 162.146 47.8367C162.146 47.8367 162.269 48.0585 162.518 47.9835C162.518 47.9835 162.678 47.9085 162.641 47.661C162.641 47.661 161.152 43.2413 161.252 39.8138C161.252 39.8138 161.203 37.9024 162.716 36.9338C162.716 36.9338 163.736 36.2331 165.149 36.2653C166.563 36.2331 167.583 36.9338 167.583 36.9338C169.097 37.9035 169.047 39.8138 169.047 39.8138C169.148 43.2413 167.656 47.661 167.656 47.661C167.633 47.9353 167.78 47.9835 167.78 47.9835C168.029 48.0585 168.152 47.8367 168.152 47.8367C169.748 45.3049 170.867 42.3853 170.93 39.3692C170.966 37.6742 170.613 36.0981 169.402 34.851Z" fill="#E4D9BA"/>
</g>
<mask id="mask20_2114_45269" style="mask-type:luminance" maskUnits="userSpaceOnUse" x="-165" y="-8" width="412" height="233">
<path d="M246.606 -7.21436H-164.822V224.214H246.606V-7.21436Z" fill="white"/>
</mask>
<g mask="url(#mask20_2114_45269)">
<path d="M167.28 40.7729C167.137 39.7325 166.789 38.9033 166.03 38.4693C165.714 38.2883 165.359 38.2047 164.988 38.2036C164.619 38.2058 164.262 38.2893 163.947 38.4693C163.188 38.9033 162.84 39.7315 162.697 40.7729C162.41 42.8236 162.833 45.2515 163.688 47.6536C163.688 47.6536 163.754 47.8733 163.937 47.8325C163.937 47.8325 164.169 47.8411 164.132 47.5443C164.132 47.5443 163.444 44.3654 163.794 42.0286C163.794 42.0286 163.907 40.85 164.802 40.5683C164.905 40.534 165.072 40.534 165.176 40.5683C166.072 40.85 166.188 42.0286 166.188 42.0286C166.534 44.3665 165.845 47.5443 165.845 47.5443C165.809 47.8411 166.041 47.8325 166.041 47.8325C166.222 47.8733 166.289 47.6536 166.289 47.6536C167.142 45.2515 167.568 42.8236 167.28 40.7729Z" fill="#E4D9BA"/>
</g>
<mask id="mask21_2114_45269" style="mask-type:luminance" maskUnits="userSpaceOnUse" x="-165" y="-8" width="412" height="233">
<path d="M246.606 -7.21436H-164.822V224.214H246.606V-7.21436Z" fill="white"/>
</mask>
<g mask="url(#mask21_2114_45269)">
<path d="M152.795 38.2056C151.707 38.1906 150.644 38.5248 149.743 39.1302C149.35 39.3959 149.049 39.6456 148.628 40.057C148.246 40.4256 147.969 40.777 147.705 41.1691C147.097 42.0702 146.761 43.1331 146.778 44.2227C146.804 45.9563 147.67 47.3245 148.892 48.4966C151.071 50.5848 153.927 51.8598 156.843 52.5198C156.843 52.5198 157.088 52.5895 157.212 52.3613C157.212 52.3613 157.272 52.1941 157.07 52.0473C157.07 52.0473 152.894 49.9763 150.539 47.482C150.539 47.482 149.151 46.1631 149.537 44.407C149.537 44.407 149.764 43.1909 150.786 42.2127C151.763 41.1906 152.98 40.9634 152.98 40.9634C154.734 40.5798 156.053 41.9663 156.053 41.9663C158.548 44.317 160.619 48.4977 160.619 48.4977C160.794 48.7098 160.935 48.6381 160.935 48.6381C161.165 48.517 161.093 48.2716 161.093 48.2716C160.433 45.3563 159.158 42.4977 157.07 40.3206C155.897 39.097 154.531 38.2323 152.795 38.2056Z" fill="#E4D9BA"/>
</g>
<mask id="mask22_2114_45269" style="mask-type:luminance" maskUnits="userSpaceOnUse" x="-165" y="-8" width="412" height="233">
<path d="M246.606 -7.21436H-164.822V224.214H246.606V-7.21436Z" fill="white"/>
</mask>
<g mask="url(#mask22_2114_45269)">
<path d="M155.483 43.8948C154.644 43.2616 153.812 42.9187 152.966 43.1491C152.617 43.2444 152.306 43.4373 152.042 43.6987C151.783 43.9612 151.588 44.2741 151.495 44.6223C151.262 45.4687 151.606 46.2991 152.238 47.1369C153.485 48.7891 155.502 50.2044 157.808 51.3005C157.808 51.3005 158.009 51.4098 158.108 51.2523C158.108 51.2523 158.278 51.0937 158.041 50.9094C158.041 50.9094 155.308 49.1491 153.9 47.2494C153.9 47.2494 153.146 46.3366 153.581 45.5008C153.63 45.4066 153.748 45.2887 153.845 45.2383C154.68 44.8044 155.593 45.5587 155.593 45.5587C157.492 46.9633 159.253 49.6976 159.253 49.6976C159.439 49.9333 159.595 49.7641 159.595 49.7641C159.751 49.6666 159.646 49.4619 159.646 49.4619C158.55 47.1605 157.133 45.1419 155.483 43.8948Z" fill="#E4D9BA"/>
</g>
<mask id="mask23_2114_45269" style="mask-type:luminance" maskUnits="userSpaceOnUse" x="-165" y="-8" width="412" height="233">
<path d="M246.606 -7.21436H-164.822V224.214H246.606V-7.21436Z" fill="white"/>
</mask>
<g mask="url(#mask23_2114_45269)">
<path d="M143.42 52.3238C142.639 53.0802 142.125 54.0713 141.917 55.1352C141.828 55.5992 141.79 55.987 141.782 56.5774C141.774 57.111 141.828 57.5545 141.917 58.0174C142.125 59.0835 142.639 60.0735 143.42 60.831C144.667 62.0406 146.246 62.3952 147.94 62.3577C150.956 62.2967 153.877 61.1792 156.406 59.5817C156.406 59.5817 156.63 59.4585 156.555 59.2077C156.555 59.2077 156.478 59.047 156.235 59.0845C156.235 59.0845 151.814 60.5738 148.386 60.4752C148.386 60.4752 146.474 60.5235 145.506 59.0117C145.506 59.0117 144.804 57.9895 144.836 56.5774C144.804 55.1642 145.506 54.1431 145.506 54.1431C146.474 52.6292 148.386 52.6795 148.386 52.6795C151.814 52.5788 156.235 54.0724 156.235 54.0724C156.506 54.096 156.555 53.946 156.555 53.946C156.63 53.6974 156.406 53.5742 156.406 53.5742C153.877 51.9788 150.957 50.8592 147.94 50.796C146.246 50.7595 144.667 51.1142 143.42 52.3238Z" fill="#E4D9BA"/>
</g>
<mask id="mask24_2114_45269" style="mask-type:luminance" maskUnits="userSpaceOnUse" x="-165" y="-8" width="412" height="233">
<path d="M246.606 -7.21436H-164.822V224.214H246.606V-7.21436Z" fill="white"/>
</mask>
<g mask="url(#mask24_2114_45269)">
<path d="M149.345 54.4452C148.305 54.5898 147.473 54.938 147.038 55.6998C146.859 56.0116 146.777 56.3673 146.773 56.7391C146.777 57.1077 146.859 57.4655 147.038 57.7795C147.473 58.5402 148.305 58.8862 149.345 59.033C151.396 59.3159 153.823 58.8927 156.226 58.0387C156.226 58.0387 156.445 57.9723 156.405 57.7902C156.405 57.7902 156.413 57.5577 156.114 57.5952C156.114 57.5952 152.937 58.283 150.6 57.9348C150.6 57.9348 149.419 57.8223 149.137 56.9245C149.105 56.8216 149.103 56.6587 149.137 56.5505C149.419 55.6548 150.6 55.5423 150.6 55.5423C152.937 55.193 156.114 55.882 156.114 55.882C156.413 55.9173 156.405 55.6859 156.405 55.6859C156.445 55.5048 156.226 55.4384 156.226 55.4384C153.825 54.5845 151.397 54.1591 149.345 54.4452Z" fill="#E4D9BA"/>
</g>
<mask id="mask25_2114_45269" style="mask-type:luminance" maskUnits="userSpaceOnUse" x="-165" y="-8" width="412" height="233">
<path d="M246.606 -7.21436H-164.822V224.214H246.606V-7.21436Z" fill="white"/>
</mask>
<g mask="url(#mask25_2114_45269)">
<path d="M146.778 68.9323C146.761 70.0209 147.097 71.0859 147.703 71.9848C147.968 72.377 148.215 72.678 148.629 73.0991C148.998 73.4816 149.349 73.7591 149.742 74.0227C150.643 74.6302 151.705 74.9666 152.794 74.9505C154.53 74.9216 155.896 74.057 157.07 72.8345C159.158 70.6552 160.433 67.7998 161.093 64.8823C161.093 64.8823 161.163 64.638 160.935 64.5159C160.935 64.5159 160.765 64.4559 160.619 64.6573C160.619 64.6573 158.545 68.8338 156.053 71.1866C156.053 71.1866 154.734 72.5752 152.98 72.1895C152.98 72.1895 151.762 71.9623 150.786 70.9391C149.762 69.962 149.537 68.747 149.537 68.747C149.151 66.993 150.539 65.6741 150.539 65.6741C152.892 63.183 157.07 61.1088 157.07 61.1088C157.283 60.933 157.212 60.7927 157.212 60.7927C157.088 60.5623 156.841 60.6341 156.841 60.6341C153.924 61.2941 151.07 62.5691 148.892 64.6573C147.67 65.8305 146.804 67.1977 146.778 68.9323Z" fill="#E4D9BA"/>
</g>
<mask id="mask26_2114_45269" style="mask-type:luminance" maskUnits="userSpaceOnUse" x="-165" y="-8" width="412" height="233">
<path d="M246.606 -7.21436H-164.822V224.214H246.606V-7.21436Z" fill="white"/>
</mask>
<g mask="url(#mask26_2114_45269)">
<path d="M152.466 66.2437C151.833 67.0837 151.493 67.9141 151.722 68.7605C151.82 69.1098 152.01 69.4205 152.27 69.6841C152.532 69.9434 152.846 70.1384 153.194 70.2337C154.039 70.4641 154.871 70.1212 155.709 69.488C157.362 68.2409 158.779 66.2245 159.872 63.922C159.872 63.922 159.982 63.7173 159.823 63.6187C159.823 63.6187 159.667 63.4495 159.48 63.6852C159.48 63.6852 157.721 66.4205 155.82 67.8262C155.82 67.8262 154.907 68.5805 154.075 68.1455C153.977 68.0962 153.862 67.9784 153.81 67.8809C153.377 67.0462 154.13 66.1334 154.13 66.1334C155.537 64.2348 158.269 62.4734 158.269 62.4734C158.507 62.287 158.337 62.1305 158.337 62.1305C158.239 61.9752 158.035 62.0812 158.035 62.0812C155.733 63.1773 153.715 64.5937 152.466 66.2437Z" fill="#E4D9BA"/>
</g>
<mask id="mask27_2114_45269" style="mask-type:luminance" maskUnits="userSpaceOnUse" x="-165" y="-8" width="412" height="233">
<path d="M246.606 -7.21436H-164.822V224.214H246.606V-7.21436Z" fill="white"/>
</mask>
<g mask="url(#mask27_2114_45269)">
<path d="M160.896 78.3051C161.653 79.0862 162.644 79.6005 163.709 79.8105C164.173 79.8973 164.561 79.938 165.151 79.9433C165.684 79.9519 166.125 79.8973 166.593 79.8105C167.658 79.6005 168.647 79.0873 169.404 78.3051C170.613 77.058 170.968 75.4819 170.934 73.7858C170.871 70.7698 169.751 67.848 168.154 65.3216C168.154 65.3216 168.031 65.0966 167.783 65.1716C167.783 65.1716 167.622 65.2487 167.658 65.4919C167.658 65.4919 169.15 69.9126 169.049 73.3423C169.049 73.3423 169.101 75.2537 167.586 76.2212C167.586 76.2212 166.567 76.9241 165.152 76.8919C163.738 76.9241 162.718 76.2212 162.718 76.2212C161.203 75.2537 161.254 73.3423 161.254 73.3423C161.156 69.9126 162.643 65.4919 162.643 65.4919C162.669 65.2208 162.52 65.1716 162.52 65.1716C162.271 65.0966 162.148 65.3216 162.148 65.3216C160.551 67.848 159.433 70.7698 159.37 73.7858C159.332 75.4808 159.686 77.058 160.896 78.3051Z" fill="#E4D9BA"/>
</g>
<mask id="mask28_2114_45269" style="mask-type:luminance" maskUnits="userSpaceOnUse" x="-165" y="-8" width="412" height="233">
<path d="M246.606 -7.21436H-164.822V224.214H246.606V-7.21436Z" fill="white"/>
</mask>
<g mask="url(#mask28_2114_45269)">
<path d="M163.017 72.3811C163.164 73.4214 163.51 74.2529 164.269 74.6879C164.583 74.8668 164.942 74.9504 165.31 74.9525C165.68 74.9504 166.036 74.8668 166.352 74.6879C167.113 74.2529 167.459 73.4214 167.603 72.3811C167.89 70.3304 167.462 67.9025 166.611 65.5004C166.611 65.5004 166.545 65.2807 166.363 65.3214C166.363 65.3214 166.129 65.3129 166.167 65.6118C166.167 65.6118 166.855 68.7886 166.509 71.1297C166.509 71.1297 166.396 72.3072 165.498 72.5889C165.395 72.6211 165.228 72.6232 165.124 72.5889C164.227 72.3072 164.114 71.1297 164.114 71.1297C163.766 68.7886 164.454 65.6118 164.454 65.6118C164.491 65.3129 164.259 65.3214 164.259 65.3214C164.078 65.2807 164.011 65.5004 164.011 65.5004C163.156 67.9025 162.73 70.3304 163.017 72.3811Z" fill="#E4D9BA"/>
</g>
<mask id="mask29_2114_45269" style="mask-type:luminance" maskUnits="userSpaceOnUse" x="-165" y="-8" width="412" height="233">
<path d="M246.606 -7.21436H-164.822V224.214H246.606V-7.21436Z" fill="white"/>
</mask>
<g mask="url(#mask29_2114_45269)">
<path d="M177.506 74.9502C178.595 74.9673 179.658 74.6277 180.559 74.0223C180.951 73.7598 181.252 73.5102 181.671 73.0987C182.054 72.7269 182.331 72.3766 182.598 71.9844C183.203 71.0855 183.539 70.0205 183.522 68.9319C183.496 67.1973 182.63 65.8302 181.406 64.6559C179.229 62.5677 176.372 61.2927 173.455 60.6327C173.455 60.6327 173.21 60.5609 173.089 60.7912C173.089 60.7912 173.029 60.9605 173.229 61.1073C173.229 61.1073 177.41 63.1805 179.761 65.6727C179.761 65.6727 181.149 66.9916 180.763 68.7455C180.763 68.7455 180.536 69.9605 179.514 70.9377C178.537 71.9609 177.32 72.188 177.32 72.188C175.564 72.5737 174.245 71.1852 174.245 71.1852C171.752 68.8323 169.681 64.6559 169.681 64.6559C169.505 64.4427 169.364 64.5144 169.364 64.5144C169.134 64.6377 169.206 64.883 169.206 64.883C169.866 67.7994 171.141 70.6548 173.229 72.8341C174.402 74.0555 175.771 74.9212 177.506 74.9502Z" fill="#E4D9BA"/>
</g>
<mask id="mask30_2114_45269" style="mask-type:luminance" maskUnits="userSpaceOnUse" x="-165" y="-8" width="412" height="233">
<path d="M246.606 -7.21436H-164.822V224.214H246.606V-7.21436Z" fill="white"/>
</mask>
<g mask="url(#mask30_2114_45269)">
<path d="M174.817 69.2599C175.656 69.8931 176.488 70.2328 177.332 70.0035C177.683 69.9081 177.992 69.7153 178.257 69.456C178.516 69.1935 178.709 68.8795 178.804 68.5324C179.035 67.686 178.693 66.8535 178.061 66.0178C176.811 64.3624 174.797 62.947 172.491 61.8531C172.491 61.8531 172.288 61.7438 172.189 61.9024C172.189 61.9024 172.02 62.061 172.256 62.2453C172.256 62.2453 174.991 64.0045 176.395 65.9053C176.395 65.9053 177.152 66.8181 176.715 67.6506C176.667 67.7481 176.55 67.8638 176.45 67.9153C175.618 68.3481 174.703 67.596 174.703 67.596C172.805 66.1881 171.043 63.457 171.043 63.457C170.858 63.2181 170.7 63.3906 170.7 63.3906C170.543 63.4881 170.652 63.6906 170.652 63.6906C171.748 65.9931 173.163 68.0106 174.817 69.2599Z" fill="#E4D9BA"/>
</g>
<mask id="mask31_2114_45269" style="mask-type:luminance" maskUnits="userSpaceOnUse" x="-165" y="-8" width="412" height="233">
<path d="M246.606 -7.21436H-164.822V224.214H246.606V-7.21436Z" fill="white"/>
</mask>
<g mask="url(#mask31_2114_45269)">
<path d="M186.876 60.831C187.657 60.0735 188.172 59.0824 188.379 58.0174C188.469 57.5535 188.508 57.1645 188.514 56.5753C188.524 56.0428 188.47 55.5981 188.379 55.1331C188.172 54.0681 187.657 53.0792 186.876 52.3228C185.628 51.1131 184.051 50.7585 182.357 50.7928C179.34 50.856 176.422 51.9756 173.891 53.572C173.891 53.572 173.667 53.6953 173.742 53.9438C173.742 53.9438 173.817 54.1056 174.064 54.0681C174.064 54.0681 178.484 52.5767 181.912 52.6774C181.912 52.6774 183.823 52.626 184.792 54.141C184.792 54.141 185.494 55.1631 185.46 56.5742C185.494 57.9885 184.792 59.0106 184.792 59.0106C183.823 60.5224 181.912 60.4742 181.912 60.4742C178.484 60.5717 174.064 59.0835 174.064 59.0835C173.79 59.0578 173.742 59.2067 173.742 59.2067C173.667 59.4574 173.891 59.5806 173.891 59.5806C176.422 61.176 179.34 62.2935 182.357 62.3567C184.051 62.3963 185.628 62.0417 186.876 60.831Z" fill="#E4D9BA"/>
</g>
<mask id="mask32_2114_45269" style="mask-type:luminance" maskUnits="userSpaceOnUse" x="-165" y="-8" width="412" height="233">
<path d="M246.606 -7.21436H-164.822V224.214H246.606V-7.21436Z" fill="white"/>
</mask>
<g mask="url(#mask32_2114_45269)">
<path d="M180.954 58.7097C181.995 58.5651 182.826 58.2179 183.258 57.4594C183.439 57.1433 183.523 56.7854 183.524 56.4169C183.522 56.0462 183.438 55.6904 183.258 55.3744C182.826 54.6147 181.996 54.2676 180.954 54.124C178.904 53.8379 176.476 54.2622 174.072 55.1151C174.072 55.1151 173.853 55.1815 173.894 55.3658C173.894 55.3658 173.885 55.5962 174.182 55.5608C174.182 55.5608 177.361 54.8729 179.698 55.219C179.698 55.219 180.876 55.3315 181.158 56.2304C181.192 56.3312 181.192 56.4962 181.158 56.6022C180.876 57.5001 179.698 57.6126 179.698 57.6126C177.36 57.9587 174.182 57.2729 174.182 57.2729C173.885 57.2376 173.894 57.4658 173.894 57.4658C173.853 57.6501 174.072 57.7165 174.072 57.7165C176.476 58.5694 178.904 58.9958 180.954 58.7097Z" fill="#E4D9BA"/>
</g>
<mask id="mask33_2114_45269" style="mask-type:luminance" maskUnits="userSpaceOnUse" x="-165" y="-8" width="412" height="233">
<path d="M246.606 -7.21436H-164.822V224.214H246.606V-7.21436Z" fill="white"/>
</mask>
<g mask="url(#mask33_2114_45269)">
<path d="M183.523 44.2227C183.54 43.132 183.203 42.0691 182.598 41.1691C182.332 40.777 182.086 40.4759 181.671 40.057C181.303 39.6745 180.951 39.397 180.559 39.1302C179.658 38.5248 178.595 38.1906 177.507 38.2056C175.771 38.2323 174.403 39.0981 173.23 40.3216C171.142 42.4988 169.867 45.3563 169.207 48.2727C169.207 48.2727 169.138 48.5181 169.366 48.6391C169.366 48.6391 169.533 48.7002 169.682 48.4988C169.682 48.4988 171.755 44.3181 174.246 41.9673C174.246 41.9673 175.565 40.5798 177.321 40.9645C177.321 40.9645 178.537 41.1927 179.515 42.2138C180.54 43.1909 180.765 44.4081 180.765 44.4081C181.15 46.1641 179.762 47.4831 179.762 47.4831C177.411 49.9773 173.23 52.0484 173.23 52.0484C173.018 52.2241 173.09 52.3623 173.09 52.3623C173.211 52.5906 173.457 52.5209 173.457 52.5209C176.373 51.8609 179.23 50.5859 181.408 48.4977C182.63 47.3245 183.495 45.9563 183.523 44.2227Z" fill="#E4D9BA"/>
</g>
<mask id="mask34_2114_45269" style="mask-type:luminance" maskUnits="userSpaceOnUse" x="-165" y="-8" width="412" height="233">
<path d="M246.606 -7.21436H-164.822V224.214H246.606V-7.21436Z" fill="white"/>
</mask>
<g mask="url(#mask34_2114_45269)">
<path d="M177.834 46.9099C178.465 46.071 178.808 45.2395 178.578 44.3952C178.483 44.0438 178.29 43.7352 178.028 43.4727C177.766 43.2135 177.453 43.0174 177.106 42.9231C176.261 42.6927 175.429 43.0345 174.591 43.6688C172.938 44.916 171.521 46.9313 170.428 49.236C170.428 49.236 170.318 49.4374 170.476 49.5381C170.476 49.5381 170.634 49.7074 170.819 49.4717C170.819 49.4717 172.58 46.7363 174.479 45.3306C174.479 45.3306 175.391 44.5785 176.226 45.0102C176.32 45.0595 176.439 45.1774 176.491 45.2781C176.924 46.1095 176.17 47.0235 176.17 47.0235C174.765 48.921 172.031 50.6835 172.031 50.6835C171.796 50.8677 171.965 51.0263 171.965 51.0263C172.064 51.1827 172.267 51.0756 172.267 51.0756C174.566 49.9774 176.585 48.561 177.834 46.9099Z" fill="#E4D9BA"/>
</g>
<mask id="mask35_2114_45269" style="mask-type:luminance" maskUnits="userSpaceOnUse" x="-165" y="-8" width="412" height="233">
<path d="M246.606 -7.21436H-164.822V224.214H246.606V-7.21436Z" fill="white"/>
</mask>
<g mask="url(#mask35_2114_45269)">
<path d="M171.187 52.2061C168.172 48.1025 162.127 48.1025 159.112 52.2061C157.234 54.7625 157.234 58.3882 159.11 60.9457C162.126 65.0557 168.173 65.0557 171.188 60.9457C173.066 58.3872 173.066 54.7615 171.187 52.2061ZM162.34 60.7861C159.342 58.7418 159.342 54.4122 162.34 52.3679C164.005 51.2311 166.295 51.2311 167.961 52.3679C170.957 54.4122 170.957 58.7418 167.961 60.7861C166.296 61.9207 164.006 61.9207 162.34 60.7861Z" fill="#E4D9BA"/>
</g>
<mask id="mask36_2114_45269" style="mask-type:luminance" maskUnits="userSpaceOnUse" x="-165" y="-8" width="412" height="233">
<path d="M246.606 -7.21436H-164.822V224.214H246.606V-7.21436Z" fill="white"/>
</mask>
<g mask="url(#mask36_2114_45269)">
<path d="M167.497 58.9251C166.201 60.2237 164.097 60.2237 162.802 58.9251C161.506 57.6298 161.506 55.5266 162.802 54.2301C164.098 52.9337 166.201 52.9337 167.497 54.2301C168.794 55.5255 168.794 57.6298 167.497 58.9251Z" fill="#E4D9BA"/>
</g>
</g>
</g>
<defs>
<clipPath id="clip0_2114_45269">
<rect width="42" height="44" fill="white" transform="translate(95 -11)"/>
</clipPath>
<clipPath id="clip1_2114_45269">
<rect width="61" height="61" fill="white" transform="translate(47 -57)"/>
</clipPath>
<clipPath id="clip2_2114_45269">
<rect width="58" height="58" fill="white" transform="translate(143 -30)"/>
</clipPath>
<clipPath id="clip3_2114_45269">
<rect width="51" height="51" fill="white" transform="translate(140 32)"/>
</clipPath>
</defs>
</svg>
