<svg width="1597" height="244" viewBox="0 0 1597 244" fill="none" xmlns="http://www.w3.org/2000/svg">
<g clip-path="url(#clip0_1149_259095)">
<mask id="mask0_1149_259095" style="mask-type:luminance" maskUnits="userSpaceOnUse" x="-43" y="-36" width="1683" height="290">
<path opacity="0.12" d="M1639.27 -35.5V192.054H1618.79V212.536H1598.31V253.5H1220.62H376.385H-1.30935V212.599L-21.7913 212.536V192.054H-42.2733V-35.5H1639.27Z" fill="white"/>
</mask>
<g mask="url(#mask0_1149_259095)">
<path d="M-69.8472 246.065C-58.7287 229.283 -39.6852 218.21 -18.0543 218.21C3.57658 218.21 22.6291 229.274 33.7476 246.065L36.0093 244.563C24.4113 227.049 4.52649 215.496 -18.0543 215.496C-40.6351 215.496 -60.52 227.049 -72.118 244.563L-69.8563 246.065H-69.8472Z" fill="#A36F00"/>
<path d="M57.7388 241.867C44.0238 213.858 15.2369 194.57 -18.0553 194.57C-51.3476 194.57 -80.1254 213.858 -93.8494 241.867L-91.4158 243.061C-78.1351 215.948 -50.28 197.284 -18.0644 197.284C14.1603 197.284 42.0064 215.957 55.2871 243.061L57.7207 241.867H57.7388Z" fill="#A36F00"/>
<path d="M15.3561 253.123C7.38585 243.56 -4.62829 237.463 -18.0537 237.463C-31.4792 237.463 -43.4933 243.56 -51.4636 253.123L-49.3828 254.86C-41.9011 245.885 -30.6559 240.177 -18.0628 240.177C-5.46964 240.177 5.77552 245.885 13.2572 254.86L15.338 253.123H15.3561Z" fill="#A36F00"/>
<path d="M79.2612 246.065C90.3797 229.283 109.423 218.21 131.054 218.21C152.685 218.21 171.738 229.274 182.856 246.065L185.118 244.563C173.52 227.049 153.635 215.496 131.054 215.496C108.473 215.496 88.5884 227.049 76.9904 244.563L79.2521 246.065H79.2612Z" fill="#A36F00"/>
<path d="M206.847 241.867C193.132 213.858 164.345 194.57 131.053 194.57C97.7609 194.57 68.983 213.858 55.259 241.867L57.6926 243.061C70.9733 215.948 98.8284 197.284 131.044 197.284C163.269 197.284 191.115 215.957 204.405 243.061L206.838 241.867H206.847Z" fill="#A36F00"/>
<path d="M164.464 253.123C156.494 243.56 144.48 237.463 131.054 237.463C117.629 237.463 105.615 243.56 97.6446 253.123L99.7253 254.86C107.207 245.885 118.452 240.177 131.045 240.177C143.639 240.177 154.884 245.885 162.365 254.86L164.446 253.123H164.464Z" fill="#A36F00"/>
<path d="M228.37 246.065C239.488 229.283 258.532 218.21 280.162 218.21C301.793 218.21 320.846 229.274 331.964 246.065L334.226 244.563C322.628 227.049 302.743 215.496 280.162 215.496C257.582 215.496 237.697 227.049 226.099 244.563L228.361 246.065H228.37Z" fill="#A36F00"/>
<path d="M355.957 241.867C342.242 213.858 313.455 194.57 280.163 194.57C246.87 194.57 218.093 213.858 204.369 241.867L206.802 243.061C220.083 215.948 247.938 197.284 280.154 197.284C312.378 197.284 340.224 215.957 353.505 243.061L355.939 241.867H355.957Z" fill="#A36F00"/>
<path d="M313.573 253.123C305.603 243.56 293.589 237.463 280.163 237.463C266.738 237.463 254.724 243.56 246.753 253.123L248.834 254.86C256.316 245.885 267.561 240.177 280.154 240.177C292.747 240.177 303.992 245.885 311.474 254.86L313.555 253.123H313.573Z" fill="#A36F00"/>
<path d="M377.515 246.065C388.634 229.283 407.677 218.21 429.308 218.21C450.939 218.21 469.991 229.274 481.11 246.065L483.372 244.563C471.774 227.049 451.889 215.496 429.308 215.496C406.727 215.496 386.842 227.049 375.244 244.563L377.506 246.065H377.515Z" fill="#A36F00"/>
<path d="M505.102 241.867C491.387 213.858 462.6 194.57 429.308 194.57C396.016 194.57 367.238 213.858 353.514 241.867L355.947 243.061C369.228 215.948 397.083 197.284 429.299 197.284C461.524 197.284 489.37 215.957 502.659 243.061L505.093 241.867H505.102Z" fill="#A36F00"/>
<path d="M462.718 253.121C454.748 243.558 442.734 237.461 429.308 237.461C415.883 237.461 403.869 243.558 395.899 253.121L397.979 254.858C405.461 245.884 416.706 240.175 429.299 240.175C441.893 240.175 453.138 245.884 460.619 254.858L462.7 253.121H462.718Z" fill="#A36F00"/>
<path d="M526.661 246.065C537.779 229.283 556.823 218.21 578.454 218.21C600.084 218.21 619.137 229.274 630.255 246.065L632.517 244.563C620.919 227.049 601.034 215.496 578.454 215.496C555.873 215.496 535.988 227.049 524.39 244.563L526.652 246.065H526.661Z" fill="#A36F00"/>
<path d="M654.248 241.867C640.533 213.858 611.746 194.57 578.453 194.57C545.161 194.57 516.383 213.858 502.659 241.867L505.093 243.061C518.374 215.948 546.229 197.284 578.444 197.284C610.669 197.284 638.515 215.957 651.796 243.061L654.229 241.867H654.248Z" fill="#A36F00"/>
<path d="M611.864 253.121C603.894 243.558 591.879 237.461 578.454 237.461C565.028 237.461 553.014 243.558 545.044 253.121L547.125 254.858C554.607 245.884 565.852 240.175 578.445 240.175C591.038 240.175 602.283 245.884 609.765 254.858L611.846 253.121H611.864Z" fill="#A36F00"/>
<path d="M675.817 246.065C686.935 229.283 705.979 218.21 727.61 218.21C749.241 218.21 768.293 229.274 779.412 246.065L781.673 244.563C770.075 227.049 750.191 215.496 727.61 215.496C705.029 215.496 685.144 227.049 673.546 244.563L675.808 246.065H675.817Z" fill="#A36F00"/>
<path d="M803.399 241.867C789.675 213.858 760.897 194.57 727.605 194.57C694.313 194.57 665.535 213.858 651.811 241.867L654.244 243.061C667.525 215.948 695.38 197.284 727.596 197.284C759.82 197.284 787.667 215.957 800.956 243.061L803.39 241.867H803.399Z" fill="#A36F00"/>
<path d="M761.01 253.123C753.04 243.56 741.026 237.463 727.6 237.463C714.175 237.463 702.161 243.56 694.19 253.123L696.271 254.86C703.753 245.885 714.998 240.177 727.591 240.177C740.184 240.177 751.429 245.885 758.911 254.86L760.992 253.123H761.01Z" fill="#A36F00"/>
<path d="M824.962 246.065C836.081 229.283 855.124 218.21 876.755 218.21C898.386 218.21 917.439 229.274 928.557 246.065L930.819 244.563C919.221 227.049 899.336 215.496 876.755 215.496C854.174 215.496 834.29 227.049 822.692 244.563L824.953 246.065H824.962Z" fill="#A36F00"/>
<path d="M952.55 241.867C938.835 213.858 910.048 194.57 876.756 194.57C843.464 194.57 814.686 213.858 800.962 241.867L803.396 243.061C816.676 215.948 844.531 197.284 876.747 197.284C908.972 197.284 936.818 215.957 950.099 243.061L952.532 241.867H952.55Z" fill="#A36F00"/>
<path d="M910.161 253.121C902.19 243.558 890.176 237.461 876.751 237.461C863.325 237.461 851.311 243.558 843.341 253.121L845.422 254.858C852.903 245.884 864.149 240.175 876.742 240.175C889.335 240.175 900.58 245.884 908.062 254.858L910.143 253.121H910.161Z" fill="#A36F00"/>
<path d="M4.68792 200.143C15.8064 183.362 34.8499 172.288 56.4808 172.288C78.1117 172.288 97.1643 183.353 108.283 200.143L110.544 198.642C98.9465 181.127 79.0616 169.574 56.4808 169.574C33.9 169.574 14.0152 181.127 2.41718 198.642L4.67887 200.143H4.68792Z" fill="#A36F00"/>
<path d="M132.275 195.945C118.56 167.936 89.773 148.648 56.4808 148.648C23.1886 148.648 -5.5893 167.936 -19.3133 195.945L-16.8797 197.139C-3.599 170.026 24.2561 151.362 56.4718 151.362C88.6965 151.362 116.542 170.035 129.823 197.139L132.257 195.945H132.275Z" fill="#A36F00"/>
<path d="M89.8912 207.201C81.921 197.639 69.9069 191.541 56.4814 191.541C43.056 191.541 31.0418 197.629 23.0716 207.201L25.1523 208.938C32.634 199.964 43.8792 194.255 56.4724 194.255C69.0655 194.255 80.3107 199.964 87.7924 208.938L89.8731 207.201H89.8912Z" fill="#A36F00"/>
<path d="M42.6292 222.967C46.257 219.557 51.1151 217.467 56.4798 217.467C61.8446 217.467 66.7027 219.557 70.3305 222.967L72.1941 220.995C68.0959 217.132 62.5683 214.762 56.4889 214.762C50.4094 214.762 44.8728 217.141 40.7746 221.004L42.6382 222.976L42.6292 222.967Z" fill="#A36F00"/>
<path d="M153.833 200.143C164.952 183.362 183.995 172.288 205.626 172.288C227.257 172.288 246.31 183.353 257.428 200.143L259.69 198.642C248.092 181.127 228.207 169.574 205.626 169.574C183.046 169.574 163.161 181.127 151.563 198.642L153.824 200.143H153.833Z" fill="#A36F00"/>
<path d="M281.42 195.945C267.705 167.936 238.919 148.648 205.626 148.648C172.334 148.648 143.556 167.936 129.832 195.945L132.266 197.139C145.547 170.026 173.402 151.362 205.617 151.362C237.842 151.362 265.688 170.035 278.969 197.139L281.402 195.945H281.42Z" fill="#A36F00"/>
<path d="M239.038 207.199C231.067 197.637 219.053 191.539 205.628 191.539C192.202 191.539 180.188 197.628 172.218 207.199L174.299 208.936C181.78 199.962 193.026 194.253 205.619 194.253C218.212 194.253 229.457 199.962 236.939 208.936L239.02 207.199H239.038Z" fill="#A36F00"/>
<path d="M191.775 222.967C195.402 219.557 200.261 217.467 205.625 217.467C210.99 217.467 215.848 219.557 219.476 222.967L221.34 220.995C217.241 217.132 211.714 214.762 205.634 214.762C199.555 214.762 194.018 217.141 189.92 221.004L191.784 222.976L191.775 222.967Z" fill="#A36F00"/>
<path d="M-69.8472 153.651C-58.7287 136.869 -39.6852 125.796 -18.0543 125.796C3.57658 125.796 22.6291 136.86 33.7476 153.651L36.0093 152.149C24.4113 134.635 4.52649 123.082 -18.0543 123.082C-40.6351 123.082 -60.52 134.635 -72.118 152.149L-69.8563 153.651H-69.8472Z" fill="#A36F00"/>
<path d="M57.7388 149.453C44.0238 121.444 15.2369 102.156 -18.0553 102.156C-51.3476 102.156 -80.1254 121.444 -93.8494 149.453L-91.4158 150.647C-78.1351 123.534 -50.28 104.87 -18.0644 104.87C14.1603 104.87 42.0064 123.543 55.2871 150.647L57.7207 149.453H57.7388Z" fill="#A36F00"/>
<path d="M15.3561 160.707C7.38585 151.144 -4.62829 145.047 -18.0537 145.047C-31.4792 145.047 -43.4933 151.135 -51.4636 160.707L-49.3828 162.444C-41.9011 153.469 -30.6559 147.761 -18.0628 147.761C-5.46964 147.761 5.77552 153.469 13.2572 162.444L15.338 160.707H15.3561Z" fill="#A36F00"/>
<path d="M79.2612 153.651C90.3797 136.869 109.423 125.796 131.054 125.796C152.685 125.796 171.738 136.86 182.856 153.651L185.118 152.149C173.52 134.635 153.635 123.082 131.054 123.082C108.473 123.082 88.5884 134.635 76.9904 152.149L79.2521 153.651H79.2612Z" fill="#A36F00"/>
<path d="M206.847 149.453C193.132 121.444 164.345 102.156 131.053 102.156C97.7609 102.156 68.983 121.444 55.259 149.453L57.6926 150.647C70.9733 123.534 98.8284 104.87 131.044 104.87C163.269 104.87 191.115 123.543 204.405 150.647L206.838 149.453H206.847Z" fill="#A36F00"/>
<path d="M164.464 160.707C156.494 151.144 144.48 145.047 131.054 145.047C117.629 145.047 105.615 151.135 97.6446 160.707L99.7253 162.444C107.207 153.469 118.452 147.761 131.045 147.761C143.639 147.761 154.884 153.469 162.365 162.444L164.446 160.707H164.464Z" fill="#A36F00"/>
<path d="M117.201 176.487C120.829 173.076 125.687 170.986 131.052 170.986C136.417 170.986 141.275 173.076 144.903 176.487L146.766 174.514C142.668 170.652 137.141 168.281 131.061 168.281C124.982 168.281 119.445 170.661 115.347 174.524L117.211 176.496L117.201 176.487Z" fill="#A36F00"/>
<path d="M228.37 153.651C239.488 136.869 258.532 125.796 280.162 125.796C301.793 125.796 320.846 136.86 331.964 153.651L334.226 152.149C322.628 134.635 302.743 123.082 280.162 123.082C257.582 123.082 237.697 134.635 226.099 152.149L228.361 153.651H228.37Z" fill="#A36F00"/>
<path d="M355.957 149.453C342.242 121.444 313.455 102.156 280.162 102.156C246.87 102.156 218.092 121.444 204.368 149.453L206.802 150.647C220.083 123.534 247.938 104.87 280.153 104.87C312.378 104.87 340.224 123.543 353.505 150.647L355.938 149.453H355.957Z" fill="#A36F00"/>
<path d="M313.573 160.707C305.603 151.144 293.589 145.047 280.163 145.047C266.738 145.047 254.724 151.135 246.753 160.707L248.834 162.444C256.316 153.469 267.561 147.761 280.154 147.761C292.747 147.761 303.992 153.469 311.474 162.444L313.555 160.707H313.573Z" fill="#A36F00"/>
<path d="M266.311 176.487C269.939 173.076 274.797 170.986 280.161 170.986C285.526 170.986 290.384 173.076 294.012 176.487L295.876 174.514C291.778 170.652 286.25 168.281 280.171 168.281C274.091 168.281 268.554 170.661 264.456 174.524L266.32 176.496L266.311 176.487Z" fill="#A36F00"/>
<path d="M302.979 200.143C314.097 183.362 333.141 172.288 354.772 172.288C376.403 172.288 395.455 183.353 406.574 200.143L408.836 198.642C397.238 181.127 377.353 169.574 354.772 169.574C332.191 169.574 312.306 181.127 300.708 198.642L302.97 200.143H302.979Z" fill="#A36F00"/>
<path d="M430.566 195.945C416.851 167.936 388.064 148.648 354.772 148.648C321.48 148.648 292.702 167.936 278.978 195.945L281.411 197.139C294.692 170.026 322.547 151.362 354.763 151.362C386.987 151.362 414.834 170.035 428.123 197.139L430.557 195.945H430.566Z" fill="#A36F00"/>
<path d="M388.183 207.201C380.213 197.639 368.199 191.541 354.773 191.541C341.348 191.541 329.334 197.629 321.363 207.201L323.444 208.938C330.926 199.964 342.171 194.255 354.764 194.255C367.357 194.255 378.602 199.964 386.084 208.938L388.165 207.201H388.183Z" fill="#A36F00"/>
<path d="M340.92 222.969C344.548 219.558 349.406 217.469 354.771 217.469C360.135 217.469 364.993 219.558 368.621 222.969L370.485 220.997C366.387 217.134 360.859 214.764 354.78 214.764C348.7 214.764 343.164 217.143 339.065 221.006L340.929 222.978L340.92 222.969Z" fill="#A36F00"/>
<path d="M377.515 153.651C388.634 136.869 407.677 125.796 429.308 125.796C450.939 125.796 469.991 136.86 481.11 153.651L483.372 152.149C471.774 134.635 451.889 123.082 429.308 123.082C406.727 123.082 386.842 134.635 375.244 152.149L377.506 153.651H377.515Z" fill="#A36F00"/>
<path d="M505.102 149.453C491.387 121.444 462.6 102.156 429.308 102.156C396.016 102.156 367.238 121.444 353.514 149.453L355.947 150.647C369.228 123.534 397.083 104.87 429.299 104.87C461.524 104.87 489.37 123.543 502.659 150.647L505.093 149.453H505.102Z" fill="#A36F00"/>
<path d="M462.718 160.707C454.748 151.144 442.734 145.047 429.308 145.047C415.883 145.047 403.869 151.135 395.899 160.707L397.979 162.444C405.461 153.469 416.706 147.761 429.299 147.761C441.893 147.761 453.138 153.469 460.619 162.444L462.7 160.707H462.718Z" fill="#A36F00"/>
<path d="M415.455 176.487C419.083 173.076 423.941 170.986 429.306 170.986C434.671 170.986 439.529 173.076 443.157 176.487L445.02 174.514C440.922 170.652 435.394 168.281 429.315 168.281C423.236 168.281 417.699 170.661 413.601 174.524L415.464 176.496L415.455 176.487Z" fill="#A36F00"/>
<path d="M452.125 200.143C463.244 183.362 482.287 172.288 503.918 172.288C525.549 172.288 544.602 183.353 555.72 200.143L557.982 198.642C546.384 181.127 526.499 169.574 503.918 169.574C481.337 169.574 461.453 181.127 449.855 198.642L452.116 200.143H452.125Z" fill="#A36F00"/>
<path d="M579.722 195.945C566.007 167.936 537.22 148.648 503.928 148.648C470.636 148.648 441.858 167.936 428.134 195.945L430.568 197.139C443.848 170.026 471.703 151.362 503.919 151.362C536.144 151.362 563.99 170.035 577.27 197.139L579.704 195.945H579.722Z" fill="#A36F00"/>
<path d="M537.324 207.199C529.354 197.637 517.339 191.539 503.914 191.539C490.488 191.539 478.474 197.628 470.504 207.199L472.585 208.936C480.067 199.962 491.312 194.253 503.905 194.253C516.498 194.253 527.743 199.962 535.225 208.936L537.306 207.199H537.324Z" fill="#A36F00"/>
<path d="M490.076 222.967C493.704 219.557 498.562 217.467 503.927 217.467C509.292 217.467 514.15 219.557 517.778 222.967L519.641 220.995C515.543 217.132 510.016 214.762 503.936 214.762C497.857 214.762 492.32 217.141 488.222 221.004L490.086 222.976L490.076 222.967Z" fill="#A36F00"/>
<path d="M526.661 153.651C537.779 136.869 556.823 125.796 578.454 125.796C600.084 125.796 619.137 136.86 630.255 153.651L632.517 152.149C620.919 134.635 601.034 123.082 578.454 123.082C555.873 123.082 535.988 134.635 524.39 152.149L526.652 153.651H526.661Z" fill="#A36F00"/>
<path d="M654.248 149.453C640.533 121.444 611.746 102.156 578.453 102.156C545.161 102.156 516.383 121.444 502.659 149.453L505.093 150.647C518.374 123.534 546.229 104.87 578.444 104.87C610.669 104.87 638.515 123.543 651.796 150.647L654.229 149.453H654.248Z" fill="#A36F00"/>
<path d="M611.864 160.707C603.894 151.144 591.879 145.047 578.454 145.047C565.028 145.047 553.014 151.135 545.044 160.707L547.125 162.444C554.607 153.469 565.852 147.761 578.445 147.761C591.038 147.761 602.283 153.469 609.765 162.444L611.846 160.707H611.864Z" fill="#A36F00"/>
<path d="M564.602 176.487C568.23 173.076 573.088 170.986 578.452 170.986C583.817 170.986 588.675 173.076 592.303 176.487L594.167 174.514C590.069 170.652 584.541 168.281 578.462 168.281C572.382 168.281 566.845 170.661 562.747 174.524L564.611 176.496L564.602 176.487Z" fill="#A36F00"/>
<path d="M601.276 200.143C612.394 183.362 631.438 172.288 653.069 172.288C674.7 172.288 693.752 183.353 704.871 200.143L707.132 198.642C695.534 181.127 675.65 169.574 653.069 169.574C630.488 169.574 610.603 181.127 599.005 198.642L601.267 200.143H601.276Z" fill="#A36F00"/>
<path d="M728.863 195.945C715.148 167.936 686.361 148.648 653.069 148.648C619.776 148.648 590.999 167.936 577.275 195.945L579.708 197.139C592.989 170.026 620.844 151.362 653.06 151.362C685.284 151.362 713.13 170.035 726.411 197.139L728.845 195.945H728.863Z" fill="#A36F00"/>
<path d="M686.479 207.199C678.509 197.637 666.495 191.539 653.069 191.539C639.644 191.539 627.63 197.628 619.659 207.199L621.74 208.936C629.222 199.962 640.467 194.253 653.06 194.253C665.653 194.253 676.898 199.962 684.38 208.936L686.461 207.199H686.479Z" fill="#A36F00"/>
<path d="M639.222 222.969C642.85 219.558 647.708 217.469 653.073 217.469C658.437 217.469 663.296 219.558 666.923 222.969L668.787 220.997C664.689 217.134 659.161 214.764 653.082 214.764C647.002 214.764 641.466 217.143 637.367 221.006L639.231 222.978L639.222 222.969Z" fill="#A36F00"/>
<path d="M675.817 153.651C686.935 136.869 705.979 125.796 727.61 125.796C749.241 125.796 768.293 136.86 779.412 153.651L781.673 152.149C770.075 134.635 750.191 123.082 727.61 123.082C705.029 123.082 685.144 134.635 673.546 152.149L675.808 153.651H675.817Z" fill="#A36F00"/>
<path d="M803.399 149.453C789.675 121.444 760.897 102.156 727.605 102.156C694.313 102.156 665.535 121.444 651.811 149.453L654.244 150.647C667.525 123.534 695.38 104.87 727.596 104.87C759.82 104.87 787.667 123.543 800.956 150.647L803.39 149.453H803.399Z" fill="#A36F00"/>
<path d="M761.01 160.707C753.04 151.144 741.026 145.047 727.6 145.047C714.175 145.047 702.161 151.135 694.19 160.707L696.271 162.444C703.753 153.469 714.998 147.761 727.591 147.761C740.184 147.761 751.429 153.469 758.911 162.444L760.992 160.707H761.01Z" fill="#A36F00"/>
<path d="M713.758 176.487C717.386 173.076 722.244 170.986 727.609 170.986C732.973 170.986 737.832 173.076 741.459 176.487L743.323 174.514C739.225 170.652 733.697 168.281 727.618 168.281C721.538 168.281 716.002 170.661 711.904 174.524L713.767 176.496L713.758 176.487Z" fill="#A36F00"/>
<path d="M750.421 200.143C761.54 183.362 780.583 172.288 802.214 172.288C823.845 172.288 842.898 183.353 854.016 200.143L856.278 198.642C844.68 181.127 824.795 169.574 802.214 169.574C779.633 169.574 759.749 181.127 748.151 198.642L750.412 200.143H750.421Z" fill="#A36F00"/>
<path d="M878.009 195.945C864.294 167.936 835.507 148.648 802.215 148.648C768.923 148.648 740.145 167.936 726.421 195.945L728.855 197.139C742.135 170.026 769.99 151.362 802.206 151.362C834.431 151.362 862.277 170.035 875.558 197.139L877.991 195.945H878.009Z" fill="#A36F00"/>
<path d="M835.625 207.199C827.655 197.637 815.641 191.539 802.216 191.539C788.79 191.539 776.776 197.628 768.806 207.199L770.887 208.936C778.368 199.962 789.613 194.253 802.207 194.253C814.8 194.253 826.045 199.962 833.527 208.936L835.607 207.199H835.625Z" fill="#A36F00"/>
<path d="M788.368 222.967C791.996 219.557 796.854 217.467 802.219 217.467C807.584 217.467 812.442 219.557 816.07 222.967L817.933 220.995C813.835 217.132 808.308 214.762 802.228 214.762C796.149 214.762 790.612 217.141 786.514 221.004L788.378 222.976L788.368 222.967Z" fill="#A36F00"/>
<path d="M824.962 153.651C836.081 136.869 855.124 125.796 876.755 125.796C898.386 125.796 917.439 136.86 928.557 153.651L930.819 152.149C919.221 134.635 899.336 123.082 876.755 123.082C854.174 123.082 834.29 134.635 822.692 152.149L824.953 153.651H824.962Z" fill="#A36F00"/>
<path d="M952.55 149.453C938.835 121.444 910.048 102.156 876.756 102.156C843.464 102.156 814.686 121.444 800.962 149.453L803.396 150.647C816.676 123.534 844.531 104.87 876.747 104.87C908.972 104.87 936.818 123.543 950.099 150.647L952.532 149.453H952.55Z" fill="#A36F00"/>
<path d="M910.161 160.707C902.19 151.144 890.176 145.047 876.751 145.047C863.325 145.047 851.311 151.135 843.341 160.707L845.422 162.444C852.903 153.469 864.149 147.761 876.742 147.761C889.335 147.761 900.58 153.469 908.062 162.444L910.143 160.707H910.161Z" fill="#A36F00"/>
<path d="M862.899 176.487C866.527 173.076 871.385 170.986 876.749 170.986C882.114 170.986 886.972 173.076 890.6 176.487L892.464 174.514C888.365 170.652 882.838 168.281 876.758 168.281C870.679 168.281 865.142 170.661 861.044 174.524L862.908 176.496L862.899 176.487Z" fill="#A36F00"/>
<path d="M4.68792 107.081C15.8064 90.2991 34.8499 79.2258 56.4808 79.2258C78.1117 79.2258 97.1643 90.29 108.283 107.081L110.544 105.579C98.9465 88.0645 79.0616 76.5117 56.4808 76.5117C33.9 76.5117 14.0152 88.0645 2.41718 105.579L4.67887 107.081H4.68792Z" fill="#A36F00"/>
<path d="M132.275 102.883C118.56 74.8737 89.773 55.5859 56.4808 55.5859C23.1886 55.5859 -5.5893 74.8737 -19.3133 102.883L-16.8797 104.077C-3.599 76.9726 24.2561 58.3 56.4718 58.3C88.6965 58.3 116.542 76.9726 129.823 104.077L132.257 102.883H132.275Z" fill="#A36F00"/>
<path d="M89.8911 114.137C81.9209 104.574 69.9067 98.4766 56.4813 98.4766C43.0558 98.4766 31.0417 104.565 23.0715 114.137L25.1522 115.874C32.6339 106.899 43.8791 101.191 56.4722 101.191C69.0654 101.191 80.3106 106.899 87.7923 115.874L89.873 114.137H89.8911Z" fill="#A36F00"/>
<path d="M42.6292 129.912C46.257 126.502 51.1151 124.412 56.4798 124.412C61.8446 124.412 66.7027 126.502 70.3305 129.912L72.1941 127.94C68.0959 124.077 62.5683 121.707 56.4889 121.707C50.4094 121.707 44.8728 124.086 40.7746 127.949L42.6382 129.922L42.6292 129.912Z" fill="#A36F00"/>
<path d="M153.833 107.081C164.952 90.2991 183.995 79.2258 205.626 79.2258C227.257 79.2258 246.31 90.29 257.428 107.081L259.69 105.579C248.092 88.0645 228.207 76.5117 205.626 76.5117C183.046 76.5117 163.161 88.0645 151.563 105.579L153.824 107.081H153.833Z" fill="#A36F00"/>
<path d="M281.42 102.883C267.705 74.8737 238.919 55.5859 205.626 55.5859C172.334 55.5859 143.556 74.8737 129.832 102.883L132.266 104.077C145.547 76.9726 173.402 58.3 205.617 58.3C237.842 58.3 265.688 76.9726 278.969 104.077L281.402 102.883H281.42Z" fill="#A36F00"/>
<path d="M239.038 114.137C231.067 104.574 219.053 98.4766 205.628 98.4766C192.202 98.4766 180.188 104.565 172.218 114.137L174.299 115.874C181.78 106.899 193.026 101.191 205.619 101.191C218.212 101.191 229.457 106.899 236.939 115.874L239.02 114.137H239.038Z" fill="#A36F00"/>
<path d="M191.775 129.912C195.402 126.502 200.261 124.412 205.625 124.412C210.99 124.412 215.848 126.502 219.476 129.912L221.34 127.94C217.241 124.077 211.714 121.707 205.634 121.707C199.555 121.707 194.018 124.086 189.92 127.949L191.784 129.922L191.775 129.912Z" fill="#A36F00"/>
<path d="M-69.8472 60.5965C-58.7287 43.8147 -39.6852 32.7414 -18.0543 32.7414C3.57658 32.7414 22.6291 43.8056 33.7476 60.5965L36.0093 59.0947C24.4113 41.5801 4.52649 30.0273 -18.0543 30.0273C-40.6351 30.0273 -60.52 41.5801 -72.118 59.0947L-69.8563 60.5965H-69.8472Z" fill="#A36F00"/>
<path d="M57.7388 56.3982C44.0238 28.3893 15.2369 9.10156 -18.0553 9.10156C-51.3476 9.10156 -80.1254 28.3893 -93.8494 56.3982L-91.4158 57.5924C-78.1351 30.4791 -50.28 11.8156 -18.0644 11.8156C14.1603 11.8156 42.0064 30.4882 55.2871 57.5924L57.7207 56.3982H57.7388Z" fill="#A36F00"/>
<path d="M15.3561 67.6522C7.38585 58.0897 -4.62829 51.9922 -18.0537 51.9922C-31.4792 51.9922 -43.4933 58.0807 -51.4636 67.6522L-49.3828 69.3892C-41.9011 60.4148 -30.6559 54.7062 -18.0628 54.7062C-5.46964 54.7062 5.77552 60.4148 13.2572 69.3892L15.338 67.6522H15.3561Z" fill="#A36F00"/>
<path d="M79.2612 60.5965C90.3797 43.8147 109.423 32.7414 131.054 32.7414C152.685 32.7414 171.738 43.8056 182.856 60.5965L185.118 59.0947C173.52 41.5801 153.635 30.0273 131.054 30.0273C108.473 30.0273 88.5884 41.5801 76.9904 59.0947L79.2521 60.5965H79.2612Z" fill="#A36F00"/>
<path d="M206.847 56.3982C193.132 28.3893 164.345 9.10156 131.053 9.10156C97.761 9.10156 68.9832 28.3893 55.2592 56.3982L57.6927 57.5924C70.9734 30.4791 98.8285 11.8156 131.044 11.8156C163.269 11.8156 191.115 30.4882 204.405 57.5924L206.838 56.3982H206.847Z" fill="#A36F00"/>
<path d="M164.464 67.6522C156.494 58.0897 144.48 51.9922 131.054 51.9922C117.629 51.9922 105.615 58.0807 97.6446 67.6522L99.7253 69.3892C107.207 60.4148 118.452 54.7062 131.045 54.7062C143.639 54.7062 154.884 60.4148 162.365 69.3892L164.446 67.6522H164.464Z" fill="#A36F00"/>
<path d="M117.201 83.4222C120.829 80.0116 125.687 77.9218 131.052 77.9218C136.417 77.9218 141.275 80.0116 144.903 83.4222L146.766 81.45C142.668 77.5871 137.141 75.2168 131.061 75.2168C124.982 75.2168 119.445 77.5961 115.347 81.4591L117.211 83.4313L117.201 83.4222Z" fill="#A36F00"/>
<path d="M228.371 60.5965C239.49 43.8147 258.533 32.7414 280.164 32.7414C301.795 32.7414 320.848 43.8056 331.966 60.5965L334.228 59.0947C322.63 41.5801 302.745 30.0273 280.164 30.0273C257.583 30.0273 237.699 41.5801 226.11 59.0947L228.371 60.5965Z" fill="#A36F00"/>
<path d="M355.957 56.3982C342.242 28.3893 313.455 9.10156 280.163 9.10156C246.87 9.10156 218.093 28.3893 204.369 56.3982L206.802 57.5924C220.083 30.4791 247.938 11.8156 280.154 11.8156C312.378 11.8156 340.224 30.4882 353.505 57.5924L355.939 56.3982H355.957Z" fill="#A36F00"/>
<path d="M313.573 67.6522C305.603 58.0897 293.589 51.9922 280.163 51.9922C266.738 51.9922 254.724 58.0807 246.753 67.6522L248.834 69.3892C256.316 60.4148 267.561 54.7062 280.154 54.7062C292.747 54.7062 303.992 60.4148 311.474 69.3892L313.555 67.6522H313.573Z" fill="#A36F00"/>
<path d="M266.311 83.4222C269.939 80.0116 274.797 77.9218 280.161 77.9218C285.526 77.9218 290.384 80.0116 294.012 83.4222L295.876 81.45C291.778 77.5871 286.25 75.2168 280.171 75.2168C274.091 75.2168 268.554 77.5961 264.456 81.4591L266.32 83.4313L266.311 83.4222Z" fill="#A36F00"/>
<path d="M302.979 107.081C314.097 90.2991 333.141 79.2258 354.772 79.2258C376.403 79.2258 395.455 90.29 406.574 107.081L408.836 105.579C397.238 88.0645 377.353 76.5117 354.772 76.5117C332.191 76.5117 312.306 88.0645 300.708 105.579L302.97 107.081H302.979Z" fill="#A36F00"/>
<path d="M430.566 102.883C416.851 74.8737 388.064 55.5859 354.772 55.5859C321.48 55.5859 292.702 74.8737 278.978 102.883L281.411 104.077C294.692 76.9726 322.547 58.3 354.763 58.3C386.987 58.3 414.834 76.9726 428.123 104.077L430.557 102.883H430.566Z" fill="#A36F00"/>
<path d="M388.183 114.137C380.213 104.574 368.199 98.4766 354.773 98.4766C341.348 98.4766 329.334 104.565 321.363 114.137L323.444 115.874C330.926 106.899 342.171 101.191 354.764 101.191C367.357 101.191 378.603 106.899 386.084 115.874L388.165 114.137H388.183Z" fill="#A36F00"/>
<path d="M340.92 129.912C344.548 126.502 349.406 124.412 354.771 124.412C360.135 124.412 364.994 126.502 368.621 129.912L370.485 127.94C366.387 124.077 360.859 121.707 354.78 121.707C348.7 121.707 343.164 124.086 339.065 127.949L340.929 129.922L340.92 129.912Z" fill="#A36F00"/>
<path d="M377.515 60.5965C388.634 43.8147 407.677 32.7414 429.308 32.7414C450.939 32.7414 469.991 43.8056 481.11 60.5965L483.372 59.0947C471.774 41.5801 451.889 30.0273 429.308 30.0273C406.727 30.0273 386.842 41.5801 375.244 59.0947L377.506 60.5965H377.515Z" fill="#A36F00"/>
<path d="M505.102 56.3982C491.387 28.3893 462.6 9.10156 429.308 9.10156C396.016 9.10156 367.238 28.3893 353.514 56.3982L355.947 57.5924C369.228 30.4791 397.083 11.8156 429.299 11.8156C461.524 11.8156 489.37 30.4882 502.659 57.5924L505.093 56.3982H505.102Z" fill="#A36F00"/>
<path d="M462.718 67.6522C454.748 58.0897 442.734 51.9922 429.308 51.9922C415.883 51.9922 403.869 58.0807 395.899 67.6522L397.979 69.3892C405.461 60.4148 416.706 54.7062 429.299 54.7062C441.893 54.7062 453.138 60.4148 460.619 69.3892L462.7 67.6522H462.718Z" fill="#A36F00"/>
<path d="M415.455 83.4222C419.083 80.0116 423.941 77.9218 429.306 77.9218C434.671 77.9218 439.529 80.0116 443.157 83.4222L445.02 81.45C440.922 77.5871 435.394 75.2168 429.315 75.2168C423.236 75.2168 417.699 77.5961 413.601 81.4591L415.464 83.4313L415.455 83.4222Z" fill="#A36F00"/>
<path d="M452.125 107.081C463.244 90.2991 482.287 79.2258 503.918 79.2258C525.549 79.2258 544.602 90.29 555.72 107.081L557.982 105.579C546.384 88.0645 526.499 76.5117 503.918 76.5117C481.337 76.5117 461.453 88.0645 449.855 105.579L452.116 107.081H452.125Z" fill="#A36F00"/>
<path d="M579.722 102.883C566.007 74.8737 537.22 55.5859 503.928 55.5859C470.636 55.5859 441.858 74.8737 428.134 102.883L430.568 104.077C443.848 76.9726 471.703 58.3 503.919 58.3C536.144 58.3 563.99 76.9726 577.27 104.077L579.704 102.883H579.722Z" fill="#A36F00"/>
<path d="M537.324 114.135C529.354 104.572 517.339 98.4746 503.914 98.4746C490.488 98.4746 478.474 104.563 470.504 114.135L472.585 115.872C480.067 106.897 491.312 101.189 503.905 101.189C516.498 101.189 527.743 106.897 535.225 115.872L537.306 114.135H537.324Z" fill="#A36F00"/>
<path d="M490.076 129.912C493.704 126.502 498.562 124.412 503.927 124.412C509.292 124.412 514.15 126.502 517.778 129.912L519.641 127.94C515.543 124.077 510.016 121.707 503.936 121.707C497.857 121.707 492.32 124.086 488.222 127.949L490.086 129.922L490.076 129.912Z" fill="#A36F00"/>
<path d="M526.661 60.5965C537.779 43.8147 556.823 32.7414 578.454 32.7414C600.085 32.7414 619.137 43.8056 630.256 60.5965L632.517 59.0947C620.919 41.5801 601.035 30.0273 578.454 30.0273C555.873 30.0273 535.988 41.5801 524.39 59.0947L526.652 60.5965H526.661Z" fill="#A36F00"/>
<path d="M654.248 56.3982C640.533 28.3893 611.746 9.10156 578.453 9.10156C545.161 9.10156 516.383 28.3984 502.659 56.3982L505.093 57.5924C518.374 30.4791 546.229 11.8156 578.444 11.8156C610.669 11.8156 638.515 30.4882 651.796 57.5924L654.229 56.3982H654.248Z" fill="#A36F00"/>
<path d="M611.864 67.6522C603.894 58.0897 591.879 51.9922 578.454 51.9922C565.028 51.9922 553.014 58.0807 545.044 67.6522L547.125 69.3892C554.607 60.4148 565.852 54.7062 578.445 54.7062C591.038 54.7062 602.283 60.4148 609.765 69.3892L611.846 67.6522H611.864Z" fill="#A36F00"/>
<path d="M564.602 83.4222C568.229 80.0116 573.088 77.9218 578.452 77.9218C583.817 77.9218 588.675 80.0116 592.303 83.4222L594.167 81.45C590.068 77.5871 584.541 75.2168 578.461 75.2168C572.382 75.2168 566.845 77.5961 562.747 81.4591L564.611 83.4313L564.602 83.4222Z" fill="#A36F00"/>
<path d="M601.276 107.081C612.394 90.2991 631.438 79.2258 653.069 79.2258C674.7 79.2258 693.752 90.29 704.871 107.081L707.132 105.579C695.534 88.0645 675.65 76.5117 653.069 76.5117C630.488 76.5117 610.603 88.0645 599.005 105.579L601.267 107.081H601.276Z" fill="#A36F00"/>
<path d="M728.863 102.883C715.148 74.8737 686.361 55.5859 653.069 55.5859C619.776 55.5859 590.999 74.8737 577.275 102.883L579.708 104.077C592.989 76.9726 620.844 58.3 653.06 58.3C685.284 58.3 713.13 76.9726 726.411 104.077L728.845 102.883H728.863Z" fill="#A36F00"/>
<path d="M686.479 114.137C678.509 104.574 666.495 98.4766 653.069 98.4766C639.644 98.4766 627.63 104.565 619.659 114.137L621.74 115.874C629.222 106.899 640.467 101.191 653.06 101.191C665.653 101.191 676.898 106.899 684.38 115.874L686.461 114.137H686.479Z" fill="#A36F00"/>
<path d="M639.222 129.912C642.85 126.502 647.708 124.412 653.073 124.412C658.437 124.412 663.296 126.502 666.923 129.912L668.787 127.94C664.689 124.077 659.161 121.707 653.082 121.707C647.002 121.707 641.466 124.086 637.367 127.949L639.231 129.922L639.222 129.912Z" fill="#A36F00"/>
<path d="M675.817 60.5965C686.935 43.8147 705.979 32.7414 727.61 32.7414C749.241 32.7414 768.293 43.8056 779.412 60.5965L781.674 59.0947C770.076 41.5801 750.191 30.0273 727.61 30.0273C705.029 30.0273 685.144 41.5801 673.546 59.0947L675.808 60.5965H675.817Z" fill="#A36F00"/>
<path d="M803.399 56.3982C789.675 28.3893 760.897 9.10156 727.605 9.10156C694.313 9.10156 665.535 28.3893 651.811 56.3982L654.244 57.5924C667.525 30.4791 695.38 11.8156 727.596 11.8156C759.82 11.8156 787.667 30.4882 800.956 57.5924L803.39 56.3982H803.399Z" fill="#A36F00"/>
<path d="M761.01 67.6522C753.04 58.0897 741.026 51.9922 727.6 51.9922C714.175 51.9922 702.161 58.0807 694.19 67.6522L696.271 69.3892C703.753 60.4148 714.998 54.7062 727.591 54.7062C740.184 54.7062 751.429 60.4148 758.911 69.3892L760.992 67.6522H761.01Z" fill="#A36F00"/>
<path d="M713.758 83.4222C717.386 80.0116 722.244 77.9218 727.609 77.9218C732.973 77.9218 737.832 80.0116 741.459 83.4222L743.323 81.45C739.225 77.5871 733.697 75.2168 727.618 75.2168C721.538 75.2168 716.002 77.5961 711.904 81.4591L713.767 83.4313L713.758 83.4222Z" fill="#A36F00"/>
<path d="M750.421 107.081C761.54 90.2991 780.583 79.2258 802.214 79.2258C823.845 79.2258 842.898 90.29 854.016 107.081L856.278 105.579C844.68 88.0645 824.795 76.5117 802.214 76.5117C779.633 76.5117 759.749 88.0645 748.151 105.579L750.412 107.081H750.421Z" fill="#A36F00"/>
<path d="M878.009 102.883C864.294 74.8737 835.507 55.5859 802.215 55.5859C768.923 55.5859 740.145 74.8737 726.421 102.883L728.855 104.077C742.135 76.9726 769.99 58.3 802.206 58.3C834.431 58.3 862.277 76.9726 875.558 104.077L877.991 102.883H878.009Z" fill="#A36F00"/>
<path d="M835.625 114.137C827.655 104.574 815.641 98.4766 802.216 98.4766C788.79 98.4766 776.776 104.565 768.806 114.137L770.887 115.874C778.368 106.899 789.613 101.191 802.207 101.191C814.8 101.191 826.045 106.899 833.527 115.874L835.607 114.137H835.625Z" fill="#A36F00"/>
<path d="M788.368 129.912C791.996 126.502 796.854 124.412 802.219 124.412C807.584 124.412 812.442 126.502 816.07 129.912L817.933 127.94C813.835 124.077 808.308 121.707 802.228 121.707C796.149 121.707 790.612 124.086 786.514 127.949L788.378 129.922L788.368 129.912Z" fill="#A36F00"/>
<path d="M824.962 60.5965C836.081 43.8147 855.124 32.7414 876.755 32.7414C898.386 32.7414 917.439 43.8056 928.557 60.5965L930.819 59.0947C919.221 41.5801 899.336 30.0273 876.755 30.0273C854.174 30.0273 834.29 41.5801 822.692 59.0947L824.953 60.5965H824.962Z" fill="#A36F00"/>
<path d="M952.55 56.3982C938.835 28.3893 910.048 9.10156 876.756 9.10156C843.464 9.10156 814.686 28.3893 800.962 56.3982L803.396 57.5924C816.676 30.4791 844.531 11.8156 876.747 11.8156C908.972 11.8156 936.818 30.4882 950.099 57.5924L952.532 56.3982H952.55Z" fill="#A36F00"/>
<path d="M910.161 67.6522C902.19 58.0897 890.176 51.9922 876.751 51.9922C863.325 51.9922 851.311 58.0807 843.341 67.6522L845.422 69.3892C852.903 60.4148 864.149 54.7062 876.742 54.7062C889.335 54.7062 900.58 60.4148 908.062 69.3892L910.143 67.6522H910.161Z" fill="#A36F00"/>
<path d="M862.899 83.4222C866.527 80.0116 871.385 77.9218 876.749 77.9218C882.114 77.9218 886.972 80.0116 890.6 83.4222L892.464 81.45C888.366 77.5871 882.838 75.2168 876.759 75.2168C870.679 75.2168 865.142 77.5961 861.044 81.4591L862.908 83.4313L862.899 83.4222Z" fill="#A36F00"/>
<path d="M974.061 246.065C985.179 229.283 1004.22 218.21 1025.85 218.21C1047.48 218.21 1066.54 229.274 1077.66 246.065L1079.92 244.563C1068.32 227.049 1048.43 215.496 1025.85 215.496C1003.27 215.496 983.388 227.049 971.79 244.563L974.052 246.065H974.061Z" fill="#A36F00"/>
<path d="M1101.66 241.867C1087.94 213.858 1059.16 194.57 1025.86 194.57C992.573 194.57 963.795 213.858 950.071 241.867L952.504 243.061C965.785 215.948 993.64 197.284 1025.86 197.284C1058.08 197.284 1085.93 215.957 1099.21 243.061L1101.64 241.867H1101.66Z" fill="#A36F00"/>
<path d="M1059.26 253.123C1051.29 243.56 1039.27 237.463 1025.85 237.463C1012.42 237.463 1000.41 243.56 992.44 253.123L994.52 254.86C1002 245.885 1013.25 240.177 1025.84 240.177C1038.43 240.177 1049.68 245.885 1057.16 254.86L1059.25 253.123H1059.26Z" fill="#A36F00"/>
<path d="M1123.21 246.065C1134.33 229.283 1153.37 218.21 1175.01 218.21C1196.65 218.21 1215.69 229.274 1226.81 246.065L1229.07 244.563C1217.47 227.049 1197.59 215.496 1175.01 215.496C1152.43 215.496 1132.54 227.049 1120.95 244.563L1123.21 246.065Z" fill="#A36F00"/>
<path d="M1250.8 241.867C1237.08 213.858 1208.3 194.57 1175.01 194.57C1141.71 194.57 1112.94 213.858 1099.21 241.867L1101.64 243.061C1114.93 215.948 1142.78 197.284 1175 197.284C1207.22 197.284 1235.07 215.957 1248.35 243.061L1250.78 241.867H1250.8Z" fill="#A36F00"/>
<path d="M1208.42 253.123C1200.45 243.56 1188.44 237.463 1175.01 237.463C1161.59 237.463 1149.57 243.56 1141.6 253.123L1143.68 254.86C1151.16 245.885 1162.41 240.177 1175 240.177C1187.6 240.177 1198.84 245.885 1206.32 254.86L1208.41 253.123H1208.42Z" fill="#A36F00"/>
<path d="M1272.36 246.065C1283.48 229.283 1302.53 218.21 1324.16 218.21C1345.79 218.21 1364.84 229.274 1375.96 246.065L1378.22 244.563C1366.62 227.049 1346.74 215.496 1324.16 215.496C1301.58 215.496 1281.69 227.049 1270.09 244.563L1272.35 246.065H1272.36Z" fill="#A36F00"/>
<path d="M1399.95 241.867C1386.24 213.858 1357.45 194.57 1324.16 194.57C1290.86 194.57 1262.09 213.858 1248.36 241.867L1250.8 243.061C1264.08 215.948 1291.93 197.284 1324.15 197.284C1356.37 197.284 1384.22 215.957 1397.5 243.061L1399.93 241.867H1399.95Z" fill="#A36F00"/>
<path d="M1357.57 253.123C1349.6 243.56 1337.58 237.463 1324.16 237.463C1310.73 237.463 1298.72 243.56 1290.75 253.123L1292.83 254.86C1300.31 245.885 1311.56 240.177 1324.15 240.177C1336.74 240.177 1347.99 245.885 1355.47 254.86L1357.55 253.123H1357.57Z" fill="#A36F00"/>
<path d="M899.531 200.143C910.649 183.362 929.693 172.288 951.324 172.288C972.955 172.288 992.007 183.353 1003.13 200.143L1005.39 198.642C993.789 181.127 973.904 169.574 951.324 169.574C928.743 169.574 908.858 181.127 897.26 198.642L899.522 200.143H899.531Z" fill="#A36F00"/>
<path d="M1027.12 195.945C1013.4 167.936 984.616 148.648 951.324 148.648C918.031 148.648 889.253 167.936 875.529 195.945L877.963 197.139C891.244 170.026 919.099 151.362 951.315 151.362C983.539 151.362 1011.39 170.035 1024.67 197.139L1027.1 195.945H1027.12Z" fill="#A36F00"/>
<path d="M984.734 207.201C976.764 197.639 964.75 191.541 951.324 191.541C937.899 191.541 925.885 197.629 917.915 207.201L919.995 208.938C927.477 199.964 938.722 194.255 951.315 194.255C963.909 194.255 975.154 199.964 982.635 208.938L984.725 207.201H984.734Z" fill="#A36F00"/>
<path d="M937.477 222.967C941.105 219.557 945.963 217.467 951.327 217.467C956.692 217.467 961.55 219.557 965.178 222.967L967.042 220.995C962.944 217.132 957.416 214.762 951.337 214.762C945.257 214.762 939.72 217.141 935.622 221.004L937.486 222.976L937.477 222.967Z" fill="#A36F00"/>
<path d="M974.061 153.651C985.179 136.869 1004.22 125.796 1025.85 125.796C1047.48 125.796 1066.54 136.86 1077.66 153.651L1079.92 152.149C1068.32 134.635 1048.43 123.082 1025.85 123.082C1003.27 123.082 983.388 134.635 971.79 152.149L974.052 153.651H974.061Z" fill="#A36F00"/>
<path d="M1101.66 149.453C1087.94 121.444 1059.16 102.156 1025.86 102.156C992.572 102.156 963.794 121.444 950.07 149.453L952.504 150.647C965.785 123.534 993.64 104.87 1025.86 104.87C1058.08 104.87 1085.93 123.543 1099.21 150.647L1101.64 149.453H1101.66Z" fill="#A36F00"/>
<path d="M1059.26 160.707C1051.29 151.144 1039.27 145.047 1025.85 145.047C1012.42 145.047 1000.41 151.135 992.44 160.707L994.52 162.444C1002 153.469 1013.25 147.761 1025.84 147.761C1038.43 147.761 1049.68 153.469 1057.16 162.444L1059.25 160.707H1059.26Z" fill="#A36F00"/>
<path d="M1012 176.487C1015.63 173.076 1020.49 170.986 1025.85 170.986C1031.22 170.986 1036.08 173.076 1039.7 176.487L1041.57 174.514C1037.47 170.652 1031.94 168.281 1025.86 168.281C1019.78 168.281 1014.25 170.661 1010.15 174.524L1012.01 176.496L1012 176.487Z" fill="#A36F00"/>
<path d="M1048.68 200.143C1059.8 183.362 1078.83 172.288 1100.47 172.288C1122.11 172.288 1141.16 183.353 1152.27 200.143L1154.54 198.642C1142.94 181.127 1123.05 169.574 1100.47 169.574C1077.89 169.574 1058.01 181.127 1046.42 198.642L1048.68 200.143Z" fill="#A36F00"/>
<path d="M1176.26 195.945C1162.55 167.936 1133.76 148.648 1100.47 148.648C1067.18 148.648 1038.4 167.936 1024.67 195.945L1027.11 197.139C1040.39 170.026 1068.24 151.362 1100.46 151.362C1132.68 151.362 1160.53 170.035 1173.81 197.139L1176.25 195.945H1176.26Z" fill="#A36F00"/>
<path d="M1133.88 207.201C1125.91 197.639 1113.9 191.541 1100.47 191.541C1087.04 191.541 1075.03 197.629 1067.06 207.201L1069.14 208.938C1076.62 199.964 1087.87 194.255 1100.46 194.255C1113.05 194.255 1124.3 199.964 1131.78 208.938L1133.87 207.201H1133.88Z" fill="#A36F00"/>
<path d="M1086.62 222.967C1090.24 219.557 1095.11 217.467 1100.47 217.467C1105.84 217.467 1110.7 219.557 1114.32 222.967L1116.19 220.995C1112.09 217.132 1106.56 214.762 1100.48 214.762C1094.4 214.762 1088.87 217.141 1084.77 221.004L1086.63 222.976L1086.62 222.967Z" fill="#A36F00"/>
<path d="M1123.21 153.651C1134.33 136.869 1153.37 125.796 1175.01 125.796C1196.65 125.796 1215.69 136.86 1226.81 153.651L1229.07 152.149C1217.47 134.635 1197.59 123.082 1175.01 123.082C1152.43 123.082 1132.54 134.635 1120.95 152.149L1123.21 153.651Z" fill="#A36F00"/>
<path d="M1250.8 149.453C1237.08 121.444 1208.3 102.156 1175.01 102.156C1141.71 102.156 1112.94 121.444 1099.21 149.453L1101.64 150.647C1114.93 123.534 1142.78 104.87 1175 104.87C1207.22 104.87 1235.07 123.543 1248.35 150.647L1250.78 149.453H1250.8Z" fill="#A36F00"/>
<path d="M1208.42 160.707C1200.45 151.144 1188.44 145.047 1175.01 145.047C1161.59 145.047 1149.57 151.135 1141.6 160.707L1143.68 162.444C1151.16 153.469 1162.41 147.761 1175 147.761C1187.6 147.761 1198.84 153.469 1206.32 162.444L1208.41 160.707H1208.42Z" fill="#A36F00"/>
<path d="M1161.16 176.487C1164.78 173.076 1169.64 170.986 1175.01 170.986C1180.37 170.986 1185.23 173.076 1188.86 176.487L1190.72 174.514C1186.63 170.652 1181.1 168.281 1175.02 168.281C1168.94 168.281 1163.4 170.661 1159.3 174.524L1161.17 176.496L1161.16 176.487Z" fill="#A36F00"/>
<path d="M1197.82 200.143C1208.94 183.362 1227.98 172.288 1249.62 172.288C1271.25 172.288 1290.3 183.353 1301.42 200.143L1303.68 198.642C1292.08 181.127 1272.2 169.574 1249.62 169.574C1227.03 169.574 1207.15 181.127 1195.55 198.642L1197.81 200.143H1197.82Z" fill="#A36F00"/>
<path d="M1325.41 195.945C1311.69 167.936 1282.91 148.648 1249.62 148.648C1216.32 148.648 1187.55 167.936 1173.82 195.945L1176.26 197.139C1189.54 170.026 1217.39 151.362 1249.61 151.362C1281.83 151.362 1309.68 170.035 1322.96 197.139L1325.39 195.945H1325.41Z" fill="#A36F00"/>
<path d="M1283.03 207.201C1275.06 197.639 1263.04 191.541 1249.62 191.541C1236.19 191.541 1224.18 197.629 1216.21 207.201L1218.29 208.938C1225.77 199.964 1237.01 194.255 1249.61 194.255C1262.2 194.255 1273.44 199.964 1280.93 208.938L1283.01 207.201H1283.03Z" fill="#A36F00"/>
<path d="M1235.76 222.967C1239.39 219.557 1244.25 217.467 1249.61 217.467C1254.98 217.467 1259.84 219.557 1263.46 222.967L1265.33 220.995C1261.23 217.132 1255.7 214.762 1249.62 214.762C1243.54 214.762 1238.01 217.141 1233.91 221.004L1235.77 222.976L1235.76 222.967Z" fill="#A36F00"/>
<path d="M1272.36 153.651C1283.48 136.869 1302.53 125.796 1324.16 125.796C1345.79 125.796 1364.84 136.86 1375.96 153.651L1378.22 152.149C1366.62 134.635 1346.74 123.082 1324.16 123.082C1301.58 123.082 1281.69 134.635 1270.09 152.149L1272.35 153.651H1272.36Z" fill="#A36F00"/>
<path d="M1399.95 149.453C1386.24 121.444 1357.45 102.156 1324.16 102.156C1290.86 102.156 1262.09 121.444 1248.36 149.453L1250.8 150.647C1264.08 123.534 1291.93 104.87 1324.15 104.87C1356.37 104.87 1384.22 123.543 1397.5 150.647L1399.93 149.453H1399.95Z" fill="#A36F00"/>
<path d="M1357.57 160.707C1349.6 151.144 1337.58 145.047 1324.16 145.047C1310.73 145.047 1298.72 151.135 1290.75 160.707L1292.83 162.444C1300.31 153.469 1311.56 147.761 1324.15 147.761C1336.74 147.761 1347.99 153.469 1355.47 162.444L1357.55 160.707H1357.57Z" fill="#A36F00"/>
<path d="M1310.3 176.487C1313.93 173.076 1318.79 170.986 1324.16 170.986C1329.52 170.986 1334.38 173.076 1338.01 176.487L1339.87 174.514C1335.77 170.652 1330.24 168.281 1324.16 168.281C1318.08 168.281 1312.55 170.661 1308.45 174.524L1310.31 176.496L1310.3 176.487Z" fill="#A36F00"/>
<path d="M1346.97 200.143C1358.09 183.362 1377.13 172.288 1398.76 172.288C1420.39 172.288 1439.44 183.353 1450.56 200.143L1452.82 198.642C1441.23 181.127 1421.34 169.574 1398.76 169.574C1376.18 169.574 1356.3 181.127 1344.7 198.642L1346.96 200.143H1346.97Z" fill="#A36F00"/>
<path d="M1474.57 195.945C1460.85 167.936 1432.06 148.648 1398.77 148.648C1365.48 148.648 1336.7 167.936 1322.98 195.945L1325.41 197.139C1338.69 170.026 1366.55 151.362 1398.76 151.362C1430.99 151.362 1458.83 170.035 1472.11 197.139L1474.55 195.945H1474.57Z" fill="#A36F00"/>
<path d="M1432.17 207.201C1424.2 197.639 1412.19 191.541 1398.76 191.541C1385.34 191.541 1373.32 197.629 1365.35 207.201L1367.43 208.938C1374.91 199.964 1386.16 194.255 1398.75 194.255C1411.35 194.255 1422.59 199.964 1430.07 208.938L1432.16 207.201H1432.17Z" fill="#A36F00"/>
<path d="M1384.91 222.967C1388.54 219.557 1393.39 217.467 1398.76 217.467C1404.12 217.467 1408.98 219.557 1412.61 222.967L1414.47 220.995C1410.38 217.132 1404.85 214.762 1398.77 214.762C1392.69 214.762 1387.15 217.141 1383.05 221.004L1384.92 222.976L1384.91 222.967Z" fill="#A36F00"/>
<path d="M899.531 107.081C910.649 90.2991 929.693 79.2258 951.324 79.2258C972.955 79.2258 992.007 90.29 1003.13 107.081L1005.39 105.579C993.789 88.0645 973.904 76.5117 951.324 76.5117C928.743 76.5117 908.858 88.0645 897.26 105.579L899.522 107.081H899.531Z" fill="#A36F00"/>
<path d="M1027.12 102.881C1013.4 74.8718 984.616 55.584 951.324 55.584C918.032 55.584 889.254 74.8718 875.53 102.881L877.963 104.075C891.244 76.9706 919.099 58.298 951.315 58.298C983.539 58.298 1011.39 76.9706 1024.67 104.075L1027.1 102.881H1027.12Z" fill="#A36F00"/>
<path d="M984.734 114.137C976.764 104.574 964.75 98.4766 951.324 98.4766C937.899 98.4766 925.884 104.565 917.914 114.137L919.995 115.874C927.477 106.899 938.722 101.191 951.315 101.191C963.908 101.191 975.153 106.899 982.635 115.874L984.725 114.137H984.734Z" fill="#A36F00"/>
<path d="M937.477 129.912C941.105 126.502 945.963 124.412 951.328 124.412C956.692 124.412 961.55 126.502 965.178 129.912L967.042 127.94C962.944 124.077 957.416 121.707 951.337 121.707C945.257 121.707 939.721 124.086 935.622 127.949L937.486 129.922L937.477 129.912Z" fill="#A36F00"/>
<path d="M974.056 60.5965C985.174 43.8147 1004.22 32.7414 1025.85 32.7414C1047.48 32.7414 1066.53 43.8056 1077.65 60.5965L1079.91 59.0947C1068.31 41.5801 1048.43 30.0273 1025.85 30.0273C1003.27 30.0273 983.383 41.5801 971.785 59.0947L974.047 60.5965H974.056Z" fill="#A36F00"/>
<path d="M1101.66 56.3982C1087.94 28.3893 1059.16 9.10156 1025.86 9.10156C992.573 9.10156 963.795 28.3893 950.071 56.3982L952.504 57.5924C965.785 30.4791 993.64 11.8156 1025.86 11.8156C1058.08 11.8156 1085.93 30.4882 1099.21 57.5924L1101.64 56.3982H1101.66Z" fill="#A36F00"/>
<path d="M1059.26 67.6522C1051.29 58.0897 1039.27 51.9922 1025.85 51.9922C1012.42 51.9922 1000.41 58.0807 992.44 67.6522L994.52 69.3892C1002 60.4148 1013.25 54.7062 1025.84 54.7062C1038.43 54.7062 1049.68 60.4148 1057.16 69.3892L1059.25 67.6522H1059.26Z" fill="#A36F00"/>
<path d="M1012 83.4222C1015.63 80.0116 1020.49 77.9218 1025.85 77.9218C1031.22 77.9218 1036.08 80.0116 1039.7 83.4222L1041.57 81.45C1037.47 77.5871 1031.94 75.2168 1025.86 75.2168C1019.78 75.2168 1014.25 77.5961 1010.15 81.4591L1012.01 83.4313L1012 83.4222Z" fill="#A36F00"/>
<path d="M1048.68 107.081C1059.8 90.2991 1078.83 79.2258 1100.47 79.2258C1122.11 79.2258 1141.16 90.29 1152.27 107.081L1154.54 105.579C1142.94 88.0645 1123.05 76.5117 1100.47 76.5117C1077.89 76.5117 1058.01 88.0645 1046.42 105.579L1048.68 107.081Z" fill="#A36F00"/>
<path d="M1176.26 102.883C1162.55 74.8737 1133.76 55.5859 1100.47 55.5859C1067.18 55.5859 1038.4 74.8737 1024.67 102.883L1027.11 104.077C1040.39 76.9726 1068.24 58.3 1100.46 58.3C1132.68 58.3 1160.53 76.9726 1173.81 104.077L1176.25 102.883H1176.26Z" fill="#A36F00"/>
<path d="M1133.88 114.137C1125.91 104.574 1113.9 98.4766 1100.47 98.4766C1087.05 98.4766 1075.03 104.565 1067.06 114.137L1069.14 115.874C1076.62 106.899 1087.87 101.191 1100.46 101.191C1113.05 101.191 1124.3 106.899 1131.78 115.874L1133.87 114.137H1133.88Z" fill="#A36F00"/>
<path d="M1086.62 129.912C1090.24 126.502 1095.11 124.412 1100.47 124.412C1105.84 124.412 1110.7 126.502 1114.32 129.912L1116.19 127.94C1112.09 124.077 1106.56 121.707 1100.48 121.707C1094.4 121.707 1088.87 124.086 1084.77 127.949L1086.63 129.922L1086.62 129.912Z" fill="#A36F00"/>
<path d="M1123.21 60.5965C1134.33 43.8147 1153.37 32.7414 1175.01 32.7414C1196.65 32.7414 1215.69 43.8056 1226.81 60.5965L1229.07 59.0947C1217.47 41.5801 1197.59 30.0273 1175.01 30.0273C1152.43 30.0273 1132.54 41.5801 1120.95 59.0947L1123.21 60.5965Z" fill="#A36F00"/>
<path d="M1250.8 56.3982C1237.08 28.3893 1208.3 9.10156 1175 9.10156C1141.71 9.10156 1112.93 28.3893 1099.21 56.3982L1101.64 57.5924C1114.93 30.4791 1142.78 11.8156 1175 11.8156C1207.22 11.8156 1235.07 30.4882 1248.35 57.5924L1250.78 56.3982H1250.8Z" fill="#A36F00"/>
<path d="M1208.42 67.6522C1200.45 58.0897 1188.44 51.9922 1175.01 51.9922C1161.59 51.9922 1149.57 58.0807 1141.6 67.6522L1143.68 69.3892C1151.16 60.4148 1162.41 54.7062 1175 54.7062C1187.6 54.7062 1198.84 60.4148 1206.32 69.3892L1208.41 67.6522H1208.42Z" fill="#A36F00"/>
<path d="M1161.16 83.4222C1164.78 80.0116 1169.64 77.9218 1175.01 77.9218C1180.37 77.9218 1185.23 80.0116 1188.86 83.4222L1190.72 81.45C1186.63 77.5871 1181.1 75.2168 1175.02 75.2168C1168.94 75.2168 1163.4 77.5961 1159.3 81.4591L1161.17 83.4313L1161.16 83.4222Z" fill="#A36F00"/>
<path d="M1197.83 107.081C1208.95 90.2991 1227.99 79.2258 1249.62 79.2258C1271.25 79.2258 1290.3 90.29 1301.42 107.081L1303.68 105.579C1292.09 88.0645 1272.2 76.5117 1249.62 76.5117C1227.04 76.5117 1207.15 88.0645 1195.56 105.579L1197.82 107.081H1197.83Z" fill="#A36F00"/>
<path d="M1325.41 102.883C1311.69 74.8737 1282.91 55.5859 1249.62 55.5859C1216.32 55.5859 1187.55 74.8737 1173.82 102.883L1176.26 104.077C1189.54 76.9726 1217.39 58.3 1249.61 58.3C1281.83 58.3 1309.68 76.9726 1322.96 104.077L1325.39 102.883H1325.41Z" fill="#A36F00"/>
<path d="M1283.03 114.137C1275.06 104.574 1263.04 98.4766 1249.62 98.4766C1236.19 98.4766 1224.18 104.565 1216.21 114.137L1218.29 115.874C1225.77 106.899 1237.01 101.191 1249.61 101.191C1262.2 101.191 1273.44 106.899 1280.93 115.874L1283.01 114.137H1283.03Z" fill="#A36F00"/>
<path d="M1235.76 129.912C1239.39 126.502 1244.25 124.412 1249.61 124.412C1254.98 124.412 1259.84 126.502 1263.46 129.912L1265.33 127.94C1261.23 124.077 1255.7 121.707 1249.62 121.707C1243.54 121.707 1238.01 124.086 1233.91 127.949L1235.77 129.922L1235.76 129.912Z" fill="#A36F00"/>
<path d="M1272.36 60.5965C1283.48 43.8147 1302.53 32.7414 1324.16 32.7414C1345.79 32.7414 1364.84 43.8056 1375.96 60.5965L1378.22 59.0947C1366.62 41.5801 1346.74 30.0273 1324.16 30.0273C1301.58 30.0273 1281.69 41.5801 1270.09 59.0947L1272.35 60.5965H1272.36Z" fill="#A36F00"/>
<path d="M1399.95 56.3982C1386.24 28.3893 1357.45 9.10156 1324.16 9.10156C1290.86 9.10156 1262.09 28.3893 1248.36 56.3982L1250.8 57.5924C1264.08 30.4791 1291.93 11.8156 1324.15 11.8156C1356.37 11.8156 1384.22 30.4882 1397.5 57.5924L1399.93 56.3982H1399.95Z" fill="#A36F00"/>
<path d="M1357.57 67.6522C1349.6 58.0897 1337.58 51.9922 1324.16 51.9922C1310.73 51.9922 1298.72 58.0807 1290.75 67.6522L1292.83 69.3892C1300.31 60.4148 1311.56 54.7062 1324.15 54.7062C1336.74 54.7062 1347.99 60.4148 1355.47 69.3892L1357.55 67.6522H1357.57Z" fill="#A36F00"/>
<path d="M1310.3 83.4222C1313.93 80.0116 1318.79 77.9218 1324.16 77.9218C1329.52 77.9218 1334.38 80.0116 1338.01 83.4222L1339.87 81.45C1335.77 77.5871 1330.24 75.2168 1324.16 75.2168C1318.08 75.2168 1312.55 77.5961 1308.45 81.4591L1310.31 83.4313L1310.3 83.4222Z" fill="#A36F00"/>
<path d="M1346.97 107.081C1358.09 90.2991 1377.13 79.2258 1398.76 79.2258C1420.39 79.2258 1439.44 90.29 1450.56 107.081L1452.82 105.579C1441.23 88.0645 1421.34 76.5117 1398.76 76.5117C1376.18 76.5117 1356.3 88.0645 1344.7 105.579L1346.96 107.081H1346.97Z" fill="#A36F00"/>
<path d="M1474.57 102.883C1460.85 74.8737 1432.06 55.5859 1398.77 55.5859C1365.48 55.5859 1336.7 74.8737 1322.98 102.883L1325.41 104.077C1338.69 76.9726 1366.55 58.3 1398.76 58.3C1430.99 58.3 1458.83 76.9726 1472.11 104.077L1474.55 102.883H1474.57Z" fill="#A36F00"/>
<path d="M1432.17 114.137C1424.2 104.574 1412.19 98.4766 1398.76 98.4766C1385.34 98.4766 1373.32 104.565 1365.35 114.137L1367.43 115.874C1374.91 106.899 1386.16 101.191 1398.75 101.191C1411.35 101.191 1422.59 106.899 1430.07 115.874L1432.16 114.137H1432.17Z" fill="#A36F00"/>
<path d="M1384.91 129.912C1388.54 126.502 1393.39 124.412 1398.76 124.412C1404.12 124.412 1408.98 126.502 1412.61 129.912L1414.47 127.94C1410.38 124.077 1404.85 121.707 1398.77 121.707C1392.69 121.707 1387.15 124.086 1383.05 127.949L1384.92 129.922L1384.91 129.912Z" fill="#A36F00"/>
<path d="M1421.51 246.065C1432.63 229.283 1451.67 218.21 1473.3 218.21C1494.93 218.21 1513.99 229.274 1525.1 246.065L1527.37 244.563C1515.77 227.049 1495.88 215.496 1473.3 215.496C1450.72 215.496 1430.84 227.049 1419.24 244.563L1421.5 246.065H1421.51Z" fill="#A36F00"/>
<path d="M1549.09 241.867C1535.38 213.858 1506.59 194.57 1473.3 194.57C1440 194.57 1411.23 213.858 1397.5 241.867L1399.94 243.061C1413.22 215.948 1441.07 197.284 1473.29 197.284C1505.51 197.284 1533.36 215.957 1546.64 243.061L1549.07 241.867H1549.09Z" fill="#A36F00"/>
<path d="M1506.71 253.123C1498.74 243.56 1486.73 237.463 1473.3 237.463C1459.88 237.463 1447.86 243.56 1439.89 253.123L1441.97 254.86C1449.46 245.885 1460.7 240.177 1473.29 240.177C1485.89 240.177 1497.13 245.885 1504.61 254.86L1506.7 253.123H1506.71Z" fill="#A36F00"/>
<path d="M1570.65 246.065C1581.77 229.283 1600.8 218.21 1622.44 218.21C1644.08 218.21 1663.13 229.274 1674.25 246.065L1676.51 244.563C1664.91 227.049 1645.03 215.496 1622.44 215.496C1599.86 215.496 1579.98 227.049 1568.39 244.563L1570.65 246.065Z" fill="#A36F00"/>
<path d="M1698.25 241.867C1684.53 213.858 1655.75 194.57 1622.45 194.57C1589.16 194.57 1560.38 213.858 1546.66 241.867L1549.09 243.061C1562.37 215.948 1590.23 197.284 1622.44 197.284C1654.67 197.284 1682.51 215.957 1695.8 243.061L1698.23 241.867H1698.25Z" fill="#A36F00"/>
<path d="M1655.85 253.123C1647.88 243.56 1635.87 237.463 1622.44 237.463C1609.02 237.463 1597 243.56 1589.03 253.123L1591.11 254.86C1598.6 245.885 1609.84 240.177 1622.43 240.177C1635.03 240.177 1646.27 245.885 1653.75 254.86L1655.84 253.123H1655.85Z" fill="#A36F00"/>
<path d="M1421.51 153.651C1432.63 136.869 1451.67 125.796 1473.3 125.796C1494.93 125.796 1513.99 136.86 1525.1 153.651L1527.37 152.149C1515.77 134.635 1495.88 123.082 1473.3 123.082C1450.72 123.082 1430.84 134.635 1419.24 152.149L1421.5 153.651H1421.51Z" fill="#A36F00"/>
<path d="M1549.09 149.453C1535.38 121.444 1506.59 102.156 1473.3 102.156C1440 102.156 1411.23 121.444 1397.5 149.453L1399.94 150.647C1413.22 123.534 1441.07 104.87 1473.29 104.87C1505.51 104.87 1533.36 123.543 1546.64 150.647L1549.07 149.453H1549.09Z" fill="#A36F00"/>
<path d="M1506.71 160.707C1498.74 151.144 1486.73 145.047 1473.3 145.047C1459.88 145.047 1447.86 151.135 1439.89 160.707L1441.97 162.444C1449.46 153.469 1460.7 147.761 1473.29 147.761C1485.89 147.761 1497.13 153.469 1504.61 162.444L1506.7 160.707H1506.71Z" fill="#A36F00"/>
<path d="M1459.45 176.487C1463.08 173.076 1467.94 170.986 1473.3 170.986C1478.67 170.986 1483.52 173.076 1487.15 176.487L1489.02 174.514C1484.92 170.652 1479.39 168.281 1473.31 168.281C1467.23 168.281 1461.69 170.661 1457.6 174.524L1459.46 176.496L1459.45 176.487Z" fill="#A36F00"/>
<path d="M1496.13 200.143C1507.24 183.362 1526.29 172.288 1547.92 172.288C1569.55 172.288 1588.6 183.353 1599.72 200.143L1601.98 198.642C1590.38 181.127 1570.5 169.574 1547.92 169.574C1525.34 169.574 1505.45 181.127 1493.86 198.642L1496.13 200.143Z" fill="#A36F00"/>
<path d="M1623.71 195.945C1610 167.936 1581.21 148.648 1547.92 148.648C1514.63 148.648 1485.85 167.936 1472.12 195.945L1474.56 197.139C1487.84 170.026 1515.69 151.362 1547.91 151.362C1580.13 151.362 1607.98 170.035 1621.26 197.139L1623.69 195.945H1623.71Z" fill="#A36F00"/>
<path d="M1581.33 207.201C1573.36 197.639 1561.34 191.541 1547.92 191.541C1534.49 191.541 1522.48 197.629 1514.51 207.201L1516.59 208.938C1524.07 199.964 1535.32 194.255 1547.91 194.255C1560.5 194.255 1571.75 199.964 1579.23 208.938L1581.32 207.201H1581.33Z" fill="#A36F00"/>
<path d="M1534.06 222.967C1537.68 219.557 1542.55 217.467 1547.92 217.467C1553.28 217.467 1558.14 219.557 1561.77 222.967L1563.63 220.995C1559.53 217.132 1554 214.762 1547.92 214.762C1541.84 214.762 1536.31 217.141 1532.21 221.004L1534.07 222.976L1534.06 222.967Z" fill="#A36F00"/>
<path d="M1570.65 153.651C1581.77 136.869 1600.8 125.796 1622.44 125.796C1644.08 125.796 1663.13 136.86 1674.25 153.651L1676.51 152.149C1664.91 134.635 1645.03 123.082 1622.44 123.082C1599.86 123.082 1579.98 134.635 1568.39 152.149L1570.65 153.651Z" fill="#A36F00"/>
<path d="M1698.25 149.453C1684.53 121.444 1655.75 102.156 1622.45 102.156C1589.16 102.156 1560.38 121.444 1546.66 149.453L1549.09 150.647C1562.37 123.534 1590.23 104.87 1622.44 104.87C1654.67 104.87 1682.51 123.543 1695.8 150.647L1698.23 149.453H1698.25Z" fill="#A36F00"/>
<path d="M1655.85 160.707C1647.88 151.144 1635.87 145.047 1622.44 145.047C1609.02 145.047 1597 151.135 1589.03 160.707L1591.11 162.444C1598.6 153.469 1609.84 147.761 1622.43 147.761C1635.03 147.761 1646.27 153.469 1653.75 162.444L1655.84 160.707H1655.85Z" fill="#A36F00"/>
<path d="M1421.51 60.5965C1432.63 43.8147 1451.67 32.7414 1473.3 32.7414C1494.93 32.7414 1513.99 43.8056 1525.1 60.5965L1527.37 59.0947C1515.77 41.5801 1495.88 30.0273 1473.3 30.0273C1450.72 30.0273 1430.84 41.5801 1419.24 59.0947L1421.5 60.5965H1421.51Z" fill="#A36F00"/>
<path d="M1549.09 56.3982C1535.38 28.3893 1506.59 9.10156 1473.3 9.10156C1440 9.10156 1411.23 28.3893 1397.5 56.3982L1399.94 57.5924C1413.22 30.4791 1441.07 11.8156 1473.29 11.8156C1505.51 11.8156 1533.36 30.4882 1546.64 57.5924L1549.07 56.3982H1549.09Z" fill="#A36F00"/>
<path d="M1506.71 67.6522C1498.74 58.0897 1486.73 51.9922 1473.3 51.9922C1459.88 51.9922 1447.86 58.0807 1439.89 67.6522L1441.97 69.3892C1449.46 60.4148 1460.7 54.7062 1473.29 54.7062C1485.89 54.7062 1497.13 60.4148 1504.61 69.3892L1506.7 67.6522H1506.71Z" fill="#A36F00"/>
<path d="M1459.45 83.4222C1463.08 80.0116 1467.94 77.9218 1473.3 77.9218C1478.67 77.9218 1483.52 80.0116 1487.15 83.4222L1489.02 81.45C1484.92 77.5871 1479.39 75.2168 1473.31 75.2168C1467.23 75.2168 1461.69 77.5961 1457.6 81.4591L1459.46 83.4313L1459.45 83.4222Z" fill="#A36F00"/>
<path d="M1496.13 107.081C1507.24 90.2991 1526.29 79.2258 1547.92 79.2258C1569.55 79.2258 1588.6 90.29 1599.72 107.081L1601.98 105.579C1590.38 88.0645 1570.5 76.5117 1547.92 76.5117C1525.34 76.5117 1505.45 88.0645 1493.86 105.579L1496.13 107.081Z" fill="#A36F00"/>
<path d="M1623.71 102.883C1610 74.8737 1581.21 55.5859 1547.92 55.5859C1514.63 55.5859 1485.85 74.8737 1472.12 102.883L1474.56 104.077C1487.84 76.9726 1515.69 58.3 1547.91 58.3C1580.13 58.3 1607.98 76.9726 1621.26 104.077L1623.69 102.883H1623.71Z" fill="#A36F00"/>
<path d="M1581.33 114.137C1573.36 104.574 1561.34 98.4766 1547.92 98.4766C1534.49 98.4766 1522.48 104.565 1514.51 114.137L1516.59 115.874C1524.07 106.899 1535.32 101.191 1547.91 101.191C1560.5 101.191 1571.75 106.899 1579.23 115.874L1581.32 114.137H1581.33Z" fill="#A36F00"/>
<path d="M1534.07 129.912C1537.68 126.502 1542.55 124.412 1547.92 124.412C1553.28 124.412 1558.14 126.502 1561.77 129.912L1563.63 127.94C1559.53 124.077 1554 121.707 1547.92 121.707C1541.85 121.707 1536.31 124.086 1532.21 127.949L1534.07 129.922L1534.07 129.912Z" fill="#A36F00"/>
<path d="M1570.65 60.5965C1581.77 43.8147 1600.8 32.7414 1622.44 32.7414C1644.08 32.7414 1663.13 43.8056 1674.25 60.5965L1676.51 59.0947C1664.91 41.5801 1645.03 30.0273 1622.44 30.0273C1599.86 30.0273 1579.98 41.5801 1568.39 59.0947L1570.65 60.5965Z" fill="#A36F00"/>
<path d="M1698.25 56.3982C1684.53 28.3893 1655.75 9.10156 1622.45 9.10156C1589.16 9.10156 1560.38 28.3893 1546.66 56.3982L1549.09 57.5924C1562.37 30.4791 1590.23 11.8156 1622.44 11.8156C1654.67 11.8156 1682.51 30.4882 1695.8 57.5924L1698.23 56.3982H1698.25Z" fill="#A36F00"/>
<path d="M1655.85 67.6522C1647.88 58.0897 1635.87 51.9922 1622.44 51.9922C1609.02 51.9922 1597 58.0807 1589.03 67.6522L1591.11 69.3892C1598.6 60.4148 1609.84 54.7062 1622.43 54.7062C1635.03 54.7062 1646.27 60.4148 1653.75 69.3892L1655.84 67.6522H1655.85Z" fill="#A36F00"/>
</g>
</g>
<defs>
<clipPath id="clip0_1149_259095">
<rect width="1597" height="244" fill="white"/>
</clipPath>
</defs>
</svg>
