<svg width="2774" height="478" viewBox="0 0 2774 478" fill="none" xmlns="http://www.w3.org/2000/svg">
<mask id="mask0_1124_152868" style="mask-type:luminance" maskUnits="userSpaceOnUse" x="0" y="0" width="2774" height="478">
<path opacity="0.12" d="M2773.51 0.917969V376.128H2739.74V409.9H2705.97V477.445H2083.21H691.157H68.3825L68.3825 410.005L34.6102 409.9V376.128H0.837891L0.837891 0.917969H2773.51Z" fill="white"/>
</mask>
<g mask="url(#mask0_1124_152868)">
<path d="M-44.6191 465.18C-26.286 437.509 5.11454 419.251 40.7813 419.251C76.4481 419.251 107.864 437.494 126.197 465.18L129.926 462.704C110.802 433.825 78.0144 414.775 40.7813 414.775C3.54824 414.775 -29.2396 433.825 -48.3633 462.704L-44.634 465.18H-44.6191Z" fill="#A36F00"/>
<path d="M165.756 458.257C143.141 412.074 95.6751 380.271 40.7802 380.271C-14.1148 380.271 -61.5661 412.074 -84.1953 458.257L-80.1826 460.226C-58.2843 415.52 -12.3545 384.746 40.7653 384.746C93.9 384.746 139.815 415.535 161.713 460.226L165.726 458.257H165.756Z" fill="#A36F00"/>
<path d="M95.8652 476.819C82.7232 461.051 62.9133 450.997 40.7764 450.997C18.6394 450.997 -1.17053 461.051 -14.3125 476.819L-10.8816 479.683C1.45486 464.885 19.9968 455.472 40.7614 455.472C61.526 455.472 80.068 464.885 92.4044 479.683L95.8354 476.819H95.8652Z" fill="#A36F00"/>
<path d="M201.232 465.184C219.566 437.513 250.966 419.254 286.633 419.254C322.3 419.254 353.715 437.498 372.048 465.184L375.777 462.708C356.654 433.828 323.866 414.779 286.633 414.779C249.4 414.779 216.612 433.828 197.488 462.708L201.218 465.184H201.232Z" fill="#A36F00"/>
<path d="M411.607 458.268C388.993 412.085 341.527 380.281 286.632 380.281C231.737 380.281 184.285 412.085 161.656 458.268L165.669 460.237C187.567 415.53 233.497 384.756 286.617 384.756C339.752 384.756 385.666 415.545 407.58 460.237L411.592 458.268H411.607Z" fill="#A36F00"/>
<path d="M341.719 476.822C328.577 461.055 308.767 451.001 286.63 451.001C264.493 451.001 244.683 461.055 231.541 476.822L234.972 479.687C247.308 464.889 265.85 455.476 286.615 455.476C307.38 455.476 325.921 464.889 338.258 479.687L341.689 476.822H341.719Z" fill="#A36F00"/>
<path d="M447.097 465.184C465.43 437.513 496.83 419.254 532.497 419.254C568.164 419.254 599.579 437.498 617.913 465.184L621.642 462.708C602.518 433.828 569.73 414.779 532.497 414.779C495.264 414.779 462.476 433.828 443.353 462.708L447.082 465.184H447.097Z" fill="#A36F00"/>
<path d="M657.473 458.267C634.859 412.084 587.393 380.28 532.498 380.28C477.603 380.28 430.152 412.084 407.522 458.267L411.535 460.236C433.433 415.529 479.363 384.755 532.483 384.755C585.618 384.755 631.533 415.544 653.431 460.236L657.444 458.267H657.473Z" fill="#A36F00"/>
<path d="M587.592 476.817C574.45 461.049 554.64 450.995 532.503 450.995C510.366 450.995 490.556 461.049 477.414 476.817L480.845 479.681C493.181 464.883 511.723 455.47 532.488 455.47C553.253 455.47 571.795 464.883 584.131 479.681L587.562 476.817H587.592Z" fill="#A36F00"/>
<path d="M693.025 465.181C711.359 437.51 742.759 419.251 778.426 419.251C814.093 419.251 845.508 437.495 863.841 465.181L867.57 462.705C848.447 433.826 815.659 414.776 778.426 414.776C741.193 414.776 708.405 433.826 689.281 462.705L693.011 465.181H693.025Z" fill="#A36F00"/>
<path d="M903.395 458.265C880.781 412.082 833.315 380.278 778.42 380.278C723.525 380.278 676.074 412.082 653.444 458.265L657.457 460.234C679.355 415.527 725.285 384.753 778.405 384.753C831.54 384.753 877.455 415.542 899.368 460.234L903.38 458.265H903.395Z" fill="#A36F00"/>
<path d="M833.522 476.821C820.38 461.054 800.571 451 778.434 451C756.297 451 736.487 461.054 723.345 476.821L726.776 479.686C739.112 464.888 757.654 455.475 778.419 455.475C799.183 455.475 817.725 464.888 830.062 479.686L833.493 476.821H833.522Z" fill="#A36F00"/>
<path d="M938.96 465.177C957.293 437.506 988.694 419.248 1024.36 419.248C1060.03 419.248 1091.44 437.491 1109.78 465.177L1113.51 462.701C1094.38 433.822 1061.59 414.772 1024.36 414.772C987.127 414.772 954.34 433.822 935.216 462.701L938.945 465.177H938.96Z" fill="#A36F00"/>
<path d="M1149.32 458.269C1126.7 412.085 1079.24 380.282 1024.34 380.282C969.449 380.282 921.997 412.085 899.368 458.269L903.381 460.238C925.279 415.531 971.209 384.757 1024.33 384.757C1077.46 384.757 1123.38 415.546 1145.28 460.238L1149.29 458.269H1149.32Z" fill="#A36F00"/>
<path d="M1079.44 476.822C1066.3 461.055 1046.49 451.001 1024.35 451.001C1002.21 451.001 982.404 461.055 969.262 476.822L972.693 479.687C985.029 464.889 1003.57 455.476 1024.34 455.476C1045.1 455.476 1063.64 464.889 1075.98 479.687L1079.41 476.822H1079.44Z" fill="#A36F00"/>
<path d="M1184.88 465.188C1203.22 437.517 1234.62 419.258 1270.28 419.258C1305.95 419.258 1337.37 437.502 1355.7 465.188L1359.43 462.712C1340.3 433.832 1307.52 414.783 1270.28 414.783C1233.05 414.783 1200.26 433.832 1181.14 462.712L1184.87 465.188H1184.88Z" fill="#A36F00"/>
<path d="M1395.25 458.268C1372.62 412.085 1325.17 380.281 1270.28 380.281C1215.38 380.281 1167.93 412.085 1145.3 458.268L1149.31 460.237C1171.21 415.53 1217.14 384.756 1270.26 384.756C1323.4 384.756 1369.31 415.545 1391.23 460.237L1395.24 458.268H1395.25Z" fill="#A36F00"/>
<path d="M1325.36 476.821C1312.22 461.053 1292.41 450.999 1270.28 450.999C1248.14 450.999 1228.33 461.053 1215.19 476.821L1218.62 479.685C1230.95 464.887 1249.5 455.474 1270.26 455.474C1291.03 455.474 1309.57 464.887 1321.9 479.685L1325.33 476.821H1325.36Z" fill="#A36F00"/>
<path d="M1430.81 465.188C1449.14 437.517 1480.54 419.258 1516.21 419.258C1551.88 419.258 1583.29 437.502 1601.62 465.188L1605.35 462.712C1586.23 433.832 1553.44 414.783 1516.21 414.783C1478.98 414.783 1446.19 433.832 1427.06 462.712L1430.79 465.188H1430.81Z" fill="#A36F00"/>
<path d="M1641.2 458.257C1618.58 412.074 1571.11 380.271 1516.22 380.271C1461.32 380.271 1413.87 412.074 1391.24 458.257L1395.26 460.226C1417.16 415.52 1463.08 384.746 1516.2 384.746C1569.34 384.746 1615.25 415.535 1637.15 460.226L1641.17 458.257H1641.2Z" fill="#A36F00"/>
<path d="M1571.29 476.822C1558.15 461.055 1538.34 451.001 1516.2 451.001C1494.07 451.001 1474.26 461.055 1461.12 476.822L1464.55 479.687C1476.88 464.889 1495.42 455.476 1516.19 455.476C1536.95 455.476 1555.5 464.889 1567.83 479.687L1571.26 476.822H1571.29Z" fill="#A36F00"/>
<path d="M-167.664 389.463C-149.331 361.791 -117.93 343.533 -82.2636 343.533C-46.5968 343.533 -15.1814 361.776 3.15173 389.463L6.88101 386.986C-12.2427 358.107 -45.0305 339.058 -82.2636 339.058C-119.497 339.058 -152.284 358.107 -171.408 386.986L-167.679 389.463H-167.664Z" fill="#A36F00"/>
<path d="M42.7303 382.545C20.116 336.362 -27.3503 304.559 -82.2452 304.559C-137.14 304.559 -184.591 336.362 -207.221 382.545L-203.208 384.514C-181.31 339.808 -135.38 309.034 -82.2601 309.034C-29.1254 309.034 16.7895 339.823 38.6878 384.514L42.7005 382.545H42.7303Z" fill="#A36F00"/>
<path d="M78.2715 389.464C96.6046 361.793 128.005 343.535 163.672 343.535C199.339 343.535 230.754 361.778 249.087 389.464L252.817 386.988C233.693 358.109 200.905 339.06 163.672 339.06C126.439 339.06 93.6511 358.109 74.5273 386.988L78.2566 389.464H78.2715Z" fill="#A36F00"/>
<path d="M288.662 382.535C266.048 336.352 218.581 304.549 163.686 304.549C108.791 304.549 61.3402 336.352 38.7109 382.535L42.7236 384.504C64.622 339.798 110.552 309.024 163.672 309.024C216.806 309.024 262.721 339.813 284.619 384.504L288.632 382.535H288.662Z" fill="#A36F00"/>
<path d="M218.762 401.104C205.62 385.336 185.81 375.282 163.673 375.282C141.536 375.282 121.726 385.321 108.584 401.104L112.015 403.968C124.351 389.17 142.893 379.757 163.658 379.757C184.423 379.757 202.964 389.17 215.301 403.968L218.732 401.104H218.762Z" fill="#A36F00"/>
<path d="M140.835 427.098C146.817 421.474 154.828 418.029 163.673 418.029C172.519 418.029 180.53 421.474 186.512 427.098L189.584 423.846C182.827 417.477 173.713 413.568 163.688 413.568C153.664 413.568 144.535 417.492 137.777 423.861L140.85 427.113L140.835 427.098Z" fill="#A36F00"/>
<path d="M324.207 389.458C342.54 361.786 373.941 343.528 409.608 343.528C445.274 343.528 476.69 361.772 495.023 389.458L498.752 386.981C479.628 358.102 446.841 339.053 409.608 339.053C372.374 339.053 339.587 358.102 320.463 386.981L324.192 389.458H324.207Z" fill="#A36F00"/>
<path d="M534.567 382.547C511.953 336.364 464.487 304.561 409.592 304.561C354.697 304.561 307.245 336.364 284.616 382.547L288.629 384.516C310.527 339.81 356.457 309.036 409.577 309.036C462.712 309.036 508.626 339.825 530.525 384.516L534.537 382.547H534.567Z" fill="#A36F00"/>
<path d="M464.686 401.103C451.545 385.335 431.735 375.281 409.598 375.281C387.461 375.281 367.651 385.32 354.509 401.103L357.94 403.967C370.276 389.169 388.818 379.756 409.583 379.756C430.347 379.756 448.889 389.169 461.226 403.967L464.657 401.103H464.686Z" fill="#A36F00"/>
<path d="M386.763 427.095C392.745 421.472 400.755 418.026 409.601 418.026C418.447 418.026 426.457 421.472 432.439 427.095L435.512 423.843C428.755 417.474 419.64 413.565 409.616 413.565C399.592 413.565 390.463 417.489 383.705 423.858L386.778 427.11L386.763 427.095Z" fill="#A36F00"/>
<path d="M-44.623 312.804C-26.2899 285.133 5.11063 266.875 40.7774 266.875C76.4442 266.875 107.86 285.118 126.193 312.804L129.922 310.328C110.798 281.449 78.0105 262.399 40.7774 262.399C3.54434 262.399 -29.2435 281.449 -48.3672 310.328L-44.6379 312.804H-44.623Z" fill="#A36F00"/>
<path d="M165.74 305.886C143.126 259.703 95.6595 227.899 40.7646 227.899C-14.1304 227.899 -61.5817 259.703 -84.2109 305.886L-80.1982 307.855C-58.2999 263.149 -12.3702 232.375 40.7497 232.375C93.8844 232.375 139.799 263.163 161.698 307.855L165.71 305.886H165.74Z" fill="#A36F00"/>
<path d="M95.8593 324.442C82.7174 308.674 62.9075 298.62 40.7705 298.62C18.6335 298.62 -1.17639 308.659 -14.3184 324.442L-10.8874 327.306C1.449 312.508 19.991 303.095 40.7556 303.095C61.5202 303.095 80.0621 312.508 92.3986 327.306L95.8295 324.442H95.8593Z" fill="#A36F00"/>
<path d="M17.9389 350.459C23.9206 344.835 31.9311 341.389 40.777 341.389C49.6228 341.389 57.6333 344.835 63.615 350.459L66.688 347.207C59.9305 340.837 50.8162 336.929 40.7919 336.929C30.7676 336.929 21.6383 340.852 14.8809 347.222L17.9538 350.473L17.9389 350.459Z" fill="#A36F00"/>
<path d="M201.244 312.805C219.577 285.134 250.978 266.876 286.645 266.876C322.311 266.876 353.727 285.119 372.06 312.805L375.789 310.329C356.665 281.45 323.878 262.4 286.645 262.4C249.412 262.4 216.624 281.45 197.5 310.329L201.229 312.805H201.244Z" fill="#A36F00"/>
<path d="M411.613 305.885C388.999 259.702 341.533 227.898 286.638 227.898C231.743 227.898 184.291 259.702 161.662 305.885L165.675 307.854C187.573 263.148 233.503 232.374 286.623 232.374C339.757 232.374 385.672 263.162 407.586 307.854L411.598 305.885H411.613Z" fill="#A36F00"/>
<path d="M341.73 324.44C328.588 308.672 308.779 298.618 286.642 298.618C264.505 298.618 244.695 308.657 231.553 324.44L234.984 327.304C247.32 312.506 265.862 303.093 286.627 303.093C307.391 303.093 325.933 312.506 338.27 327.304L341.701 324.44H341.73Z" fill="#A36F00"/>
<path d="M263.799 350.459C269.781 344.835 277.791 341.389 286.637 341.389C295.483 341.389 303.494 344.835 309.475 350.459L312.548 347.207C305.791 340.837 296.677 336.929 286.652 336.929C276.628 336.929 267.499 340.852 260.741 347.222L263.814 350.473L263.799 350.459Z" fill="#A36F00"/>
<path d="M447.101 312.808C465.434 285.137 496.834 266.878 532.501 266.878C568.168 266.878 599.583 285.122 617.916 312.808L621.646 310.332C602.522 281.452 569.734 262.403 532.501 262.403C495.268 262.403 462.48 281.452 443.356 310.332L447.086 312.808H447.101Z" fill="#A36F00"/>
<path d="M657.479 305.888C634.865 259.705 587.399 227.901 532.504 227.901C477.609 227.901 430.158 259.705 407.528 305.888L411.541 307.857C433.439 263.15 479.369 232.376 532.489 232.376C585.624 232.376 631.539 263.165 653.437 307.857L657.45 305.888H657.479Z" fill="#A36F00"/>
<path d="M587.582 324.446C574.44 308.678 554.63 298.624 532.493 298.624C510.356 298.624 490.546 308.663 477.404 324.446L480.835 327.31C493.172 312.512 511.714 303.099 532.478 303.099C553.243 303.099 571.785 312.512 584.121 327.31L587.552 324.446H587.582Z" fill="#A36F00"/>
<path d="M509.66 350.46C515.641 344.836 523.652 341.39 532.498 341.39C541.344 341.39 549.354 344.836 555.336 350.46L558.409 347.208C551.651 340.838 542.537 336.93 532.513 336.93C522.488 336.93 513.359 340.853 506.602 347.222L509.674 350.474L509.66 350.46Z" fill="#A36F00"/>
<path d="M570.125 389.463C588.458 361.791 619.859 343.533 655.525 343.533C691.192 343.533 722.608 361.776 740.941 389.463L744.67 386.986C725.546 358.107 692.759 339.058 655.525 339.058C618.292 339.058 585.505 358.107 566.381 386.986L570.11 389.463H570.125Z" fill="#A36F00"/>
<path d="M780.506 382.538C757.891 336.355 710.425 304.552 655.53 304.552C600.635 304.552 553.184 336.355 530.555 382.538L534.567 384.507C556.466 339.801 602.395 309.027 655.515 309.027C708.65 309.027 754.565 339.816 776.478 384.507L780.491 382.538H780.506Z" fill="#A36F00"/>
<path d="M710.618 401.092C697.476 385.325 677.666 375.271 655.529 375.271C633.392 375.271 613.582 385.31 600.44 401.092L603.871 403.956C616.208 389.158 634.75 379.746 655.514 379.746C676.279 379.746 694.821 389.158 707.157 403.956L710.588 401.092H710.618Z" fill="#A36F00"/>
<path d="M632.682 427.104C638.664 421.48 646.674 418.034 655.52 418.034C664.366 418.034 672.376 421.48 678.358 427.104L681.431 423.852C674.674 417.482 665.559 413.574 655.535 413.574C645.511 413.574 636.381 417.497 629.624 423.867L632.697 427.119L632.682 427.104Z" fill="#A36F00"/>
<path d="M693.031 312.802C711.364 285.131 742.765 266.873 778.432 266.873C814.099 266.873 845.514 285.116 863.847 312.802L867.576 310.326C848.453 281.447 815.665 262.397 778.432 262.397C741.199 262.397 708.411 281.447 689.287 310.326L693.016 312.802H693.031Z" fill="#A36F00"/>
<path d="M903.404 305.882C880.79 259.699 833.324 227.896 778.429 227.896C723.534 227.896 676.082 259.699 653.453 305.882L657.466 307.851C679.364 263.145 725.294 232.371 778.414 232.371C831.548 232.371 877.463 263.16 899.377 307.851L903.389 305.882H903.404Z" fill="#A36F00"/>
<path d="M833.516 324.441C820.374 308.673 800.564 298.619 778.427 298.619C756.29 298.619 736.48 308.658 723.338 324.441L726.769 327.305C739.105 312.507 757.647 303.094 778.412 303.094C799.176 303.094 817.718 312.507 830.055 327.305L833.486 324.441H833.516Z" fill="#A36F00"/>
<path d="M755.587 350.455C761.569 344.831 769.58 341.385 778.425 341.385C787.271 341.385 795.282 344.831 801.263 350.455L804.336 347.203C797.579 340.833 788.465 336.925 778.44 336.925C768.416 336.925 759.287 340.848 752.529 347.218L755.602 350.47L755.587 350.455Z" fill="#A36F00"/>
<path d="M816.05 389.458C834.383 361.786 865.783 343.528 901.45 343.528C937.117 343.528 968.532 361.772 986.866 389.458L990.595 386.981C971.471 358.102 938.683 339.053 901.45 339.053C864.217 339.053 831.429 358.102 812.306 386.981L816.035 389.458H816.05Z" fill="#A36F00"/>
<path d="M1026.44 382.548C1003.82 336.365 956.356 304.562 901.461 304.562C846.566 304.562 799.115 336.365 776.485 382.548L780.498 384.517C802.396 339.811 848.326 309.037 901.446 309.037C954.581 309.037 1000.5 339.826 1022.39 384.517L1026.41 382.548H1026.44Z" fill="#A36F00"/>
<path d="M956.529 401.103C943.387 385.335 923.577 375.281 901.44 375.281C879.303 375.281 859.494 385.32 846.352 401.103L849.783 403.967C862.119 389.169 880.661 379.756 901.426 379.756C922.19 379.756 940.732 389.169 953.069 403.967L956.499 401.103H956.529Z" fill="#A36F00"/>
<path d="M878.618 427.101C884.599 421.477 892.61 418.031 901.456 418.031C910.301 418.031 918.312 421.477 924.294 427.101L927.367 423.849C920.609 417.48 911.495 413.571 901.471 413.571C891.446 413.571 882.317 417.494 875.56 423.864L878.632 427.116L878.618 427.101Z" fill="#A36F00"/>
<path d="M938.95 312.806C957.283 285.135 988.684 266.876 1024.35 266.876C1060.02 266.876 1091.43 285.12 1109.77 312.806L1113.5 310.33C1094.37 281.451 1061.58 262.401 1024.35 262.401C987.118 262.401 954.33 281.451 935.206 310.33L938.935 312.806H938.95Z" fill="#A36F00"/>
<path d="M1149.33 305.886C1126.71 259.703 1079.24 227.899 1024.35 227.899C969.455 227.899 922.003 259.703 899.374 305.886L903.387 307.855C925.285 263.149 971.215 232.375 1024.33 232.375C1077.47 232.375 1123.38 263.163 1145.28 307.855L1149.3 305.886H1149.33Z" fill="#A36F00"/>
<path d="M1079.44 324.441C1066.3 308.673 1046.49 298.619 1024.35 298.619C1002.21 298.619 982.402 308.658 969.26 324.441L972.691 327.305C985.027 312.507 1003.57 303.094 1024.33 303.094C1045.1 303.094 1063.64 312.507 1075.98 327.305L1079.41 324.441H1079.44Z" fill="#A36F00"/>
<path d="M1001.51 350.459C1007.49 344.835 1015.5 341.389 1024.35 341.389C1033.2 341.389 1041.21 344.835 1047.19 350.459L1050.26 347.207C1043.5 340.837 1034.39 336.929 1024.37 336.929C1014.34 336.929 1005.21 340.852 998.454 347.222L1001.53 350.473L1001.51 350.459Z" fill="#A36F00"/>
<path d="M1061.98 389.464C1080.31 361.792 1111.71 343.534 1147.38 343.534C1183.05 343.534 1214.46 361.777 1232.8 389.464L1236.53 386.987C1217.4 358.108 1184.61 339.059 1147.38 339.059C1110.15 339.059 1077.36 358.108 1058.24 386.987L1061.97 389.464H1061.98Z" fill="#A36F00"/>
<path d="M1272.35 382.548C1249.74 336.365 1202.27 304.562 1147.38 304.562C1092.48 304.562 1045.03 336.365 1022.4 382.548L1026.42 384.517C1048.31 339.811 1094.24 309.037 1147.36 309.037C1200.5 309.037 1246.41 339.826 1268.31 384.517L1272.32 382.548H1272.35Z" fill="#A36F00"/>
<path d="M1202.47 401.099C1189.33 385.331 1169.52 375.277 1147.39 375.277C1125.25 375.277 1105.44 385.317 1092.3 401.099L1095.73 403.963C1108.06 389.165 1126.61 379.752 1147.37 379.752C1168.14 379.752 1186.68 389.165 1199.01 403.963L1202.44 401.099H1202.47Z" fill="#A36F00"/>
<path d="M1124.54 427.1C1130.52 421.476 1138.53 418.031 1147.38 418.031C1156.23 418.031 1164.24 421.476 1170.22 427.1L1173.29 423.848C1166.53 417.479 1157.42 413.57 1147.4 413.57C1137.37 413.57 1128.24 417.494 1121.48 423.863L1124.56 427.115L1124.54 427.1Z" fill="#A36F00"/>
<path d="M1184.89 312.8C1203.23 285.129 1234.63 266.871 1270.29 266.871C1305.96 266.871 1337.38 285.114 1355.71 312.8L1359.44 310.324C1340.31 281.445 1307.53 262.396 1270.29 262.396C1233.06 262.396 1200.27 281.445 1181.15 310.324L1184.88 312.8H1184.89Z" fill="#A36F00"/>
<path d="M1395.24 305.896C1372.62 259.712 1325.16 227.909 1270.27 227.909C1215.37 227.909 1167.92 259.712 1145.29 305.896L1149.31 307.865C1171.2 263.158 1217.13 232.384 1270.25 232.384C1323.39 232.384 1369.3 263.173 1391.22 307.865L1395.23 305.896H1395.24Z" fill="#A36F00"/>
<path d="M1325.37 324.435C1312.23 308.667 1292.42 298.613 1270.28 298.613C1248.15 298.613 1228.34 308.652 1215.19 324.435L1218.62 327.299C1230.96 312.501 1249.5 303.088 1270.27 303.088C1291.03 303.088 1309.57 312.501 1321.91 327.299L1325.34 324.435H1325.37Z" fill="#A36F00"/>
<path d="M1247.45 350.456C1253.43 344.832 1261.44 341.386 1270.29 341.386C1279.14 341.386 1287.15 344.832 1293.13 350.456L1296.2 347.204C1289.44 340.834 1280.33 336.926 1270.3 336.926C1260.28 336.926 1251.15 340.849 1244.39 347.219L1247.47 350.471L1247.45 350.456Z" fill="#A36F00"/>
<path d="M1307.9 389.47C1326.23 361.799 1357.63 343.541 1393.3 343.541C1428.97 343.541 1460.38 361.784 1478.71 389.47L1482.44 386.994C1463.32 358.115 1430.53 339.065 1393.3 339.065C1356.07 339.065 1323.28 358.115 1304.15 386.994L1307.88 389.47H1307.9Z" fill="#A36F00"/>
<path d="M1518.28 382.546C1495.66 336.363 1448.19 304.56 1393.3 304.56C1338.4 304.56 1290.95 336.363 1268.32 382.546L1272.34 384.515C1294.24 339.809 1340.16 309.035 1393.28 309.035C1446.42 309.035 1492.33 339.824 1514.23 384.515L1518.25 382.546H1518.28Z" fill="#A36F00"/>
<path d="M1448.4 401.1C1435.26 385.332 1415.45 375.278 1393.31 375.278C1371.17 375.278 1351.36 385.318 1338.22 401.1L1341.65 403.964C1353.99 389.166 1372.53 379.753 1393.3 379.753C1414.06 379.753 1432.6 389.166 1444.94 403.964L1448.37 401.1H1448.4Z" fill="#A36F00"/>
<path d="M1370.47 427.102C1376.45 421.478 1384.46 418.032 1393.31 418.032C1402.15 418.032 1410.16 421.478 1416.15 427.102L1419.22 423.85C1412.46 417.481 1403.35 413.572 1393.32 413.572C1383.3 413.572 1374.17 417.495 1367.41 423.865L1370.48 427.117L1370.47 427.102Z" fill="#A36F00"/>
<path d="M1430.81 312.811C1449.14 285.14 1480.54 266.881 1516.21 266.881C1551.87 266.881 1583.29 285.125 1601.62 312.811L1605.35 310.335C1586.23 281.455 1553.44 262.406 1516.21 262.406C1478.97 262.406 1446.19 281.455 1427.06 310.335L1430.79 312.811H1430.81Z" fill="#A36F00"/>
<path d="M1641.18 305.885C1618.57 259.702 1571.1 227.898 1516.21 227.898C1461.31 227.898 1413.86 259.702 1391.23 305.885L1395.25 307.854C1417.14 263.148 1463.07 232.374 1516.19 232.374C1569.33 232.374 1615.24 263.162 1637.14 307.854L1641.15 305.885H1641.18Z" fill="#A36F00"/>
<path d="M1571.3 324.432C1558.16 308.664 1538.35 298.61 1516.21 298.61C1494.08 298.61 1474.27 308.65 1461.13 324.432L1464.56 327.296C1476.89 312.498 1495.44 303.085 1516.2 303.085C1536.96 303.085 1555.51 312.498 1567.84 327.296L1571.27 324.432H1571.3Z" fill="#A36F00"/>
<path d="M1493.37 350.457C1499.35 344.833 1507.36 341.387 1516.21 341.387C1525.05 341.387 1533.06 344.833 1539.04 350.457L1542.12 347.205C1535.36 340.835 1526.25 336.927 1516.22 336.927C1506.2 336.927 1497.07 340.85 1490.31 347.22L1493.38 350.471L1493.37 350.457Z" fill="#A36F00"/>
<path d="M-167.664 236.011C-149.331 208.34 -117.93 190.082 -82.2636 190.082C-46.5968 190.082 -15.1814 208.325 3.15173 236.011L6.88101 233.535C-12.2427 204.656 -45.0305 185.606 -82.2636 185.606C-119.497 185.606 -152.284 204.656 -171.408 233.535L-167.679 236.011H-167.664Z" fill="#A36F00"/>
<path d="M42.7342 229.085C20.1199 182.902 -27.3464 151.099 -82.2413 151.099C-137.136 151.099 -184.588 182.902 -207.217 229.085L-203.204 231.054C-181.306 186.363 -135.376 155.574 -82.2562 155.574C-29.1215 155.574 16.7934 186.363 38.6917 231.054L42.7044 229.085H42.7342Z" fill="#A36F00"/>
<path d="M78.2735 236.012C96.6066 208.341 128.007 190.083 163.674 190.083C199.341 190.083 230.756 208.326 249.089 236.012L252.818 233.536C233.695 204.657 200.907 185.607 163.674 185.607C126.441 185.607 93.653 204.657 74.5293 233.536L78.2586 236.012H78.2735Z" fill="#A36F00"/>
<path d="M288.646 229.098C266.032 182.915 218.566 151.111 163.671 151.111C108.776 151.111 61.3246 182.915 38.6953 229.098L42.708 231.067C64.6063 186.375 110.536 155.586 163.656 155.586C216.791 155.586 262.705 186.375 284.604 231.067L288.616 229.098H288.646Z" fill="#A36F00"/>
<path d="M218.762 247.649C205.62 231.881 185.81 221.827 163.673 221.827C141.536 221.827 121.726 231.866 108.584 247.649L112.015 250.513C124.351 235.715 142.893 226.302 163.658 226.302C184.423 226.302 202.964 235.715 215.301 250.513L218.732 247.649H218.762Z" fill="#A36F00"/>
<path d="M140.828 273.665C146.809 268.041 154.82 264.595 163.666 264.595C172.511 264.595 180.522 268.041 186.504 273.665L189.577 270.413C182.819 264.043 173.705 260.135 163.681 260.135C153.656 260.135 144.527 264.058 137.77 270.428L140.842 273.679L140.828 273.665Z" fill="#A36F00"/>
<path d="M324.201 236.009C342.534 208.338 373.935 190.08 409.602 190.08C445.268 190.08 476.684 208.323 495.017 236.009L498.746 233.533C479.623 204.654 446.835 185.604 409.602 185.604C372.369 185.604 339.581 204.654 320.457 233.533L324.186 236.009H324.201Z" fill="#A36F00"/>
<path d="M534.565 229.099C511.951 182.916 464.485 151.112 409.59 151.112C354.695 151.112 307.244 182.916 284.614 229.099L288.627 231.068C310.525 186.376 356.455 155.587 409.575 155.587C462.71 155.587 508.624 186.376 530.523 231.068L534.535 229.099H534.565Z" fill="#A36F00"/>
<path d="M464.685 247.654C451.543 231.886 431.733 221.832 409.596 221.832C387.459 221.832 367.649 231.871 354.507 247.654L357.938 250.518C370.274 235.72 388.816 226.307 409.581 226.307C430.345 226.307 448.887 235.72 461.224 250.518L464.655 247.654H464.685Z" fill="#A36F00"/>
<path d="M386.754 273.667C392.736 268.043 400.747 264.597 409.592 264.597C418.438 264.597 426.449 268.043 432.43 273.667L435.503 270.415C428.746 264.045 419.632 260.137 409.607 260.137C399.583 260.137 390.454 264.06 383.696 270.43L386.769 273.681L386.754 273.667Z" fill="#A36F00"/>
<path d="M-44.6308 159.371C-26.2977 131.699 5.10282 113.441 40.7696 113.441C76.4364 113.441 107.852 131.685 126.185 159.371L129.914 156.894C110.79 128.015 78.0027 108.966 40.7696 108.966C3.53652 108.966 -29.2513 128.015 -48.375 156.894L-44.6457 159.371H-44.6308Z" fill="#A36F00"/>
<path d="M165.762 152.434C143.147 106.251 95.681 74.4473 40.786 74.4473C-14.1089 74.4473 -61.5602 106.251 -84.1895 152.434L-80.1767 154.403C-58.2784 109.696 -12.3487 78.9224 40.7711 78.9224C93.9059 78.9224 139.821 109.711 161.719 154.403L165.732 152.434H165.762Z" fill="#A36F00"/>
<path d="M95.8711 170.997C82.7291 155.23 62.9192 145.176 40.7822 145.176C18.6452 145.176 -1.16467 155.215 -14.3066 170.997L-10.8757 173.861C1.46072 159.064 20.0027 149.651 40.7673 149.651C61.5319 149.651 80.0739 159.064 92.4103 173.861L95.8412 170.997H95.8711Z" fill="#A36F00"/>
<path d="M17.9408 197.004C23.9226 191.381 31.9331 187.935 40.7789 187.935C49.6248 187.935 57.6352 191.381 63.617 197.004L66.6899 193.753C59.9325 187.383 50.8181 183.475 40.7938 183.475C30.7695 183.475 21.6403 187.398 14.8828 193.767L17.9557 197.019L17.9408 197.004Z" fill="#A36F00"/>
<path d="M201.248 159.359C219.581 131.688 250.982 113.429 286.649 113.429C322.315 113.429 353.731 131.673 372.064 159.359L375.793 156.883C356.669 128.003 323.882 108.954 286.649 108.954C249.415 108.954 216.628 128.003 197.504 156.883L201.233 159.359H201.248Z" fill="#A36F00"/>
<path d="M411.613 152.449C388.999 106.265 341.533 74.4619 286.638 74.4619C231.743 74.4619 184.291 106.265 161.662 152.449L165.675 154.418C187.573 109.711 233.503 78.937 286.623 78.937C339.757 78.937 385.672 109.726 407.586 154.418L411.598 152.449H411.613Z" fill="#A36F00"/>
<path d="M341.719 171.007C328.577 155.24 308.767 145.186 286.63 145.186C264.493 145.186 244.683 155.225 231.541 171.007L234.972 173.871C247.308 159.073 265.85 149.661 286.615 149.661C307.38 149.661 325.921 159.073 338.258 173.871L341.689 171.007H341.719Z" fill="#A36F00"/>
<path d="M263.805 197C269.787 191.376 277.797 187.93 286.643 187.93C295.489 187.93 303.5 191.376 309.481 197L312.554 193.748C305.797 187.378 296.682 183.47 286.658 183.47C276.634 183.47 267.505 187.393 260.747 193.763L263.82 197.014L263.805 197Z" fill="#A36F00"/>
<path d="M447.106 159.362C465.439 131.691 496.84 113.432 532.507 113.432C568.173 113.432 599.589 131.676 617.922 159.362L621.651 156.886C602.528 128.006 569.74 108.957 532.507 108.957C495.274 108.957 462.486 128.006 443.377 156.886L447.106 159.362Z" fill="#A36F00"/>
<path d="M657.476 152.447C634.862 106.263 587.396 74.46 532.501 74.46C477.606 74.46 430.155 106.263 407.525 152.447L411.538 154.416C433.436 109.709 479.366 78.9351 532.486 78.9351C585.621 78.9351 631.536 109.724 653.434 154.416L657.447 152.447H657.476Z" fill="#A36F00"/>
<path d="M587.59 171.006C574.448 155.239 554.638 145.185 532.501 145.185C510.364 145.185 490.554 155.224 477.412 171.006L480.843 173.87C493.18 159.072 511.721 149.66 532.486 149.66C553.251 149.66 571.793 159.072 584.129 173.87L587.56 171.006H587.59Z" fill="#A36F00"/>
<path d="M509.662 197.004C515.644 191.381 523.655 187.935 532.501 187.935C541.346 187.935 549.357 191.381 555.339 197.004L558.412 193.753C551.654 187.383 542.54 183.475 532.515 183.475C522.491 183.475 513.362 187.398 506.604 193.767L509.677 197.019L509.662 197.004Z" fill="#A36F00"/>
<path d="M570.117 236.02C588.45 208.349 619.851 190.09 655.518 190.09C691.184 190.09 722.6 208.334 740.933 236.02L744.662 233.544C725.539 204.664 692.751 185.615 655.518 185.615C618.285 185.615 585.497 204.664 566.373 233.544L570.102 236.02H570.117Z" fill="#A36F00"/>
<path d="M780.505 229.088C757.89 182.905 710.424 151.102 655.529 151.102C600.634 151.102 553.183 182.905 530.554 229.088L534.566 231.057C556.465 186.366 602.394 155.577 655.514 155.577C708.649 155.577 754.564 186.366 776.477 231.057L780.49 229.088H780.505Z" fill="#A36F00"/>
<path d="M710.619 247.642C697.477 231.874 677.667 221.82 655.53 221.82C633.393 221.82 613.583 231.86 600.441 247.642L603.872 250.506C616.209 235.708 634.751 226.295 655.515 226.295C676.28 226.295 694.822 235.708 707.158 250.506L710.589 247.642H710.619Z" fill="#A36F00"/>
<path d="M632.687 273.659C638.669 268.035 646.679 264.589 655.525 264.589C664.371 264.589 672.381 268.035 678.363 273.659L681.436 270.407C674.679 264.037 665.564 260.129 655.54 260.129C645.516 260.129 636.386 264.052 629.629 270.422L632.702 273.674L632.687 273.659Z" fill="#A36F00"/>
<path d="M693.023 159.369C711.356 131.698 742.756 113.439 778.423 113.439C814.09 113.439 845.505 131.683 863.838 159.369L867.568 156.893C848.444 128.013 815.656 108.964 778.423 108.964C741.19 108.964 708.402 128.013 689.278 156.893L693.008 159.369H693.023Z" fill="#A36F00"/>
<path d="M903.406 152.446C880.792 106.262 833.326 74.459 778.431 74.459C723.536 74.459 676.084 106.262 653.455 152.446L657.468 154.415C679.366 109.708 725.296 78.9341 778.416 78.9341C831.55 78.9341 877.465 109.723 899.378 154.415L903.391 152.446H903.406Z" fill="#A36F00"/>
<path d="M833.518 171.008C820.376 155.241 800.566 145.187 778.429 145.187C756.292 145.187 736.482 155.226 723.34 171.008L726.771 173.872C739.107 159.074 757.649 149.662 778.414 149.662C799.178 149.662 817.72 159.074 830.057 173.872L833.488 171.008H833.518Z" fill="#A36F00"/>
<path d="M755.589 197.007C761.571 191.384 769.581 187.938 778.427 187.938C787.273 187.938 795.284 191.384 801.265 197.007L804.338 193.755C797.581 187.386 788.467 183.478 778.442 183.478C768.418 183.478 759.289 187.401 752.531 193.77L755.604 197.022L755.589 197.007Z" fill="#A36F00"/>
<path d="M816.051 236.014C834.384 208.343 865.784 190.085 901.451 190.085C937.118 190.085 968.533 208.328 986.867 236.014L990.596 233.538C971.472 204.659 938.684 185.609 901.451 185.609C864.218 185.609 831.43 204.659 812.307 233.538L816.036 236.014H816.051Z" fill="#A36F00"/>
<path d="M1026.44 229.094C1003.82 182.911 956.358 151.107 901.463 151.107C846.568 151.107 799.117 182.911 776.487 229.094L780.5 231.063C802.398 186.371 848.328 155.583 901.448 155.583C954.583 155.583 1000.5 186.371 1022.4 231.063L1026.41 229.094H1026.44Z" fill="#A36F00"/>
<path d="M956.523 247.655C943.381 231.887 923.571 221.833 901.434 221.833C879.297 221.833 859.487 231.872 846.345 247.655L849.776 250.519C862.112 235.721 880.654 226.308 901.419 226.308C922.183 226.308 940.725 235.721 953.062 250.519L956.493 247.655H956.523Z" fill="#A36F00"/>
<path d="M878.626 273.659C884.608 268.035 892.619 264.589 901.464 264.589C910.31 264.589 918.321 268.035 924.303 273.659L927.375 270.407C920.618 264.037 911.504 260.129 901.479 260.129C891.455 260.129 882.326 264.052 875.568 270.422L878.641 273.674L878.626 273.659Z" fill="#A36F00"/>
<path d="M938.951 159.368C957.284 131.697 988.685 113.438 1024.35 113.438C1060.02 113.438 1091.43 131.682 1109.77 159.368L1113.5 156.892C1094.37 128.012 1061.58 108.963 1024.35 108.963C987.119 108.963 954.331 128.012 935.207 156.892L938.936 159.368H938.951Z" fill="#A36F00"/>
<path d="M1149.33 152.447C1126.71 106.263 1079.25 74.46 1024.35 74.46C969.457 74.46 922.006 106.278 899.377 152.447L903.39 154.416C925.288 109.709 971.218 78.9351 1024.34 78.9351C1077.47 78.9351 1123.39 109.724 1145.29 154.416L1149.3 152.447H1149.33Z" fill="#A36F00"/>
<path d="M1079.45 170.993C1066.31 155.226 1046.5 145.172 1024.36 145.172C1002.22 145.172 982.411 155.211 969.27 170.993L972.7 173.857C985.037 159.06 1003.58 149.647 1024.34 149.647C1045.11 149.647 1063.65 159.06 1075.99 173.857L1079.42 170.993H1079.45Z" fill="#A36F00"/>
<path d="M1001.51 197.001C1007.5 191.378 1015.51 187.932 1024.35 187.932C1033.2 187.932 1041.21 191.378 1047.19 197.001L1050.26 193.75C1043.51 187.38 1034.39 183.472 1024.37 183.472C1014.34 183.472 1005.21 187.395 998.456 193.764L1001.53 197.016L1001.51 197.001Z" fill="#A36F00"/>
<path d="M1061.99 236.019C1080.32 208.348 1111.72 190.089 1147.39 190.089C1183.05 190.089 1214.47 208.333 1232.8 236.019L1236.53 233.543C1217.41 204.663 1184.62 185.614 1147.39 185.614C1110.15 185.614 1077.36 204.663 1058.24 233.543L1061.97 236.019H1061.99Z" fill="#A36F00"/>
<path d="M1272.36 229.092C1249.75 182.909 1202.28 151.105 1147.38 151.105C1092.49 151.105 1045.04 182.909 1022.41 229.092L1026.42 231.061C1048.32 186.369 1094.25 155.581 1147.37 155.581C1200.5 155.581 1246.42 186.369 1268.32 231.061L1272.33 229.092H1272.36Z" fill="#A36F00"/>
<path d="M1202.47 247.646C1189.33 231.878 1169.52 221.824 1147.39 221.824C1125.25 221.824 1105.44 231.863 1092.3 247.646L1095.73 250.51C1108.06 235.712 1126.61 226.299 1147.37 226.299C1168.14 226.299 1186.68 235.712 1199.01 250.51L1202.44 247.646H1202.47Z" fill="#A36F00"/>
<path d="M1124.54 273.666C1130.53 268.042 1138.54 264.596 1147.38 264.596C1156.23 264.596 1164.24 268.042 1170.22 273.666L1173.29 270.414C1166.54 264.044 1157.42 260.136 1147.4 260.136C1137.37 260.136 1128.24 264.059 1121.49 270.429L1124.56 273.68L1124.54 273.666Z" fill="#A36F00"/>
<path d="M1184.88 159.371C1203.21 131.699 1234.61 113.441 1270.28 113.441C1305.95 113.441 1337.36 131.685 1355.7 159.371L1359.43 156.894C1340.3 128.015 1307.51 108.966 1270.28 108.966C1233.05 108.966 1200.26 128.015 1181.14 156.894L1184.87 159.371H1184.88Z" fill="#A36F00"/>
<path d="M1395.26 152.443C1372.64 106.259 1325.18 74.4561 1270.29 74.4561C1215.39 74.4561 1167.94 106.259 1145.31 152.443L1149.33 154.412C1171.22 109.705 1217.15 78.9312 1270.27 78.9312C1323.41 78.9312 1369.32 109.72 1391.24 154.412L1395.25 152.443H1395.26Z" fill="#A36F00"/>
<path d="M1325.36 171.007C1312.21 155.24 1292.4 145.186 1270.27 145.186C1248.13 145.186 1228.32 155.225 1215.18 171.007L1218.61 173.871C1230.95 159.073 1249.49 149.661 1270.25 149.661C1291.02 149.661 1309.56 159.073 1321.89 173.871L1325.33 171.007H1325.36Z" fill="#A36F00"/>
<path d="M1247.44 197.012C1253.42 191.388 1261.43 187.943 1270.28 187.943C1279.12 187.943 1287.14 191.388 1293.12 197.012L1296.19 193.76C1289.43 187.391 1280.32 183.482 1270.29 183.482C1260.27 183.482 1251.14 187.406 1244.38 193.775L1247.46 197.027L1247.44 197.012Z" fill="#A36F00"/>
<path d="M1307.91 236.011C1326.24 208.34 1357.64 190.082 1393.31 190.082C1428.98 190.082 1460.39 208.325 1478.72 236.011L1482.45 233.535C1463.33 204.656 1430.54 185.606 1393.31 185.606C1356.08 185.606 1323.29 204.656 1304.17 233.535L1307.89 236.011H1307.91Z" fill="#A36F00"/>
<path d="M1518.29 229.083C1495.68 182.9 1448.21 151.097 1393.32 151.097C1338.42 151.097 1290.97 182.9 1268.34 229.083L1272.36 231.052C1294.25 186.361 1340.18 155.572 1393.3 155.572C1446.44 155.572 1492.35 186.361 1514.25 231.052L1518.26 229.083H1518.29Z" fill="#A36F00"/>
<path d="M1448.39 247.652C1435.25 231.884 1415.44 221.83 1393.3 221.83C1371.16 221.83 1351.35 231.869 1338.21 247.652L1341.64 250.516C1353.98 235.718 1372.52 226.305 1393.29 226.305C1414.05 226.305 1432.59 235.718 1444.93 250.516L1448.36 247.652H1448.39Z" fill="#A36F00"/>
<path d="M1370.46 273.667C1376.44 268.043 1384.45 264.597 1393.3 264.597C1402.15 264.597 1410.16 268.043 1416.14 273.667L1419.21 270.415C1412.45 264.045 1403.34 260.137 1393.31 260.137C1383.29 260.137 1374.16 264.06 1367.4 270.43L1370.48 273.681L1370.46 273.667Z" fill="#A36F00"/>
<path d="M1430.82 159.371C1449.15 131.699 1480.55 113.441 1516.22 113.441C1551.88 113.441 1583.3 131.685 1601.63 159.371L1605.36 156.894C1586.24 128.015 1553.45 108.966 1516.22 108.966C1478.98 108.966 1446.2 128.015 1427.07 156.894L1430.8 159.371H1430.82Z" fill="#A36F00"/>
<path d="M1641.19 152.443C1618.58 106.259 1571.11 74.4561 1516.22 74.4561C1461.32 74.4561 1413.87 106.259 1391.24 152.443L1395.25 154.412C1417.15 109.705 1463.08 78.9312 1516.2 78.9312C1569.34 78.9312 1615.25 109.72 1637.15 154.412L1641.16 152.443H1641.19Z" fill="#A36F00"/>
<path d="M1571.31 170.997C1558.16 155.23 1538.35 145.176 1516.22 145.176C1494.08 145.176 1474.27 155.215 1461.13 170.997L1464.56 173.861C1476.9 159.064 1495.44 149.651 1516.2 149.651C1536.97 149.651 1555.51 159.064 1567.85 173.861L1571.28 170.997H1571.31Z" fill="#A36F00"/>
<path d="M1493.37 197.005C1499.35 191.382 1507.36 187.936 1516.21 187.936C1525.05 187.936 1533.06 191.382 1539.05 197.005L1542.12 193.753C1535.36 187.384 1526.25 183.476 1516.22 183.476C1506.2 183.476 1497.07 187.399 1490.31 193.768L1493.38 197.02L1493.37 197.005Z" fill="#A36F00"/>
<path d="M1676.66 465.181C1694.99 437.51 1726.39 419.251 1762.06 419.251C1797.73 419.251 1829.14 437.495 1847.48 465.181L1851.21 462.705C1832.08 433.826 1799.29 414.776 1762.06 414.776C1724.83 414.776 1692.04 433.826 1672.92 462.705L1676.65 465.181H1676.66Z" fill="#A36F00"/>
<path d="M1887.05 458.263C1864.44 412.08 1816.97 380.276 1762.08 380.276C1707.18 380.276 1659.73 412.08 1637.1 458.263L1641.11 460.232C1663.01 415.525 1708.94 384.751 1762.06 384.751C1815.2 384.751 1861.11 415.54 1883.01 460.232L1887.02 458.263H1887.05Z" fill="#A36F00"/>
<path d="M1817.14 476.821C1804 461.053 1784.19 450.999 1762.05 450.999C1739.91 450.999 1720.1 461.053 1706.96 476.821L1710.39 479.685C1722.73 464.887 1741.27 455.474 1762.03 455.474C1782.8 455.474 1801.34 464.887 1813.68 479.685L1817.12 476.821H1817.14Z" fill="#A36F00"/>
<path d="M1922.59 465.188C1940.93 437.517 1972.31 419.258 2007.99 419.258C2043.67 419.258 2075.08 437.502 2093.41 465.188L2097.14 462.712C2078.01 433.832 2045.23 414.783 2007.99 414.783C1970.76 414.783 1937.97 433.832 1918.86 462.712L1922.59 465.188Z" fill="#A36F00"/>
<path d="M2132.97 458.262C2110.35 412.079 2062.89 380.275 2007.99 380.275C1953.1 380.275 1905.65 412.079 1883.02 458.262L1887.03 460.231C1908.93 415.525 1954.86 384.751 2007.98 384.751C2061.11 384.751 2107.03 415.539 2128.93 460.231L2132.94 458.262H2132.97Z" fill="#A36F00"/>
<path d="M2063.08 476.824C2049.94 461.057 2030.13 451.003 2007.99 451.003C1985.86 451.003 1966.05 461.057 1952.91 476.824L1956.34 479.689C1968.67 464.891 1987.21 455.478 2007.98 455.478C2028.74 455.478 2047.29 464.891 2059.62 479.689L2063.07 476.824H2063.08Z" fill="#A36F00"/>
<path d="M1553.77 389.464C1572.1 361.792 1603.5 343.534 1639.17 343.534C1674.83 343.534 1706.25 361.777 1724.58 389.464L1728.31 386.987C1709.19 358.108 1676.4 339.059 1639.17 339.059C1601.93 339.059 1569.15 358.108 1550.02 386.987L1553.75 389.464H1553.77Z" fill="#A36F00"/>
<path d="M1764.14 382.544C1741.53 336.361 1694.06 304.558 1639.17 304.558C1584.27 304.558 1536.82 336.361 1514.19 382.544L1518.21 384.513C1540.1 339.807 1586.03 309.033 1639.15 309.033C1692.29 309.033 1738.2 339.822 1760.1 384.513L1764.11 382.544H1764.14Z" fill="#A36F00"/>
<path d="M1694.26 401.094C1681.12 385.327 1661.31 375.272 1639.17 375.272C1617.04 375.272 1597.23 385.312 1584.08 401.094L1587.51 403.958C1599.85 389.16 1618.39 379.748 1639.16 379.748C1659.92 379.748 1678.46 389.16 1690.8 403.958L1694.25 401.094H1694.26Z" fill="#A36F00"/>
<path d="M1616.33 427.104C1622.31 421.48 1630.32 418.034 1639.16 418.034C1648.01 418.034 1656.02 421.48 1662 427.104L1665.07 423.852C1658.32 417.482 1649.2 413.574 1639.18 413.574C1629.15 413.574 1620.03 417.497 1613.27 423.867L1616.34 427.119L1616.33 427.104Z" fill="#A36F00"/>
<path d="M1676.66 312.805C1694.99 285.134 1726.39 266.876 1762.06 266.876C1797.72 266.876 1829.14 285.119 1847.47 312.805L1851.2 310.329C1832.08 281.45 1799.29 262.4 1762.06 262.4C1724.82 262.4 1692.04 281.45 1672.91 310.329L1676.64 312.805H1676.66Z" fill="#A36F00"/>
<path d="M1887.06 305.873C1864.45 259.69 1816.98 227.887 1762.09 227.887C1707.19 227.887 1659.74 259.69 1637.11 305.873L1641.12 307.842C1663.02 263.136 1708.95 232.362 1762.07 232.362C1815.21 232.362 1861.12 263.151 1883.02 307.842L1887.03 305.873H1887.06Z" fill="#A36F00"/>
<path d="M1817.15 324.433C1804.01 308.665 1784.2 298.611 1762.06 298.611C1739.92 298.611 1720.11 308.651 1706.97 324.433L1710.4 327.297C1722.74 312.499 1741.28 303.086 1762.04 303.086C1782.81 303.086 1801.35 312.499 1813.69 327.297L1817.13 324.433H1817.15Z" fill="#A36F00"/>
<path d="M1739.22 350.456C1745.2 344.832 1753.21 341.386 1762.06 341.386C1770.9 341.386 1778.92 344.832 1784.9 350.456L1787.97 347.204C1781.21 340.834 1772.1 336.926 1762.07 336.926C1752.05 336.926 1742.92 340.849 1736.16 347.219L1739.24 350.471L1739.22 350.456Z" fill="#A36F00"/>
<path d="M1799.69 389.463C1818.03 361.791 1849.41 343.533 1885.09 343.533C1920.78 343.533 1952.18 361.776 1970.51 389.463L1974.24 386.986C1955.11 358.107 1922.33 339.058 1885.09 339.058C1847.86 339.058 1815.07 358.107 1795.96 386.986L1799.69 389.463Z" fill="#A36F00"/>
<path d="M2010.07 382.543C1987.45 336.36 1939.99 304.557 1885.09 304.557C1830.2 304.557 1782.75 336.36 1760.12 382.543L1764.13 384.512C1786.03 339.806 1831.96 309.032 1885.08 309.032C1938.21 309.032 1984.13 339.821 2006.03 384.512L2010.04 382.543H2010.07Z" fill="#A36F00"/>
<path d="M1940.19 401.096C1927.05 385.329 1907.24 375.274 1885.1 375.274C1862.96 375.274 1843.15 385.314 1830.01 401.096L1833.44 403.96C1845.78 389.162 1864.32 379.75 1885.09 379.75C1905.85 379.75 1924.39 389.162 1936.73 403.96L1940.18 401.096H1940.19Z" fill="#A36F00"/>
<path d="M1862.26 427.1C1868.22 421.476 1876.25 418.031 1885.09 418.031C1893.94 418.031 1901.95 421.476 1907.93 427.1L1911 423.848C1904.25 417.479 1895.13 413.57 1885.11 413.57C1875.08 413.57 1865.95 417.494 1859.2 423.863L1862.27 427.115L1862.26 427.1Z" fill="#A36F00"/>
<path d="M1922.59 312.804C1940.92 285.133 1972.31 266.875 2007.99 266.875C2043.67 266.875 2075.07 285.118 2093.41 312.804L2097.13 310.328C2078.01 281.449 2045.22 262.399 2007.99 262.399C1970.76 262.399 1937.97 281.449 1918.86 310.328L1922.59 312.804Z" fill="#A36F00"/>
<path d="M2132.96 305.886C2110.35 259.703 2062.88 227.899 2007.99 227.899C1953.09 227.899 1905.64 259.703 1883.01 305.886L1887.02 307.855C1908.92 263.149 1954.85 232.375 2007.97 232.375C2061.11 232.375 2107.02 263.163 2128.92 307.855L2132.93 305.886H2132.96Z" fill="#A36F00"/>
<path d="M2063.09 324.438C2049.94 308.67 2030.14 298.616 2008 298.616C1985.86 298.616 1966.05 308.655 1952.91 324.438L1956.34 327.302C1968.68 312.504 1987.22 303.091 2007.98 303.091C2028.75 303.091 2047.29 312.504 2059.63 327.302L2063.07 324.438H2063.09Z" fill="#A36F00"/>
<path d="M1985.15 350.461C1991.12 344.838 1999.14 341.392 2007.99 341.392C2016.83 341.392 2024.84 344.838 2030.82 350.461L2033.9 347.21C2027.14 340.84 2018.03 336.932 2008 336.932C1997.98 336.932 1988.85 340.855 1982.09 347.224L1985.16 350.476L1985.15 350.461Z" fill="#A36F00"/>
<path d="M2045.62 389.467C2063.95 361.796 2095.35 343.538 2131.02 343.538C2166.68 343.538 2198.1 361.781 2216.43 389.467L2220.16 386.991C2201.04 358.112 2168.25 339.062 2131.02 339.062C2093.78 339.062 2061 358.112 2041.87 386.991L2045.6 389.467H2045.62Z" fill="#A36F00"/>
<path d="M2256 382.537C2233.39 336.354 2185.92 304.551 2131.03 304.551C2076.13 304.551 2028.68 336.354 2006.05 382.537L2010.06 384.506C2031.96 339.8 2077.89 309.026 2131.01 309.026C2184.15 309.026 2230.06 339.815 2251.96 384.506L2255.97 382.537H2256Z" fill="#A36F00"/>
<path d="M2186.11 401.098C2172.97 385.33 2153.16 375.276 2131.02 375.276C2108.88 375.276 2089.07 385.316 2075.93 401.098L2079.36 403.962C2091.7 389.164 2110.24 379.751 2131 379.751C2151.77 379.751 2170.31 389.164 2182.65 403.962L2186.08 401.098H2186.11Z" fill="#A36F00"/>
<path d="M2108.19 427.086C2114.17 421.463 2122.18 418.017 2131.02 418.017C2139.87 418.017 2147.88 421.463 2153.86 427.086L2156.94 423.834C2150.18 417.465 2141.06 413.557 2131.04 413.557C2121.02 413.557 2111.89 417.48 2105.13 423.849L2108.2 427.101L2108.19 427.086Z" fill="#A36F00"/>
<path d="M2168.52 312.808C2186.85 285.137 2218.25 266.878 2253.92 266.878C2289.58 266.878 2321 285.122 2339.33 312.808L2343.06 310.332C2323.94 281.452 2291.15 262.403 2253.92 262.403C2216.68 262.403 2183.9 281.452 2164.77 310.332L2168.5 312.808H2168.52Z" fill="#A36F00"/>
<path d="M2378.9 305.882C2356.28 259.699 2308.82 227.896 2253.92 227.896C2199.03 227.896 2151.58 259.699 2128.95 305.882L2132.96 307.851C2154.86 263.145 2200.79 232.371 2253.91 232.371C2307.04 232.371 2352.96 263.16 2374.85 307.851L2378.87 305.882H2378.9Z" fill="#A36F00"/>
<path d="M2309.01 324.434C2295.87 308.666 2276.06 298.612 2253.92 298.612C2231.79 298.612 2211.98 308.652 2198.83 324.434L2202.27 327.298C2214.6 312.5 2233.14 303.087 2253.91 303.087C2274.67 303.087 2293.22 312.5 2305.55 327.298L2308.98 324.434H2309.01Z" fill="#A36F00"/>
<path d="M2231.08 350.459C2237.06 344.835 2245.07 341.389 2253.92 341.389C2262.77 341.389 2270.78 344.835 2276.76 350.459L2279.83 347.207C2273.07 340.837 2263.96 336.929 2253.93 336.929C2243.91 336.929 2234.78 340.852 2228.02 347.222L2231.1 350.473L2231.08 350.459Z" fill="#A36F00"/>
<path d="M1553.76 236.014C1572.1 208.343 1603.5 190.085 1639.16 190.085C1674.83 190.085 1706.25 208.328 1724.58 236.014L1728.31 233.538C1709.19 204.659 1676.4 185.609 1639.16 185.609C1601.93 185.609 1569.14 204.659 1550.02 233.538L1553.75 236.014H1553.76Z" fill="#A36F00"/>
<path d="M1764.14 229.093C1741.53 182.91 1694.06 151.106 1639.17 151.106C1584.27 151.106 1536.82 182.91 1514.19 229.093L1518.21 231.062C1540.1 186.37 1586.03 155.582 1639.15 155.582C1692.29 155.582 1738.2 186.37 1760.1 231.062L1764.11 229.093H1764.14Z" fill="#A36F00"/>
<path d="M1694.26 247.651C1681.12 231.883 1661.31 221.829 1639.17 221.829C1617.03 221.829 1597.22 231.868 1584.08 247.651L1587.51 250.515C1599.85 235.717 1618.39 226.304 1639.16 226.304C1659.92 226.304 1678.46 235.717 1690.8 250.515L1694.24 247.651H1694.26Z" fill="#A36F00"/>
<path d="M1616.34 273.655C1622.32 268.031 1630.34 264.585 1639.18 264.585C1648.03 264.585 1656.04 268.031 1662.02 273.655L1665.09 270.403C1658.33 264.033 1649.22 260.125 1639.2 260.125C1629.17 260.125 1620.04 264.048 1613.29 270.418L1616.36 273.67L1616.34 273.655Z" fill="#A36F00"/>
<path d="M1676.65 159.37C1694.98 131.699 1726.38 113.44 1762.05 113.44C1797.71 113.44 1829.13 131.684 1847.46 159.37L1851.19 156.893C1832.07 128.014 1799.28 108.965 1762.05 108.965C1724.81 108.965 1692.03 128.014 1672.9 156.893L1676.63 159.37H1676.65Z" fill="#A36F00"/>
<path d="M1887.05 152.449C1864.43 106.265 1816.97 74.4619 1762.07 74.4619C1707.18 74.4619 1659.73 106.265 1637.1 152.449L1641.11 154.418C1663.01 109.711 1708.94 78.937 1762.06 78.937C1815.19 78.937 1861.11 109.726 1883.01 154.418L1887.02 152.449H1887.05Z" fill="#A36F00"/>
<path d="M1817.14 171.002C1804 155.235 1784.19 145.181 1762.05 145.181C1739.92 145.181 1720.11 155.22 1706.96 171.002L1710.4 173.866C1722.73 159.068 1741.27 149.656 1762.04 149.656C1782.8 149.656 1801.35 159.068 1813.68 173.866L1817.13 171.002H1817.14Z" fill="#A36F00"/>
<path d="M1739.21 197.008C1745.19 191.385 1753.21 187.939 1762.05 187.939C1770.9 187.939 1778.91 191.385 1784.89 197.008L1787.96 193.756C1781.2 187.387 1772.09 183.479 1762.07 183.479C1752.04 183.479 1742.91 187.402 1736.16 193.771L1739.23 197.023L1739.21 197.008Z" fill="#A36F00"/>
<path d="M1799.7 236.01C1818.03 208.339 1849.42 190.081 1885.1 190.081C1920.78 190.081 1952.18 208.324 1970.52 236.01L1974.25 233.534C1955.12 204.655 1922.33 185.605 1885.1 185.605C1847.87 185.605 1815.08 204.655 1795.97 233.534L1799.7 236.01Z" fill="#A36F00"/>
<path d="M2010.07 229.093C1987.46 182.91 1939.99 151.106 1885.1 151.106C1830.2 151.106 1782.75 182.91 1760.12 229.093L1764.13 231.062C1786.03 186.37 1831.96 155.582 1885.08 155.582C1938.22 155.582 1984.13 186.37 2006.03 231.062L2010.04 229.093H2010.07Z" fill="#A36F00"/>
<path d="M1940.18 247.645C1927.04 231.877 1907.23 221.823 1885.09 221.823C1862.95 221.823 1843.14 231.862 1830 247.645L1833.43 250.509C1845.77 235.711 1864.31 226.298 1885.08 226.298C1905.84 226.298 1924.38 235.711 1936.72 250.509L1940.17 247.645H1940.18Z" fill="#A36F00"/>
<path d="M1862.26 273.66C1868.22 268.036 1876.25 264.59 1885.09 264.59C1893.94 264.59 1901.95 268.036 1907.93 273.66L1911 270.408C1904.25 264.038 1895.13 260.13 1885.11 260.13C1875.08 260.13 1865.95 264.053 1859.2 270.423L1862.27 273.675L1862.26 273.66Z" fill="#A36F00"/>
<path d="M1922.6 159.365C1940.93 131.694 1972.32 113.435 2008 113.435C2043.68 113.435 2075.08 131.679 2093.41 159.365L2097.14 156.889C2078.02 128.009 2045.23 108.96 2008 108.96C1970.76 108.96 1937.98 128.009 1918.87 156.889L1922.6 159.365Z" fill="#A36F00"/>
<path d="M2132.97 152.444C2110.36 106.26 2062.89 74.457 2008 74.457C1953.1 74.457 1905.65 106.26 1883.02 152.444L1887.03 154.413C1908.93 109.706 1954.86 78.9322 2007.98 78.9322C2061.12 78.9322 2107.03 109.721 2128.93 154.413L2132.94 152.444H2132.97Z" fill="#A36F00"/>
<path d="M2063.08 171.005C2049.94 155.238 2030.13 145.184 2008 145.184C1985.86 145.184 1966.05 155.223 1952.91 171.005L1956.34 173.869C1968.67 159.071 1987.22 149.659 2007.98 149.659C2028.74 149.659 2047.29 159.071 2059.62 173.869L2063.07 171.005H2063.08Z" fill="#A36F00"/>
<path d="M1985.17 196.998C1991.13 191.374 1999.16 187.928 2008 187.928C2016.85 187.928 2024.86 191.374 2030.84 196.998L2033.91 193.746C2027.16 187.376 2018.04 183.468 2008.02 183.468C1997.99 183.468 1988.86 187.391 1982.11 193.761L1985.18 197.013L1985.17 196.998Z" fill="#A36F00"/>
<path d="M2045.61 236.02C2063.94 208.349 2095.34 190.09 2131.01 190.09C2166.67 190.09 2198.09 208.334 2216.42 236.02L2220.15 233.544C2201.03 204.664 2168.24 185.615 2131.01 185.615C2093.77 185.615 2060.99 204.664 2041.86 233.544L2045.59 236.02H2045.61Z" fill="#A36F00"/>
<path d="M2255.98 229.098C2233.37 182.915 2185.9 151.111 2131.01 151.111C2076.11 151.111 2028.66 182.915 2006.03 229.098L2010.05 231.067C2031.94 186.375 2077.87 155.586 2130.99 155.586C2184.13 155.586 2230.04 186.375 2251.94 231.067L2255.95 229.098H2255.98Z" fill="#A36F00"/>
<path d="M2186.1 247.651C2172.96 231.883 2153.15 221.829 2131.01 221.829C2108.87 221.829 2089.06 231.868 2075.92 247.651L2079.35 250.515C2091.69 235.717 2110.23 226.304 2131 226.304C2151.76 226.304 2170.3 235.717 2182.64 250.515L2186.07 247.651H2186.1Z" fill="#A36F00"/>
<path d="M2108.17 273.662C2114.15 268.038 2122.16 264.592 2131.01 264.592C2139.85 264.592 2147.86 268.038 2153.85 273.662L2156.92 270.41C2150.16 264.04 2141.05 260.132 2131.02 260.132C2121 260.132 2111.87 264.055 2105.11 270.425L2108.19 273.677L2108.17 273.662Z" fill="#A36F00"/>
<path d="M2168.52 159.361C2186.85 131.69 2218.26 113.431 2253.92 113.431C2289.59 113.431 2321 131.675 2339.34 159.361L2343.07 156.885C2323.94 128.005 2291.16 108.956 2253.92 108.956C2216.69 108.956 2183.9 128.005 2164.78 156.885L2168.51 159.361H2168.52Z" fill="#A36F00"/>
<path d="M2378.89 152.445C2356.28 106.261 2308.81 74.458 2253.92 74.458C2199.02 74.458 2151.57 106.261 2128.94 152.445L2132.95 154.414C2154.85 109.707 2200.78 78.9331 2253.9 78.9331C2307.04 78.9331 2352.95 109.722 2374.85 154.414L2378.86 152.445H2378.89Z" fill="#A36F00"/>
<path d="M2309.01 171.005C2295.87 155.238 2276.06 145.184 2253.92 145.184C2231.79 145.184 2211.98 155.223 2198.83 171.005L2202.26 173.869C2214.6 159.071 2233.14 149.659 2253.91 149.659C2274.67 149.659 2293.21 159.071 2305.55 173.869L2308.98 171.005H2309.01Z" fill="#A36F00"/>
<path d="M2231.1 196.995C2237.08 191.371 2245.09 187.925 2253.94 187.925C2262.78 187.925 2270.79 191.371 2276.77 196.995L2279.85 193.743C2273.09 187.373 2263.98 183.465 2253.95 183.465C2243.93 183.465 2234.8 187.388 2228.04 193.758L2231.11 197.01L2231.1 196.995Z" fill="#A36F00"/>
<path d="M2291.53 236.017C2309.87 208.346 2341.27 190.087 2376.93 190.087C2412.6 190.087 2444.02 208.331 2462.35 236.017L2466.08 233.541C2446.96 204.661 2414.17 185.612 2376.93 185.612C2339.7 185.612 2306.91 204.661 2287.79 233.541L2291.52 236.017H2291.53Z" fill="#A36F00"/>
<path d="M2501.94 229.083C2479.32 182.9 2431.86 151.097 2376.96 151.097C2322.07 151.097 2274.62 182.9 2251.99 229.083L2256 231.052C2277.9 186.361 2323.83 155.572 2376.95 155.572C2430.08 155.572 2476 186.361 2497.89 231.052L2501.91 229.083H2501.94Z" fill="#A36F00"/>
<path d="M2432.03 247.64C2418.89 231.872 2399.08 221.818 2376.94 221.818C2354.8 221.818 2334.99 231.858 2321.85 247.64L2325.28 250.504C2337.62 235.706 2356.16 226.293 2376.93 226.293C2397.69 226.293 2416.23 235.706 2428.57 250.504L2432.02 247.64H2432.03Z" fill="#A36F00"/>
<path d="M2354.09 273.664C2360.07 268.04 2368.09 264.594 2376.93 264.594C2385.78 264.594 2393.79 268.04 2399.77 273.664L2402.84 270.412C2396.08 264.042 2386.97 260.134 2376.95 260.134C2366.92 260.134 2357.79 264.057 2351.04 270.427L2354.11 273.679L2354.09 273.664Z" fill="#A36F00"/>
<path d="M2414.44 159.372C2432.77 131.7 2464.17 113.442 2499.84 113.442C2535.51 113.442 2566.92 131.686 2585.26 159.372L2588.99 156.895C2569.86 128.016 2537.07 108.967 2499.84 108.967C2462.61 108.967 2429.82 128.016 2410.7 156.895L2414.43 159.372H2414.44Z" fill="#A36F00"/>
<path d="M2624.83 152.437C2602.22 106.253 2554.75 74.4502 2499.85 74.4502C2444.96 74.4502 2397.51 106.253 2374.88 152.437L2378.89 154.406C2400.79 109.699 2446.72 78.9253 2499.84 78.9253C2552.97 78.9253 2598.89 109.714 2620.79 154.406L2624.8 152.437H2624.83Z" fill="#A36F00"/>
<path d="M2554.94 170.999C2541.79 155.232 2521.98 145.178 2499.85 145.178C2477.71 145.178 2457.9 155.217 2444.76 170.999L2448.19 173.863C2460.53 159.066 2479.07 149.653 2499.83 149.653C2520.6 149.653 2539.14 159.066 2551.48 173.863L2554.92 170.999H2554.94Z" fill="#A36F00"/>
<path d="M2477 197.003C2482.98 191.38 2490.99 187.934 2499.84 187.934C2508.68 187.934 2516.69 191.38 2522.68 197.003L2525.75 193.752C2518.99 187.382 2509.88 183.474 2499.85 183.474C2489.83 183.474 2480.7 187.397 2473.94 193.766L2477.01 197.018L2477 197.003Z" fill="#A36F00"/>
<path d="M2660.38 159.355C2678.71 131.684 2710.1 113.425 2745.78 113.425C2781.46 113.425 2812.86 131.669 2831.2 159.355L2834.92 156.879C2815.8 127.999 2783.01 108.95 2745.78 108.95C2708.55 108.95 2675.76 127.999 2656.65 156.879L2660.38 159.355Z" fill="#A36F00"/>
<path d="M2870.76 152.447C2848.15 106.263 2800.68 74.46 2745.79 74.46C2690.89 74.46 2643.44 106.263 2620.81 152.447L2624.83 154.416C2646.72 109.709 2692.65 78.9351 2745.77 78.9351C2798.91 78.9351 2844.82 109.724 2866.72 154.416L2870.73 152.447H2870.76Z" fill="#A36F00"/>
<path d="M2800.84 171.015C2787.7 155.247 2767.89 145.193 2745.75 145.193C2723.62 145.193 2703.81 155.233 2690.67 171.015L2694.1 173.879C2706.43 159.081 2724.97 149.668 2745.74 149.668C2766.5 149.668 2785.05 159.081 2797.38 173.879L2800.83 171.015H2800.84Z" fill="#A36F00"/>
<path d="M2722.94 197.007C2728.91 191.384 2736.93 187.938 2745.78 187.938C2754.62 187.938 2762.63 191.384 2768.62 197.007L2771.69 193.755C2764.93 187.386 2755.82 183.478 2745.79 183.478C2735.77 183.478 2726.64 187.401 2719.88 193.77L2722.95 197.022L2722.94 197.007Z" fill="#A36F00"/>
</g>
</svg>
