<svg width="360" height="880" viewBox="0 0 360 880" fill="none" xmlns="http://www.w3.org/2000/svg">
<mask id="mask0_1317_53911" style="mask-type:luminance" maskUnits="userSpaceOnUse" x="-776" y="0" width="1169" height="1165">
<path opacity="0.12" d="M392.284 1014.54L254.993 1152.34L242.591 1139.98L230.233 1152.38L217.83 1140.03L193.116 1164.83L-35.592 936.963L-546.82 427.609L-775.533 199.734L-750.857 174.967L-763.221 162.571L-750.864 150.168L-763.267 137.811L-625.977 0.015625L392.284 1014.54Z" fill="white"/>
</mask>
<g mask="url(#mask0_1317_53911)">
<path d="M-10.2979 948.127C-1.70442 922.892 -7.49945 893.844 -27.6595 873.758C-47.8196 853.672 -76.883 847.989 -102.092 856.67L-101.339 858.861C-76.9386 850.455 -48.8107 855.96 -29.3025 875.396C-9.78883 894.838 -4.19243 922.946 -12.5031 947.371L-10.3089 948.117L-10.2979 948.127Z" fill="#A36F00"/>
<path d="M-27.7276 875.349C-19.1341 850.114 -24.9291 821.066 -45.0892 800.98C-65.2493 780.894 -94.3127 775.211 -119.522 783.891L-118.769 786.083C-94.3682 777.677 -66.2404 783.181 -46.7322 802.618C-27.2185 822.06 -21.6221 850.167 -29.9328 874.593L-27.7386 875.338L-27.7276 875.349Z" fill="#A36F00"/>
<path d="M-34.3345 817.733C-17.4767 814.279 0.730495 819.058 13.8346 832.114C26.9386 845.17 31.795 863.359 28.3974 880.235L30.673 880.69C34.217 863.087 29.1458 844.094 15.472 830.47C1.79822 816.847 -17.2132 811.845 -34.798 815.459L-34.3345 817.733Z" fill="#A36F00"/>
<path d="M45.455 892.167C54.0485 866.931 48.2535 837.883 28.0934 817.797C7.93329 797.711 -21.13 792.028 -46.3392 800.709L-45.586 802.9C-21.1856 794.494 6.94226 799.999 26.4504 819.435C45.9641 838.877 51.5605 866.985 43.2498 891.41L45.444 892.156L45.455 892.167Z" fill="#A36F00"/>
<path d="M13.0047 873.418C13.9477 862.819 10.3514 851.878 2.22158 843.778C-5.9082 835.678 -16.8568 832.117 -27.4579 833.104L-27.2459 835.411C-17.3008 834.491 -7.04714 837.818 0.578631 845.416C8.20441 853.014 11.5698 863.255 10.6858 873.204L12.9992 873.413L13.0047 873.418Z" fill="#A36F00"/>
<path d="M-17.2059 890.908C-0.348137 887.454 17.8645 892.238 30.9631 905.289C44.0617 918.34 48.9236 936.535 45.5259 953.41L47.8016 953.866C51.3455 936.262 46.2744 917.269 32.6006 903.646C18.9267 890.022 -0.0846634 885.021 -17.6749 888.629L-17.2114 890.903L-17.2059 890.908Z" fill="#A36F00"/>
<path d="M62.5927 965.338C71.1862 940.103 65.3912 911.055 45.2311 890.969C25.071 870.883 -3.99235 865.2 -29.2015 873.881L-28.4483 876.072C-4.04793 867.666 24.08 873.17 43.5881 892.607C63.1018 912.049 68.6983 940.157 60.3876 964.582L62.5817 965.327L62.5927 965.338Z" fill="#A36F00"/>
<path d="M135.776 982.157C144.37 956.921 138.575 927.874 118.415 907.787C98.2546 887.701 69.1912 882.018 43.9821 890.699L44.7353 892.89C69.1357 884.485 97.2636 889.989 116.772 909.425C136.285 928.868 141.882 956.975 133.571 981.401L135.765 982.146L135.776 982.157Z" fill="#A36F00"/>
<path d="M-68.5145 671.393C-51.6567 667.939 -33.4441 672.723 -20.3455 685.773C-7.24692 698.824 -2.38503 717.019 -5.78264 733.895L-3.50701 734.35C0.0369151 716.747 -5.03424 697.754 -18.708 684.13C-32.3818 670.506 -51.3933 665.505 -68.9835 669.113L-68.52 671.387L-68.5145 671.393Z" fill="#A36F00"/>
<path d="M11.285 745.84C19.8785 720.605 14.0836 691.557 -6.07653 671.471C-26.2366 651.385 -55.3 645.702 -80.5091 654.383L-79.756 656.574C-55.3556 648.168 -27.2277 653.672 -7.71947 673.109C11.7942 692.551 17.3906 720.659 9.07995 745.084L11.2741 745.829L11.285 745.84Z" fill="#A36F00"/>
<path d="M-51.3667 744.567C-34.5089 741.113 -16.3017 745.892 -3.19767 758.948C9.90639 772.004 14.7628 790.193 11.3652 807.069L13.6408 807.524C17.1847 789.921 12.1136 770.928 -1.56021 757.304C-15.234 743.68 -34.2454 738.679 -51.8302 742.293L-51.3667 744.567Z" fill="#A36F00"/>
<path d="M28.4218 818.997C37.0153 793.761 31.2203 764.713 11.0602 744.627C-9.09991 724.541 -38.1633 718.858 -63.3724 727.539L-62.6192 729.73C-38.2243 721.33 -10.0909 726.829 9.41724 746.265C28.9309 765.707 34.5273 793.815 26.2166 818.241L28.4108 818.986L28.4218 818.997Z" fill="#A36F00"/>
<path d="M-4.03331 800.239C-3.09036 789.639 -6.68673 778.699 -14.8165 770.599C-22.9463 762.499 -33.8949 758.937 -44.496 759.924L-44.284 762.232C-34.3389 761.311 -24.0852 764.639 -16.4595 772.237C-8.83368 779.834 -5.4683 790.076 -6.3523 800.024L-4.0388 800.233L-4.03331 800.239Z" fill="#A36F00"/>
<path d="M21.8111 761.38C38.6688 757.925 56.876 762.704 69.9801 775.76C83.0841 788.816 87.9405 807.006 84.5429 823.881L86.8186 824.337C90.3625 806.733 85.2913 787.74 71.6175 774.117C57.9437 760.493 38.9323 755.492 21.3476 759.106L21.8111 761.38Z" fill="#A36F00"/>
<path d="M101.604 835.815C110.198 810.58 104.403 781.532 84.2428 761.446C64.0827 741.359 35.0194 735.677 9.81021 744.357L10.5634 746.549C34.9638 738.143 63.0917 743.647 82.5999 763.084C102.114 782.526 107.71 810.633 99.3993 835.059L101.593 835.804L101.604 835.815Z" fill="#A36F00"/>
<path d="M69.1453 817.063C70.0883 806.464 66.492 795.523 58.3622 787.423C50.2324 779.323 39.2839 775.761 28.6827 776.749L28.8948 779.056C38.8398 778.135 49.0935 781.463 56.7193 789.061C64.345 796.659 67.7104 806.9 66.8264 816.848L69.1398 817.057L69.1453 817.063Z" fill="#A36F00"/>
<path d="M31.0211 798.101C35.2701 798.219 39.4783 799.89 42.7269 803.127C45.9755 806.364 47.6565 810.56 47.7956 814.814L50.114 814.745C49.963 809.933 48.0458 805.162 44.3644 801.495C40.683 797.827 35.8948 795.927 31.0825 795.794L31.0211 798.112L31.0211 798.101Z" fill="#A36F00"/>
<path d="M38.9367 834.549C55.7944 831.095 74.0071 835.879 87.1057 848.93C100.204 861.98 105.066 880.175 101.669 897.051L103.944 897.506C107.488 879.903 102.417 860.91 88.7431 847.286C75.0693 833.663 56.0579 828.661 38.4677 832.27L38.9312 834.544L38.9367 834.549Z" fill="#A36F00"/>
<path d="M118.732 908.981C127.326 883.746 121.531 854.698 101.371 834.612C81.2106 814.525 52.1473 808.843 26.9381 817.523L27.6914 819.715C52.0863 811.314 80.2196 816.813 99.7278 836.25C119.241 855.692 124.838 883.799 116.527 908.225L118.721 908.97L118.732 908.981Z" fill="#A36F00"/>
<path d="M86.2772 890.227C87.2201 879.628 83.6237 868.687 75.494 860.587C67.3642 852.487 56.4157 848.925 45.8145 849.913L46.0265 852.22C55.9716 851.299 66.2253 854.627 73.851 862.225C81.4768 869.823 84.8422 880.064 83.9582 890.012L86.2662 890.216L86.2772 890.227Z" fill="#A36F00"/>
<path d="M48.1432 871.262C52.3977 871.385 56.6004 873.051 59.849 876.287C63.0976 879.524 64.7786 883.721 64.9177 887.975L67.2361 887.905C67.0851 883.093 65.1679 878.323 61.4865 874.655C57.8051 870.987 53.0169 869.087 48.2045 868.954L48.1431 871.272L48.1432 871.262Z" fill="#A36F00"/>
<path d="M112.129 851.369C128.987 847.915 147.199 852.699 160.298 865.75C173.397 878.801 178.259 896.995 174.861 913.871L177.137 914.326C180.68 896.723 175.609 877.73 161.936 864.107C148.262 850.483 129.25 845.481 111.66 849.09L112.124 851.364L112.129 851.369Z" fill="#A36F00"/>
<path d="M191.916 925.801C200.509 900.566 194.714 871.518 174.554 851.432C154.394 831.346 125.331 825.663 100.122 834.344L100.875 836.535C125.275 828.129 153.403 833.633 172.911 853.07C192.425 872.512 198.021 900.62 189.711 925.045L191.905 925.79L191.916 925.801Z" fill="#A36F00"/>
<path d="M159.464 907.051C160.407 896.452 156.81 885.511 148.681 877.411C140.551 869.311 129.602 865.749 119.001 866.737L119.213 869.044C129.158 868.124 139.412 871.451 147.038 879.049C154.663 886.647 158.029 896.888 157.145 906.837L159.453 907.04L159.464 907.051Z" fill="#A36F00"/>
<path d="M209.063 998.975C217.657 973.74 211.862 944.692 191.702 924.606C171.542 904.52 142.478 898.837 117.269 907.517L118.022 909.709C142.417 901.309 170.551 906.807 190.059 926.244C209.572 945.686 215.169 973.794 206.858 998.219L209.052 998.964L209.063 998.975Z" fill="#A36F00"/>
</g>
</svg>
