<svg width="34" height="64" viewBox="0 0 34 64" fill="none" xmlns="http://www.w3.org/2000/svg">
<g id="pattern">
<g id="Group">
<g id="Group_2">
<path id="Vector" d="M16.1232 25.5227V23.7462H20.8057V22.4333H22.5678V23.7462H26.0167V25.5227H22.5678V27.5047H26.3944V28.998H22.5678V31.6238H20.8057V28.998H16.4253L16.8783 25.5227H16.1232ZM16.1985 16.0232V14.2213H18.4895L18.716 12.4449H16.8783V10.746H19.0181L19.2448 9.04688L21.007 9.14995L20.7805 10.746H25.0601V14.2213H26.3692V16.0232H16.1985ZM16.9035 17.2331H25.4881V22.2275H16.9035V17.2331ZM18.6659 20.5283H23.8013V18.9322H18.6659V20.5283ZM23.3231 12.4449H20.4784L20.2519 14.2213H23.3231V12.4449ZM18.5903 25.5227L18.2882 27.5047H20.8309V25.5227H18.5903ZM8.09229 13.2946V11.235H11.1635V9.1754H12.926V11.235H15.8463V13.2946H12.926V14.9934H15.3678V24.2098H12.926V25.9859H15.8463V28.0455H12.926V31.5208H11.1635V28.0455H7.94141V25.9859H11.1635V24.2098H8.72166V14.9934H11.1635V13.2946H8.09229ZM10.3077 22.3305H13.7566V20.451H10.3077V22.3305ZM10.3077 18.7522H13.7566V16.873H10.3077V18.7522Z" fill="#E60012"/>
<path id="Vector_2" d="M25.7146 46.7367C21.7874 45.4238 18.9678 43.5189 17.2811 40.996C15.393 43.3129 12.5483 45.295 8.77206 46.9168C8.72171 46.7366 8.62103 46.4535 8.46998 46.0674C8.21823 45.4495 8.04211 44.986 7.94141 44.6514C11.9694 43.081 14.8643 41.0731 16.6014 38.6275L18.8924 38.9107L18.4391 39.58C20.3272 41.8454 23.046 43.4415 26.5705 44.3682C26.4194 44.7544 26.1931 45.3722 25.891 46.2475C25.8155 46.4534 25.765 46.608 25.7146 46.7367ZM25.0097 54.923C23.3229 53.61 21.586 52.3487 19.7986 51.1645L20.9566 49.3881C21.7873 49.9544 22.9454 50.7784 24.4811 51.8339C25.2615 52.4002 25.8407 52.812 26.2435 53.0437L25.0097 54.923ZM19.9498 39.8631V37.9839H14.4364V39.8631H12.3722V37.9839H8.16789V35.8216H12.3722V33.5562H14.4364V35.8216H19.9498V33.5562H22.014V35.8216H26.1427V37.9839H22.014V39.8631H19.9498ZM10.3833 48.5129V46.3505H16.2741V43.4415H18.3386V46.3505H24.0029V48.5129H18.3386V52.8379C18.3889 54.7944 17.6336 55.7469 16.0476 55.7469H14.8897C14.2351 55.7984 13.7567 55.8497 13.5049 55.8497C13.3539 55.0259 13.2027 54.2538 13.0516 53.5073C13.5048 53.5587 14.2099 53.61 15.1161 53.61C15.9217 53.6615 16.3244 53.2238 16.2741 52.2971V48.5386H10.3833V48.5129ZM9.22534 55.0003C8.72185 54.125 8.2939 53.533 7.9918 53.2241C9.98061 51.7825 11.6168 50.4437 12.9008 49.1822L14.2855 50.8814C13.3037 51.7567 12.0196 52.8637 10.3833 54.1766C9.87979 54.537 9.47709 54.8201 9.22534 55.0003Z" fill="#E60012"/>
<path id="Vector_3" d="M16.3246 3.43555H18.0618C25.715 3.43555 31.908 9.76841 31.908 17.5944V47.5597C31.908 55.3857 25.715 61.7185 18.0618 61.7185H16.3246C8.67151 61.7185 2.47852 55.3857 2.47852 47.5597V17.5944C2.47852 9.76841 8.67151 3.43555 16.3246 3.43555Z" stroke="#E60012" stroke-width="2" stroke-miterlimit="10"/>
</g>
</g>
</g>
</svg>
